<svg width="49" height="15" viewBox="0 0 49 15" fill="none" xmlns="http://www.w3.org/2000/svg">
<path d="M10.6719 2.3125C10.6406 2.21875 10.6354 2.16667 10.6562 2.15625C10.6771 2.14583 10.7031 2.13021 10.7344 2.10938C10.8281 1.97396 10.9375 1.86458 11.0625 1.78125C11.1875 1.6875 11.3125 1.59896 11.4375 1.51562C11.5 1.41146 11.5833 1.3125 11.6875 1.21875C11.8646 1.19792 11.9948 1.19792 12.0781 1.21875C12.1719 1.22917 12.2708 1.23958 12.375 1.25C12.4583 1.26042 12.5365 1.26042 12.6094 1.25C12.6927 1.22917 12.7708 1.22396 12.8438 1.23438C13.0208 1.25521 13.1458 1.26042 13.2188 1.25C13.3021 1.22917 13.3854 1.22396 13.4688 1.23438C13.5208 1.23438 13.5938 1.25521 13.6875 1.29688C13.7812 1.32812 13.8125 1.375 13.7812 1.4375C13.7604 1.46875 13.7083 1.49479 13.625 1.51562C13.5521 1.53646 13.474 1.54167 13.3906 1.53125C13.224 1.48958 13.099 1.47917 13.0156 1.5C12.9427 1.51042 12.8646 1.52083 12.7812 1.53125H12.2656C12.1927 1.53125 12.125 1.52083 12.0625 1.5C12.0104 1.47917 11.9583 1.47917 11.9062 1.5C11.8646 1.52083 11.8333 1.54688 11.8125 1.57812C11.7917 1.59896 11.7708 1.61979 11.75 1.64062C11.6458 1.68229 11.5521 1.73958 11.4688 1.8125C11.3958 1.875 11.3177 1.94271 11.2344 2.01562C11.151 2.07812 11.0625 2.14062 10.9688 2.20312C10.8854 2.25521 10.7865 2.29167 10.6719 2.3125ZM14.3594 1.625C14.3073 1.61458 14.2604 1.59896 14.2188 1.57812C14.1875 1.55729 14.1458 1.54688 14.0938 1.54688C14.0625 1.49479 14.0625 1.4375 14.0938 1.375C14.1562 1.32292 14.25 1.30729 14.375 1.32812C14.5 1.34896 14.5677 1.40625 14.5781 1.5C14.5781 1.55208 14.5521 1.58854 14.5 1.60938C14.4583 1.61979 14.4115 1.625 14.3594 1.625ZM3.34375 1.125C3.3125 1.11458 3.25521 1.07812 3.17188 1.01562C3.09896 0.953125 3.05208 0.90625 3.03125 0.875C3.08333 0.760417 3.13021 0.71875 3.17188 0.75C3.22396 0.770833 3.28646 0.776042 3.35938 0.765625C3.40104 0.755208 3.43229 0.739583 3.45312 0.71875C3.48438 0.697917 3.52604 0.697917 3.57812 0.71875C3.69271 0.75 3.73958 0.822917 3.71875 0.9375C3.70833 1.05208 3.65625 1.13021 3.5625 1.17188C3.53125 1.14062 3.49479 1.13021 3.45312 1.14062C3.42188 1.15104 3.38542 1.14583 3.34375 1.125ZM14.7188 12.9844C14.7396 13.0365 14.7292 13.0885 14.6875 13.1406C14.6562 13.1927 14.6354 13.2396 14.625 13.2812C14.5729 13.3125 14.526 13.3385 14.4844 13.3594C14.4531 13.3906 14.4115 13.4167 14.3594 13.4375C14.3073 13.4583 14.25 13.4583 14.1875 13.4375C14.125 13.4167 14.0625 13.4167 14 13.4375C13.9583 13.4167 13.9115 13.401 13.8594 13.3906C13.8073 13.3906 13.7552 13.3906 13.7031 13.3906C13.6094 13.3802 13.5156 13.375 13.4219 13.375C13.3281 13.3854 13.224 13.3906 13.1094 13.3906C12.9948 13.3906 12.8854 13.3802 12.7812 13.3594C12.6771 13.349 12.5833 13.3438 12.5 13.3438C12.4271 13.3438 12.3438 13.3542 12.25 13.375C12.1667 13.3958 12.1146 13.3646 12.0938 13.2812C12 13.25 11.9115 13.224 11.8281 13.2031C11.7448 13.1927 11.6719 13.1615 11.6094 13.1094C11.5781 13.0885 11.5521 13.0573 11.5312 13.0156C11.5208 12.9844 11.5052 12.9531 11.4844 12.9219C11.4323 12.849 11.3802 12.7812 11.3281 12.7188C11.276 12.6458 11.2292 12.5677 11.1875 12.4844C11.1458 12.401 11.1094 12.3125 11.0781 12.2188C11.0573 12.1146 10.9896 12.0365 10.875 11.9844C10.8438 11.9531 10.8177 11.9167 10.7969 11.875C10.776 11.8333 10.7552 11.7969 10.7344 11.7656C10.7135 11.7448 10.6875 11.7292 10.6562 11.7188C10.625 11.6979 10.599 11.6771 10.5781 11.6562C10.5573 11.625 10.5365 11.5885 10.5156 11.5469C10.4948 11.5052 10.4688 11.4688 10.4375 11.4375C10.3021 11.2604 10.1719 11.0885 10.0469 10.9219C9.92188 10.7552 9.80208 10.5729 9.6875 10.375C9.63542 10.3021 9.57812 10.2344 9.51562 10.1719C9.45312 10.099 9.41146 10.026 9.39062 9.95312C9.36979 9.90104 9.35417 9.84375 9.34375 9.78125C9.34375 9.70833 9.32812 9.64583 9.29688 9.59375C9.27604 9.55208 9.24479 9.51562 9.20312 9.48438C9.17188 9.44271 9.14062 9.40625 9.10938 9.375C9.08854 9.36458 9.05729 9.35417 9.01562 9.34375C8.98438 9.33333 8.95833 9.31771 8.9375 9.29688C8.88542 9.25521 8.84375 9.19792 8.8125 9.125C8.78125 9.04167 8.75 8.96875 8.71875 8.90625C8.66667 8.80208 8.60417 8.69792 8.53125 8.59375C8.46875 8.47917 8.42188 8.36458 8.39062 8.25C8.33854 8.20833 8.29688 8.15625 8.26562 8.09375C8.23438 8.02083 8.19271 7.95833 8.14062 7.90625C7.92188 8.08333 7.69792 8.26562 7.46875 8.45312C7.25 8.63021 7.03125 8.8125 6.8125 9C6.77083 9.26042 6.75 9.48958 6.75 9.6875C6.76042 9.88542 6.75521 10.1146 6.73438 10.375C6.72396 10.4375 6.72396 10.5104 6.73438 10.5938C6.74479 10.6771 6.73958 10.75 6.71875 10.8125C6.70833 10.8542 6.69271 10.8854 6.67188 10.9062C6.65104 10.9167 6.63021 10.9479 6.60938 11C6.55729 11.0938 6.54167 11.1823 6.5625 11.2656C6.5625 11.3281 6.57292 11.3854 6.59375 11.4375C6.625 11.4792 6.64583 11.5312 6.65625 11.5938C6.66667 11.6354 6.66667 11.6771 6.65625 11.7188C6.65625 11.7604 6.65625 11.8073 6.65625 11.8594C6.65625 11.9115 6.65104 11.9688 6.64062 12.0312C6.64062 12.0938 6.64062 12.151 6.64062 12.2031C6.63021 12.2344 6.61979 12.2656 6.60938 12.2969C6.59896 12.3281 6.59375 12.3594 6.59375 12.3906C6.59375 12.5052 6.56771 12.5885 6.51562 12.6406C6.46354 12.6927 6.41146 12.7396 6.35938 12.7812C6.31771 12.8021 6.26562 12.8281 6.20312 12.8594C6.14062 12.8906 6.09896 12.9062 6.07812 12.9062C5.97396 12.9167 5.86979 12.9219 5.76562 12.9219C5.66146 12.9219 5.55729 12.9115 5.45312 12.8906C5.41146 12.8802 5.38021 12.8646 5.35938 12.8438C5.33854 12.8229 5.3125 12.8021 5.28125 12.7812C5.26042 12.7604 5.22917 12.7396 5.1875 12.7188C5.15625 12.6979 5.11979 12.6719 5.07812 12.6406C5.01562 12.599 4.95833 12.5677 4.90625 12.5469C4.86458 12.5156 4.80729 12.4948 4.73438 12.4844C4.66146 12.4844 4.58333 12.4896 4.5 12.5C4.41667 12.5 4.34375 12.5104 4.28125 12.5312C4.22917 12.5521 4.17188 12.5885 4.10938 12.6406C4.04688 12.6823 3.98958 12.7083 3.9375 12.7188C3.79167 12.6979 3.69792 12.6875 3.65625 12.6875C3.61458 12.6875 3.56771 12.6771 3.51562 12.6562C3.43229 12.6458 3.33854 12.6406 3.23438 12.6406C3.14062 12.6406 3.04167 12.6302 2.9375 12.6094C2.82292 12.5885 2.70833 12.5729 2.59375 12.5625C2.47917 12.5521 2.36458 12.5469 2.25 12.5469C2.20833 12.5469 2.16667 12.5521 2.125 12.5625C2.09375 12.5625 2.05729 12.5625 2.01562 12.5625C1.96354 12.5521 1.91146 12.5365 1.85938 12.5156C1.80729 12.4844 1.75521 12.474 1.70312 12.4844C1.63021 12.4115 1.54688 12.349 1.45312 12.2969C1.36979 12.2448 1.30208 12.1771 1.25 12.0938C1.21875 11.7917 1.21875 11.4896 1.25 11.1875C1.28125 10.8854 1.29688 10.5677 1.29688 10.2344C1.29688 10.099 1.30208 9.97396 1.3125 9.85938C1.32292 9.74479 1.33854 9.63021 1.35938 9.51562C1.36979 9.46354 1.38021 9.41146 1.39062 9.35938C1.41146 9.29688 1.43229 9.23958 1.45312 9.1875C1.46354 9.13542 1.46875 9.09375 1.46875 9.0625C1.47917 9.02083 1.51042 8.98958 1.5625 8.96875C1.58333 8.88542 1.61979 8.81771 1.67188 8.76562C1.72396 8.71354 1.76042 8.65104 1.78125 8.57812C1.83333 8.43229 1.85938 8.29167 1.85938 8.15625C1.86979 8.02083 1.88021 7.875 1.89062 7.71875V7.0625C1.89062 6.98958 1.88542 6.91667 1.875 6.84375C1.875 6.76042 1.88021 6.67708 1.89062 6.59375C1.92188 6.42708 1.91667 6.30208 1.875 6.21875C1.83333 6.13542 1.80208 6.04167 1.78125 5.9375C1.77083 5.88542 1.76042 5.83854 1.75 5.79688C1.75 5.75521 1.73958 5.70833 1.71875 5.65625C1.69792 5.5625 1.68229 5.46354 1.67188 5.35938C1.66146 5.25521 1.66667 5.14062 1.6875 5.01562C1.71875 4.74479 1.73958 4.47396 1.75 4.20312C1.76042 3.93229 1.77604 3.67188 1.79688 3.42188C1.79688 3.39062 1.79167 3.35417 1.78125 3.3125C1.77083 3.27083 1.77083 3.23438 1.78125 3.20312C1.79167 3.07812 1.80208 2.93229 1.8125 2.76562C1.83333 2.59896 1.84375 2.44792 1.84375 2.3125C1.84375 2.11458 1.85417 1.92188 1.875 1.73438C1.89583 1.53646 1.97396 1.38021 2.10938 1.26562C2.23438 1.25521 2.34896 1.23958 2.45312 1.21875C2.55729 1.19792 2.66667 1.17708 2.78125 1.15625C2.83333 1.19792 2.88021 1.22396 2.92188 1.23438C2.97396 1.23438 3.03125 1.25 3.09375 1.28125C3.16667 1.33333 3.23438 1.39583 3.29688 1.46875C3.35938 1.53125 3.44792 1.55208 3.5625 1.53125C3.59375 1.53125 3.61979 1.51562 3.64062 1.48438C3.66146 1.45312 3.69271 1.42708 3.73438 1.40625C3.79688 1.35417 3.86979 1.32812 3.95312 1.32812C4.03646 1.31771 4.13542 1.3125 4.25 1.3125C4.27083 1.3125 4.29688 1.30729 4.32812 1.29688C4.35938 1.28646 4.39062 1.27604 4.42188 1.26562C4.56771 1.24479 4.71875 1.24479 4.875 1.26562C5.03125 1.28646 5.18229 1.30208 5.32812 1.3125C5.38021 1.33333 5.42708 1.33854 5.46875 1.32812C5.51042 1.30729 5.55208 1.30208 5.59375 1.3125C5.625 1.3125 5.65625 1.32292 5.6875 1.34375C5.71875 1.35417 5.75 1.35938 5.78125 1.35938C5.86458 1.38021 5.96354 1.38542 6.07812 1.375C6.19271 1.35417 6.30729 1.35417 6.42188 1.375C6.47396 1.38542 6.53646 1.39583 6.60938 1.40625C6.68229 1.40625 6.74479 1.41667 6.79688 1.4375C6.88021 1.46875 6.96354 1.53125 7.04688 1.625C7.13021 1.71875 7.17708 1.82292 7.1875 1.9375C7.25 2.03125 7.27604 2.15104 7.26562 2.29688C7.25521 2.44271 7.23958 2.58333 7.21875 2.71875C7.19792 2.82292 7.1875 2.92708 7.1875 3.03125C7.1875 3.125 7.18229 3.22917 7.17188 3.34375C7.15104 3.58333 7.13021 3.83333 7.10938 4.09375C7.09896 4.34375 7.07292 4.58854 7.03125 4.82812C7 5.00521 6.96875 5.17708 6.9375 5.34375C6.90625 5.51042 6.90104 5.67188 6.92188 5.82812C6.99479 5.80729 7.04688 5.77604 7.07812 5.73438C7.10938 5.69271 7.15104 5.66146 7.20312 5.64062C7.32812 5.52604 7.45312 5.41146 7.57812 5.29688C7.70312 5.17188 7.83854 5.05729 7.98438 4.95312C8.03646 4.97396 8.08333 4.98958 8.125 5C8.16667 5 8.21875 4.98958 8.28125 4.96875C8.40625 4.94792 8.5 4.91667 8.5625 4.875C8.625 4.82292 8.66667 4.72396 8.6875 4.57812C8.76042 4.45312 8.85417 4.34896 8.96875 4.26562C9.08333 4.18229 9.1875 4.08333 9.28125 3.96875C9.52083 3.80208 9.76562 3.61979 10.0156 3.42188C10.1302 3.31771 10.2448 3.21354 10.3594 3.10938C10.474 3.00521 10.5938 2.91146 10.7188 2.82812C10.8125 2.74479 10.9115 2.66667 11.0156 2.59375C11.1198 2.51042 11.2188 2.42708 11.3125 2.34375C11.3542 2.3125 11.3854 2.28125 11.4062 2.25C11.4375 2.21875 11.4688 2.1875 11.5 2.15625C11.5208 2.13542 11.5469 2.125 11.5781 2.125C11.6094 2.11458 11.6354 2.09896 11.6562 2.07812C11.6875 2.05729 11.7135 2.03125 11.7344 2C11.7656 1.95833 11.7917 1.92708 11.8125 1.90625C11.9062 1.86458 11.9583 1.83854 11.9688 1.82812C11.9792 1.80729 11.9896 1.79167 12 1.78125C12.0521 1.76042 12.1146 1.75 12.1875 1.75C12.2604 1.73958 12.3229 1.73438 12.375 1.73438C12.4792 1.74479 12.5781 1.75521 12.6719 1.76562C12.776 1.76562 12.875 1.77083 12.9688 1.78125C13.0104 1.78125 13.0417 1.78125 13.0625 1.78125C13.0938 1.77083 13.125 1.76562 13.1562 1.76562C13.2708 1.76562 13.3854 1.77604 13.5 1.79688C13.625 1.80729 13.7552 1.80729 13.8906 1.79688C13.9115 1.79688 13.9583 1.79688 14.0312 1.79688C14.1042 1.79688 14.151 1.80729 14.1719 1.82812C14.2135 1.84896 14.2396 1.88542 14.25 1.9375C14.2604 1.97917 14.2812 2.01562 14.3125 2.04688C14.4375 2.13021 14.5573 2.15104 14.6719 2.10938C14.7969 2.06771 14.9271 2.05208 15.0625 2.0625C15.1458 2.11458 15.1927 2.16667 15.2031 2.21875C15.2135 2.27083 15.1979 2.32292 15.1562 2.375C15.125 2.41667 15.0781 2.46354 15.0156 2.51562C14.9635 2.55729 14.9115 2.59896 14.8594 2.64062C14.8073 2.69271 14.7604 2.73958 14.7188 2.78125C14.6875 2.82292 14.6458 2.86458 14.5938 2.90625C14.4479 3.01042 14.2969 3.11979 14.1406 3.23438C13.9948 3.34896 13.8594 3.46354 13.7344 3.57812C13.6927 3.59896 13.6562 3.63021 13.625 3.67188C13.5938 3.71354 13.5625 3.75 13.5312 3.78125C13.4792 3.8125 13.4323 3.84375 13.3906 3.875C13.3594 3.89583 13.3229 3.91667 13.2812 3.9375C13.1979 4.01042 13.1094 4.08854 13.0156 4.17188C12.9323 4.24479 12.8438 4.3125 12.75 4.375C12.6771 4.42708 12.599 4.47917 12.5156 4.53125C12.4323 4.57292 12.3646 4.63542 12.3125 4.71875C12.0833 4.875 11.8594 5.03646 11.6406 5.20312C11.4323 5.36979 11.224 5.54167 11.0156 5.71875C10.9427 5.70833 10.8802 5.69792 10.8281 5.6875C10.776 5.67708 10.724 5.68229 10.6719 5.70312C10.6198 5.74479 10.6042 5.78646 10.625 5.82812C10.6458 5.86979 10.6458 5.91667 10.625 5.96875C10.6042 6.0625 10.5312 6.14583 10.4062 6.21875C10.2917 6.28125 10.224 6.35938 10.2031 6.45312C10.2552 6.53646 10.3125 6.61979 10.375 6.70312C10.4479 6.77604 10.5156 6.85417 10.5781 6.9375C10.7552 7.17708 10.9271 7.42188 11.0938 7.67188C11.2708 7.91146 11.4531 8.15104 11.6406 8.39062C11.6719 8.44271 11.6979 8.48958 11.7188 8.53125C11.75 8.57292 11.7865 8.60938 11.8281 8.64062C11.8281 8.74479 11.8594 8.82812 11.9219 8.89062C11.9948 8.95312 12.0417 9.03125 12.0625 9.125C12.0729 9.17708 12.0677 9.23438 12.0469 9.29688C12.0365 9.34896 12.0417 9.40625 12.0625 9.46875C12.0938 9.52083 12.125 9.57812 12.1562 9.64062C12.1875 9.69271 12.2292 9.73958 12.2812 9.78125C12.3229 9.80208 12.3594 9.82292 12.3906 9.84375C12.4323 9.86458 12.4688 9.88542 12.5 9.90625C12.5521 9.95833 12.6042 10.026 12.6562 10.1094C12.7083 10.1823 12.7604 10.2448 12.8125 10.2969C12.8646 10.3594 12.9167 10.4375 12.9688 10.5312C13.0312 10.625 13.0885 10.7135 13.1406 10.7969C13.1615 10.8385 13.1875 10.8854 13.2188 10.9375C13.25 10.9896 13.276 11.0417 13.2969 11.0938C13.3385 11.1458 13.375 11.2031 13.4062 11.2656C13.4375 11.3177 13.474 11.3698 13.5156 11.4219C13.5781 11.4844 13.6094 11.5208 13.6094 11.5312C13.6094 11.5417 13.6146 11.5573 13.625 11.5781C13.6458 11.599 13.6719 11.6198 13.7031 11.6406C13.7344 11.6615 13.7604 11.6823 13.7812 11.7031C13.8229 11.7865 13.8594 11.849 13.8906 11.8906C13.9531 11.974 13.9896 12.0417 14 12.0938C14.0521 12.1146 14.0885 12.151 14.1094 12.2031C14.1406 12.2448 14.1719 12.2917 14.2031 12.3438C14.3073 12.4375 14.3698 12.5052 14.3906 12.5469C14.4115 12.5885 14.4323 12.6354 14.4531 12.6875C14.4844 12.7292 14.5104 12.7708 14.5312 12.8125C14.5521 12.8542 14.5781 12.8854 14.6094 12.9062L14.7188 12.9844ZM12.5625 3.125C12.5208 3.16667 12.5 3.22396 12.5 3.29688C12.5 3.36979 12.5208 3.41667 12.5625 3.4375C12.6146 3.47917 12.6667 3.48958 12.7188 3.46875C12.7812 3.44792 12.8333 3.42708 12.875 3.40625C13.0521 3.35417 13.1615 3.27604 13.2031 3.17188C13.2031 3.07812 13.2292 3.01562 13.2812 2.98438C13.3333 2.95312 13.3958 2.92708 13.4688 2.90625C13.5208 2.92708 13.5625 2.92188 13.5938 2.89062C13.625 2.85938 13.6615 2.82292 13.7031 2.78125C13.7552 2.69792 13.7969 2.625 13.8281 2.5625C13.8698 2.5 13.8438 2.4375 13.75 2.375C13.7292 2.39583 13.6927 2.39583 13.6406 2.375C13.599 2.35417 13.5625 2.34896 13.5312 2.35938C13.4479 2.35938 13.3802 2.40104 13.3281 2.48438C13.2865 2.56771 13.2396 2.63542 13.1875 2.6875C13.125 2.73958 13.0573 2.79167 12.9844 2.84375C12.9219 2.89583 12.8646 2.94271 12.8125 2.98438C12.7708 3.01562 12.724 3.04167 12.6719 3.0625C12.6302 3.07292 12.5938 3.09375 12.5625 3.125ZM2.76562 9.25C2.78646 9.1875 2.80729 9.11979 2.82812 9.04688C2.85938 8.97396 2.86979 8.90104 2.85938 8.82812C2.85938 8.75521 2.82812 8.65625 2.76562 8.53125C2.71354 8.39583 2.67188 8.31771 2.64062 8.29688C2.60938 8.43229 2.58333 8.57812 2.5625 8.73438C2.55208 8.88021 2.52083 9.02083 2.46875 9.15625C2.41667 9.19792 2.34896 9.24479 2.26562 9.29688C2.19271 9.33854 2.13542 9.40625 2.09375 9.5C2.08333 9.54167 2.07812 9.57812 2.07812 9.60938C2.08854 9.63021 2.08854 9.66667 2.07812 9.71875C2.05729 9.84375 2.03646 9.97396 2.01562 10.1094C2.00521 10.2344 2.07292 10.2969 2.21875 10.2969C2.32292 10.2135 2.375 10.1198 2.375 10.0156C2.375 9.97396 2.36979 9.9375 2.35938 9.90625C2.34896 9.875 2.34375 9.83854 2.34375 9.79688C2.36458 9.67188 2.42708 9.57812 2.53125 9.51562C2.63542 9.45312 2.71354 9.36458 2.76562 9.25ZM3.5 2.625C3.52083 2.59375 3.53125 2.55729 3.53125 2.51562C3.54167 2.46354 3.55729 2.41146 3.57812 2.35938C3.44271 2.35938 3.32812 2.32812 3.23438 2.26562C3.14062 2.20312 3.03646 2.17708 2.92188 2.1875C2.71354 2.1875 2.60938 2.31771 2.60938 2.57812C2.61979 2.64062 2.61979 2.70312 2.60938 2.76562C2.60938 2.82812 2.61979 2.875 2.64062 2.90625C2.64062 2.9375 2.65625 2.97396 2.6875 3.01562C2.71875 3.04688 2.74479 3.0625 2.76562 3.0625C2.83854 2.89583 2.89583 2.79688 2.9375 2.76562C2.97917 2.72396 3.03646 2.70312 3.10938 2.70312C3.18229 2.70312 3.25521 2.70312 3.32812 2.70312C3.40104 2.70312 3.45833 2.67708 3.5 2.625ZM4.3125 2.57812C4.38542 2.56771 4.44271 2.53646 4.48438 2.48438C4.53646 2.42188 4.55208 2.35417 4.53125 2.28125C4.46875 2.27083 4.38542 2.28125 4.28125 2.3125C4.1875 2.34375 4.14583 2.40104 4.15625 2.48438C4.16667 2.51562 4.1875 2.54167 4.21875 2.5625C4.25 2.57292 4.28125 2.57812 4.3125 2.57812ZM5.96875 11.8438C5.98958 11.8021 5.99479 11.7708 5.98438 11.75C5.98438 11.7188 5.98438 11.6823 5.98438 11.6406C5.98438 11.5365 5.96875 11.4427 5.9375 11.3594C5.91667 11.2656 5.86458 11.2083 5.78125 11.1875C5.75 11.1771 5.71875 11.1875 5.6875 11.2188C5.66667 11.2396 5.64583 11.2708 5.625 11.3125C5.60417 11.3542 5.58333 11.3958 5.5625 11.4375C5.54167 11.4792 5.52604 11.5104 5.51562 11.5312C5.46354 11.6146 5.41667 11.6771 5.375 11.7188C5.33333 11.75 5.30729 11.8125 5.29688 11.9062C5.31771 11.9792 5.38542 12.0521 5.5 12.125C5.61458 12.1875 5.71354 12.2083 5.79688 12.1875C5.82812 12.1667 5.85938 12.1198 5.89062 12.0469C5.92188 11.974 5.94792 11.9062 5.96875 11.8438ZM9.21875 7.60938C9.25 7.54688 9.25 7.48438 9.21875 7.42188C9.1875 7.35938 9.14583 7.30208 9.09375 7.25C9.04167 7.19792 8.98438 7.15104 8.92188 7.10938C8.86979 7.05729 8.82812 7.01562 8.79688 6.98438C8.76562 6.96354 8.73958 6.94271 8.71875 6.92188C8.69792 6.89062 8.67708 6.86979 8.65625 6.85938C8.55208 6.81771 8.43229 6.81771 8.29688 6.85938C8.17188 6.90104 8.09375 6.97396 8.0625 7.07812C8.17708 7.05729 8.26562 7.05729 8.32812 7.07812C8.39062 7.08854 8.45833 7.11979 8.53125 7.17188C8.55208 7.19271 8.57292 7.21354 8.59375 7.23438C8.625 7.24479 8.65104 7.26042 8.67188 7.28125C8.72396 7.33333 8.77604 7.41146 8.82812 7.51562C8.88021 7.61979 8.94792 7.67708 9.03125 7.6875C9.05208 7.69792 9.08333 7.69271 9.125 7.67188C9.16667 7.65104 9.19792 7.63021 9.21875 7.60938ZM11.1562 11.375C11.2083 11.4479 11.276 11.4948 11.3594 11.5156C11.4427 11.526 11.5 11.4844 11.5312 11.3906C11.4896 11.2031 11.4479 11.0677 11.4062 10.9844C11.3646 10.8906 11.3021 10.8073 11.2188 10.7344C11.1562 10.651 11.0625 10.625 10.9375 10.6562C10.8958 10.7708 10.901 10.8698 10.9531 10.9531C11.0052 11.0365 11.0573 11.1198 11.1094 11.2031C11.1198 11.224 11.125 11.2552 11.125 11.2969C11.1354 11.3281 11.1458 11.3542 11.1562 11.375ZM12.4062 12.6562C12.3854 12.5625 12.349 12.474 12.2969 12.3906C12.2448 12.2969 12.1927 12.224 12.1406 12.1719C12.0677 12.1198 11.9896 12.099 11.9062 12.1094C11.8333 12.1198 11.8073 12.1823 11.8281 12.2969C11.8906 12.3802 11.9583 12.4635 12.0312 12.5469C12.1146 12.6198 12.2396 12.6562 12.4062 12.6562ZM1.1875 8.8125C1.07292 8.59375 1.04167 8.38542 1.09375 8.1875C1.14583 7.98958 1.1875 7.78646 1.21875 7.57812C1.25 7.39062 1.25521 7.20312 1.23438 7.01562C1.22396 6.82812 1.22917 6.63542 1.25 6.4375C1.27083 6.375 1.28646 6.3125 1.29688 6.25C1.31771 6.1875 1.33854 6.11979 1.35938 6.04688C1.45312 6.09896 1.50521 6.14583 1.51562 6.1875C1.53646 6.21875 1.55208 6.25 1.5625 6.28125C1.57292 6.36458 1.56771 6.44792 1.54688 6.53125C1.53646 6.60417 1.53646 6.68229 1.54688 6.76562C1.59896 7.04688 1.60938 7.3125 1.57812 7.5625C1.55729 7.8125 1.50521 8.05729 1.42188 8.29688C1.29688 8.39062 1.22917 8.47917 1.21875 8.5625C1.21875 8.64583 1.20833 8.72917 1.1875 8.8125ZM8.53125 9.125C8.54167 9.16667 8.54167 9.20833 8.53125 9.25C8.52083 9.28125 8.52604 9.32292 8.54688 9.375C8.56771 9.45833 8.60938 9.53125 8.67188 9.59375C8.73438 9.65625 8.75 9.72917 8.71875 9.8125C8.66667 9.83333 8.625 9.82812 8.59375 9.79688C8.5625 9.76562 8.53125 9.72917 8.5 9.6875C8.46875 9.63542 8.4375 9.58333 8.40625 9.53125C8.38542 9.47917 8.35417 9.44271 8.3125 9.42188C8.30208 9.36979 8.28125 9.32812 8.25 9.29688C8.22917 9.25521 8.21875 9.20833 8.21875 9.15625C8.13542 9.13542 8.06771 9.10417 8.01562 9.0625C7.96354 9.01042 7.90625 8.96354 7.84375 8.92188C7.72917 8.94271 7.625 8.97917 7.53125 9.03125C7.44792 9.07292 7.34896 9.10417 7.23438 9.125C7.20312 9.08333 7.19271 9.04688 7.20312 9.01562C7.22396 8.97396 7.25521 8.9375 7.29688 8.90625C7.33854 8.875 7.38542 8.84896 7.4375 8.82812C7.48958 8.79688 7.53646 8.77083 7.57812 8.75C7.60938 8.72917 7.63542 8.70833 7.65625 8.6875C7.6875 8.65625 7.71354 8.63021 7.73438 8.60938C7.78646 8.57812 7.83333 8.55729 7.875 8.54688C7.91667 8.52604 7.94792 8.5 7.96875 8.46875C8.09375 8.5 8.19271 8.57812 8.26562 8.70312C8.31771 8.76562 8.36979 8.83854 8.42188 8.92188C8.47396 9.00521 8.51042 9.07292 8.53125 9.125ZM12.625 13.7344C12.6875 13.7344 12.7448 13.7344 12.7969 13.7344C12.849 13.7344 12.8698 13.7604 12.8594 13.8125C12.8594 13.8333 12.8385 13.8542 12.7969 13.875C12.7552 13.9062 12.724 13.9323 12.7031 13.9531C12.6406 13.9948 12.5885 14.0156 12.5469 14.0156C12.5052 14.0156 12.4427 14.0156 12.3594 14.0156C12.3073 14.0156 12.2604 14.0208 12.2188 14.0312C12.1875 14.0417 12.1562 14.0469 12.125 14.0469C11.9375 14.0573 11.7708 14.0312 11.625 13.9688C11.4792 13.9062 11.3438 13.849 11.2188 13.7969C11.1875 13.7448 11.151 13.6875 11.1094 13.625C11.0781 13.5625 11.0365 13.5052 10.9844 13.4531C10.9635 13.4323 10.9375 13.4115 10.9062 13.3906C10.8854 13.3802 10.8646 13.3646 10.8438 13.3438C10.8125 13.2917 10.7917 13.2188 10.7812 13.125C10.7708 13.0312 10.7812 12.9583 10.8125 12.9062C10.9167 12.9375 10.9948 12.9792 11.0469 13.0312C11.099 13.0938 11.1458 13.1615 11.1875 13.2344C11.2396 13.276 11.2865 13.3177 11.3281 13.3594C11.3698 13.401 11.4167 13.4427 11.4688 13.4844C11.5104 13.5156 11.5573 13.5521 11.6094 13.5938C11.6615 13.6354 11.724 13.6615 11.7969 13.6719C11.8802 13.6927 11.9688 13.7031 12.0625 13.7031C12.1562 13.7031 12.2604 13.7031 12.375 13.7031C12.4375 13.724 12.5208 13.7344 12.625 13.7344ZM3.07812 13.0938C3.14062 13.1146 3.20312 13.1406 3.26562 13.1719C3.32812 13.2031 3.36458 13.2604 3.375 13.3438C3.30208 13.3854 3.22396 13.401 3.14062 13.3906C3.05729 13.3802 2.97396 13.3698 2.89062 13.3594C2.80729 13.349 2.72396 13.349 2.64062 13.3594C2.55729 13.3698 2.47396 13.3698 2.39062 13.3594C2.34896 13.349 2.30729 13.3333 2.26562 13.3125C2.23438 13.2917 2.20312 13.2812 2.17188 13.2812C2.07812 13.2604 1.97396 13.2604 1.85938 13.2812C1.75521 13.3021 1.65104 13.3021 1.54688 13.2812C1.45312 13.2604 1.39062 13.2552 1.35938 13.2656C1.33854 13.2865 1.31771 13.2917 1.29688 13.2812C1.22396 13.2812 1.15625 13.2552 1.09375 13.2031C1.03125 13.1615 0.96875 13.1302 0.90625 13.1094C0.864583 13.0052 0.828125 12.8854 0.796875 12.75C0.776042 12.6042 0.807292 12.4792 0.890625 12.375C1.01562 12.4271 1.07812 12.4844 1.07812 12.5469C1.08854 12.6094 1.11979 12.6823 1.17188 12.7656C1.23438 12.8594 1.34375 12.9115 1.5 12.9219C1.65625 12.9323 1.81771 12.9635 1.98438 13.0156C2.06771 13.0365 2.15625 13.0573 2.25 13.0781C2.35417 13.099 2.44792 13.1094 2.53125 13.1094C2.57292 13.1094 2.60938 13.1042 2.64062 13.0938C2.68229 13.0938 2.71875 13.0938 2.75 13.0938C2.8125 13.0833 2.86458 13.0833 2.90625 13.0938C2.95833 13.1146 3.01562 13.1146 3.07812 13.0938ZM4.75 12.9688C4.82292 12.9896 4.86979 13.0365 4.89062 13.1094C4.92188 13.1927 4.93229 13.2917 4.92188 13.4062C4.86979 13.4583 4.80208 13.4844 4.71875 13.4844C4.63542 13.4844 4.54688 13.4792 4.45312 13.4688C4.35938 13.4583 4.26562 13.4479 4.17188 13.4375C4.07812 13.4271 3.98958 13.4271 3.90625 13.4375C3.875 13.4167 3.85417 13.3802 3.84375 13.3281C3.83333 13.276 3.84375 13.2292 3.875 13.1875C3.9375 13.1562 3.98958 13.1458 4.03125 13.1562C4.08333 13.1771 4.15104 13.1771 4.23438 13.1562C4.31771 13.1354 4.39583 13.0885 4.46875 13.0156C4.55208 12.9427 4.64583 12.9271 4.75 12.9688ZM13.375 13.8281C13.4583 13.8073 13.5312 13.8125 13.5938 13.8438C13.6562 13.8854 13.6875 13.9323 13.6875 13.9844C13.6875 14.0469 13.6562 14.099 13.5938 14.1406C13.5417 14.1823 13.4896 14.1979 13.4375 14.1875C13.3542 14.1042 13.2969 14.0521 13.2656 14.0312C13.2344 14.0208 13.2292 13.9844 13.25 13.9219L13.375 13.8281ZM26.8906 10.9062C26.9427 11.0104 26.9635 11.1094 26.9531 11.2031C26.9531 11.2969 26.9062 11.3802 26.8125 11.4531C26.7917 11.4635 26.75 11.4844 26.6875 11.5156C26.6354 11.5469 26.599 11.5625 26.5781 11.5625C26.4844 11.5521 26.4219 11.5573 26.3906 11.5781C26.3698 11.5885 26.3438 11.599 26.3125 11.6094C26.2604 11.6302 26.2031 11.6458 26.1406 11.6562C26.0781 11.6667 26.0156 11.6719 25.9531 11.6719C25.849 11.6823 25.7396 11.6771 25.625 11.6562C25.5104 11.6354 25.401 11.6354 25.2969 11.6562C25.1927 11.6771 25.099 11.7188 25.0156 11.7812C24.9427 11.8438 24.8802 11.901 24.8281 11.9531C24.724 11.9844 24.599 12.026 24.4531 12.0781C24.3177 12.1198 24.1927 12.151 24.0781 12.1719C23.9844 12.1927 23.8802 12.1823 23.7656 12.1406C23.651 12.0885 23.5729 12.026 23.5312 11.9531C23.5104 11.9219 23.4896 11.8854 23.4688 11.8438C23.4583 11.7917 23.4479 11.7448 23.4375 11.7031C23.4167 11.5885 23.3906 11.5208 23.3594 11.5C23.3281 11.4688 23.3021 11.4375 23.2812 11.4062C23.2604 11.3854 23.25 11.3594 23.25 11.3281C23.25 11.2865 23.2396 11.25 23.2188 11.2188C23.1979 11.1875 23.1771 11.1615 23.1562 11.1406C23.1354 11.1094 23.1198 11.0729 23.1094 11.0312C23.0885 11.0104 23.0781 10.9844 23.0781 10.9531C23.0781 10.9219 23.0677 10.8906 23.0469 10.8594C23.026 10.8281 23.0052 10.7969 22.9844 10.7656C22.9635 10.724 22.9531 10.6771 22.9531 10.625C22.8906 10.5417 22.8385 10.4479 22.7969 10.3438C22.7656 10.2396 22.7083 10.1615 22.625 10.1094C22.5521 10.1198 22.4844 10.125 22.4219 10.125C22.3698 10.1146 22.3073 10.1094 22.2344 10.1094C22.151 10.1198 22.0677 10.1354 21.9844 10.1562C21.9115 10.1667 21.8333 10.1823 21.75 10.2031C21.7083 10.2031 21.6667 10.2031 21.625 10.2031C21.5938 10.1927 21.5521 10.1875 21.5 10.1875C21.4479 10.1771 21.3958 10.1771 21.3438 10.1875C21.3021 10.1875 21.2604 10.1823 21.2188 10.1719C21.0833 10.1302 20.9948 10.1146 20.9531 10.125C20.9115 10.1354 20.875 10.1458 20.8438 10.1562C20.8125 10.1667 20.7812 10.1823 20.75 10.2031C20.7292 10.224 20.7031 10.2396 20.6719 10.25C20.6198 10.2708 20.5573 10.276 20.4844 10.2656C20.4219 10.2552 20.3594 10.25 20.2969 10.25C20.224 10.25 20.151 10.2552 20.0781 10.2656C20.0156 10.276 19.9427 10.2865 19.8594 10.2969C19.8073 10.3073 19.75 10.3125 19.6875 10.3125C19.625 10.3021 19.5677 10.3021 19.5156 10.3125C19.349 10.3333 19.1719 10.349 18.9844 10.3594C18.7969 10.3698 18.6146 10.3854 18.4375 10.4062C18.375 10.4688 18.3333 10.5417 18.3125 10.625C18.2917 10.7083 18.2604 10.7917 18.2188 10.875C18.1979 10.9062 18.1771 10.9375 18.1562 10.9688C18.1354 10.9896 18.1198 11.0208 18.1094 11.0625C18.0885 11.1042 18.0833 11.151 18.0938 11.2031C18.1146 11.2448 18.1198 11.2917 18.1094 11.3438C18.1094 11.3854 18.0833 11.4635 18.0312 11.5781C17.9792 11.6927 17.9375 11.7708 17.9062 11.8125C17.8646 11.8542 17.7969 11.8958 17.7031 11.9375C17.6198 11.9688 17.5365 11.9792 17.4531 11.9688C17.2969 11.9479 17.1719 11.9635 17.0781 12.0156C16.9844 12.0677 16.8802 12.1042 16.7656 12.125C16.6927 12.125 16.6302 12.125 16.5781 12.125C16.526 12.1146 16.4583 12.1042 16.375 12.0938C16.3333 12.0521 16.2865 12.0208 16.2344 12C16.1927 11.9792 16.1458 11.9583 16.0938 11.9375C16.0833 11.9062 16.0625 11.875 16.0312 11.8438C16 11.8125 15.9844 11.7812 15.9844 11.75C15.9844 11.6771 16.0052 11.6042 16.0469 11.5312C16.099 11.4479 16.1354 11.3698 16.1562 11.2969C16.1771 11.2552 16.1875 11.2188 16.1875 11.1875C16.1875 11.1458 16.1979 11.1042 16.2188 11.0625C16.2604 10.9583 16.3073 10.849 16.3594 10.7344C16.4219 10.6198 16.4635 10.5156 16.4844 10.4219C16.3698 10.4219 16.2604 10.4323 16.1562 10.4531C16.0521 10.474 15.9479 10.474 15.8438 10.4531C15.7917 10.4323 15.724 10.4167 15.6406 10.4062C15.5677 10.3854 15.5208 10.3542 15.5 10.3125C15.4792 10.2708 15.4479 10.2135 15.4062 10.1406C15.375 10.0573 15.3594 9.97917 15.3594 9.90625C15.3698 9.84375 15.3958 9.79167 15.4375 9.75C15.4792 9.69792 15.5 9.64062 15.5 9.57812C15.4896 9.52604 15.4635 9.47917 15.4219 9.4375C15.3906 9.39583 15.3698 9.33854 15.3594 9.26562C15.349 9.18229 15.3698 9.10938 15.4219 9.04688C15.474 8.98438 15.5104 8.92708 15.5312 8.875C15.6458 8.8125 15.7708 8.77083 15.9062 8.75C16.0521 8.71875 16.2031 8.69792 16.3594 8.6875C16.5156 8.67708 16.6719 8.67188 16.8281 8.67188C16.9844 8.67188 17.1302 8.66146 17.2656 8.64062C17.3385 8.50521 17.401 8.36458 17.4531 8.21875C17.5052 8.07292 17.5625 7.92708 17.625 7.78125C17.7292 7.73958 17.8125 7.6875 17.875 7.625C17.9375 7.5625 17.9948 7.48958 18.0469 7.40625C18.0469 7.33333 18.0521 7.26562 18.0625 7.20312C18.0833 7.14062 18.0885 7.07812 18.0781 7.01562C18.0469 6.84896 18.0521 6.72396 18.0938 6.64062C18.1354 6.55729 18.1719 6.48438 18.2031 6.42188C18.224 6.36979 18.2396 6.31771 18.25 6.26562C18.2708 6.21354 18.2917 6.16146 18.3125 6.10938C18.375 5.98438 18.4271 5.88021 18.4688 5.79688C18.5104 5.70312 18.5885 5.63021 18.7031 5.57812C18.7552 5.49479 18.7969 5.40625 18.8281 5.3125C18.8698 5.21875 18.8802 5.11458 18.8594 5C18.8177 4.88542 18.8073 4.80729 18.8281 4.76562C18.849 4.72396 18.8698 4.67708 18.8906 4.625C18.9115 4.58333 18.9219 4.54167 18.9219 4.5C18.9323 4.44792 18.9427 4.40625 18.9531 4.375C18.974 4.35417 18.9896 4.32812 19 4.29688C19.0104 4.26562 19.026 4.23958 19.0469 4.21875C19.0885 4.0625 19.125 3.95312 19.1562 3.89062C19.1979 3.81771 19.2292 3.74479 19.25 3.67188C19.1667 3.55729 19.0781 3.42188 18.9844 3.26562C18.8906 3.10938 18.8698 2.94271 18.9219 2.76562C19.0781 2.68229 19.2344 2.60938 19.3906 2.54688C19.5573 2.48438 19.7188 2.41146 19.875 2.32812C19.9271 2.34896 19.9635 2.34896 19.9844 2.32812C20.0156 2.29688 20.0469 2.28125 20.0781 2.28125C20.1094 2.28125 20.1354 2.29167 20.1562 2.3125C20.1875 2.33333 20.2135 2.34896 20.2344 2.35938C20.4115 2.35938 20.5312 2.35938 20.5938 2.35938C20.6562 2.34896 20.7135 2.30729 20.7656 2.23438C20.7969 2.20312 20.8229 2.16667 20.8438 2.125C20.8646 2.07292 20.8958 2.02083 20.9375 1.96875C20.9583 1.9375 20.9896 1.91667 21.0312 1.90625C21.0833 1.88542 21.1354 1.86458 21.1875 1.84375C21.2396 1.82292 21.2917 1.80208 21.3438 1.78125C21.3958 1.75 21.4635 1.73958 21.5469 1.75C21.5885 1.69792 21.6302 1.69271 21.6719 1.73438C21.7135 1.76562 21.75 1.78646 21.7812 1.79688C21.8125 1.80729 21.8385 1.8125 21.8594 1.8125C21.8906 1.80208 21.9219 1.80208 21.9531 1.8125C22.0573 1.83333 22.1354 1.89062 22.1875 1.98438C22.2396 2.07812 22.3073 2.14583 22.3906 2.1875C22.5052 2.39583 22.6198 2.59896 22.7344 2.79688C22.8594 2.98438 22.9792 3.1875 23.0938 3.40625C23.1458 3.51042 23.2031 3.60938 23.2656 3.70312C23.3281 3.78646 23.3906 3.88021 23.4531 3.98438C23.4844 4.04688 23.5104 4.10938 23.5312 4.17188C23.5521 4.23438 23.5833 4.29167 23.625 4.34375C23.6979 4.44792 23.7656 4.55208 23.8281 4.65625C23.8906 4.76042 23.9531 4.86979 24.0156 4.98438C24.0677 5.06771 24.1146 5.15104 24.1562 5.23438C24.2083 5.31771 24.2292 5.42188 24.2188 5.54688C24.2188 5.57812 24.2083 5.60938 24.1875 5.64062C24.1771 5.66146 24.1771 5.69271 24.1875 5.73438C24.1979 5.83854 24.2396 5.92708 24.3125 6C24.3958 6.0625 24.4688 6.13542 24.5312 6.21875C24.5729 6.27083 24.6042 6.33333 24.625 6.40625C24.6562 6.46875 24.6927 6.53125 24.7344 6.59375C24.8177 6.75 24.9062 6.91667 25 7.09375C25.1042 7.26042 25.1979 7.41667 25.2812 7.5625C25.2604 7.61458 25.2448 7.67188 25.2344 7.73438C25.2344 7.79688 25.2552 7.84375 25.2969 7.875C25.3594 7.86458 25.4062 7.875 25.4375 7.90625C25.4688 7.92708 25.4896 7.96354 25.5 8.01562C25.5208 8.05729 25.5365 8.10417 25.5469 8.15625C25.5677 8.20833 25.5885 8.25 25.6094 8.28125C25.5573 8.36458 25.5312 8.45833 25.5312 8.5625C25.5417 8.65625 25.6198 8.70312 25.7656 8.70312C25.8802 8.95312 26.0052 9.19792 26.1406 9.4375C26.276 9.67708 26.4115 9.92188 26.5469 10.1719C26.6094 10.2865 26.6615 10.4115 26.7031 10.5469C26.7448 10.6823 26.8073 10.8021 26.8906 10.9062ZM16.6719 11.5469C16.7552 11.526 16.8125 11.4688 16.8438 11.375C16.875 11.2812 16.875 11.1927 16.8438 11.1094C16.7396 11.1094 16.6719 11.1615 16.6406 11.2656C16.6198 11.3698 16.6302 11.4635 16.6719 11.5469ZM17.25 10.0312C17.2396 9.95833 17.2031 9.90625 17.1406 9.875C17.0885 9.84375 17.026 9.82812 16.9531 9.82812C16.8906 9.82812 16.8333 9.84896 16.7812 9.89062C16.7292 9.93229 16.6979 9.98958 16.6875 10.0625C16.7917 10.0625 16.8646 10.0938 16.9062 10.1562C16.9583 10.2083 17.0104 10.2708 17.0625 10.3438C17.0625 10.3854 17.0469 10.4375 17.0156 10.5C16.9948 10.5521 17.0104 10.599 17.0625 10.6406C17.1042 10.5885 17.1406 10.5208 17.1719 10.4375C17.2135 10.3542 17.2396 10.2708 17.25 10.1875V10.0312ZM19.7344 2.98438C19.6302 3.03646 19.5833 3.125 19.5938 3.25C19.6042 3.36458 19.6562 3.45833 19.75 3.53125C19.8958 3.47917 19.974 3.41146 19.9844 3.32812C20.0052 3.23438 20.0208 3.13542 20.0312 3.03125C20.0104 2.96875 19.9688 2.9375 19.9062 2.9375C19.8438 2.9375 19.7865 2.95312 19.7344 2.98438ZM21.0156 8.4375C21.1094 8.39583 21.2083 8.38021 21.3125 8.39062C21.4167 8.39062 21.526 8.38542 21.6406 8.375C21.5885 8.22917 21.526 8.10938 21.4531 8.01562C21.3802 7.92188 21.3333 7.80729 21.3125 7.67188C21.2917 7.61979 21.2917 7.56771 21.3125 7.51562C21.3333 7.45312 21.3385 7.38542 21.3281 7.3125C21.3177 7.26042 21.276 7.19271 21.2031 7.10938C21.1302 7.01562 21.0677 6.95833 21.0156 6.9375C20.9115 6.89583 20.8438 6.84375 20.8125 6.78125C20.7812 6.70833 20.7552 6.64583 20.7344 6.59375C20.6615 6.44792 20.5885 6.30208 20.5156 6.15625C20.4531 6 20.3802 5.86458 20.2969 5.75C20.1823 6.02083 20.0625 6.29167 19.9375 6.5625C19.8229 6.83333 19.7135 7.11458 19.6094 7.40625C19.5885 7.4375 19.5521 7.46354 19.5 7.48438C19.4479 7.49479 19.4115 7.52604 19.3906 7.57812C19.3698 7.60938 19.3594 7.64062 19.3594 7.67188C19.3698 7.70312 19.3698 7.73438 19.3594 7.76562C19.3385 7.88021 19.2969 8 19.2344 8.125C19.1823 8.25 19.1458 8.38021 19.125 8.51562C19.25 8.51562 19.3906 8.50521 19.5469 8.48438C19.7135 8.45312 19.8698 8.4375 20.0156 8.4375C20.0365 8.46875 20.0625 8.48438 20.0938 8.48438C20.1354 8.48438 20.1771 8.49479 20.2188 8.51562C20.2708 8.57812 20.3281 8.625 20.3906 8.65625C20.4635 8.67708 20.5104 8.69271 20.5312 8.70312C20.6667 8.73438 20.7604 8.70833 20.8125 8.625C20.8646 8.54167 20.9323 8.47917 21.0156 8.4375ZM23.375 9.73438C23.4583 9.75521 23.5104 9.73438 23.5312 9.67188C23.5625 9.60938 23.5677 9.54167 23.5469 9.46875C23.4844 9.44792 23.4375 9.40625 23.4062 9.34375C23.375 9.28125 23.3125 9.26042 23.2188 9.28125C23.2396 9.36458 23.2552 9.45312 23.2656 9.54688C23.2865 9.63021 23.3229 9.69271 23.375 9.73438ZM24.8906 10.9688C24.8906 10.9167 24.8854 10.8646 24.875 10.8125C24.875 10.7604 24.8542 10.7188 24.8125 10.6875C24.75 10.7083 24.6875 10.7396 24.625 10.7812C24.5729 10.8125 24.5052 10.8333 24.4219 10.8438C24.3594 10.7708 24.2917 10.7083 24.2188 10.6562C24.1458 10.6042 24.0938 10.5312 24.0625 10.4375C24 10.3958 23.9427 10.349 23.8906 10.2969C23.849 10.2448 23.8021 10.1927 23.75 10.1406C23.7083 10.1719 23.6875 10.2135 23.6875 10.2656C23.6875 10.3073 23.6771 10.349 23.6562 10.3906C23.6875 10.4635 23.7292 10.5312 23.7812 10.5938C23.8021 10.6458 23.8229 10.7031 23.8438 10.7656C23.875 10.8281 23.901 10.8854 23.9219 10.9375C23.9427 11.0312 23.9688 11.1198 24 11.2031C24.0312 11.276 24.0885 11.3281 24.1719 11.3594C24.349 11.2344 24.5 11.1615 24.625 11.1406C24.75 11.1198 24.8385 11.0625 24.8906 10.9688ZM17.9375 3.21875C17.8646 3.20833 17.8229 3.16146 17.8125 3.07812C17.8125 2.99479 17.8021 2.91667 17.7812 2.84375C17.8021 2.78125 17.849 2.75521 17.9219 2.76562C17.9948 2.76562 18.0573 2.77604 18.1094 2.79688C18.1719 2.96354 18.1771 3.08333 18.125 3.15625C18.0833 3.21875 18.0208 3.23958 17.9375 3.21875ZM18.3906 3.9375C18.3906 3.89583 18.375 3.85417 18.3438 3.8125C18.3229 3.76042 18.2969 3.71875 18.2656 3.6875C18.2344 3.64583 18.2083 3.60417 18.1875 3.5625C18.1667 3.52083 18.1615 3.47396 18.1719 3.42188C18.1823 3.39062 18.2083 3.34896 18.25 3.29688C18.2917 3.24479 18.3333 3.21875 18.375 3.21875C18.4167 3.20833 18.4583 3.22396 18.5 3.26562C18.5417 3.29688 18.5781 3.34375 18.6094 3.40625C18.6406 3.45833 18.6667 3.51042 18.6875 3.5625C18.7188 3.61458 18.7448 3.65625 18.7656 3.6875C18.7448 3.71875 18.7448 3.76042 18.7656 3.8125C18.7969 3.85417 18.8021 3.90104 18.7812 3.95312C18.7708 3.98438 18.75 4.01562 18.7188 4.04688C18.6979 4.07812 18.6771 4.10938 18.6562 4.14062C18.6042 4.22396 18.5625 4.31771 18.5312 4.42188C18.5104 4.51562 18.474 4.61458 18.4219 4.71875C18.3698 4.79167 18.3229 4.86979 18.2812 4.95312C18.2396 5.02604 18.1719 5.02604 18.0781 4.95312C18.0469 4.88021 18.0521 4.81771 18.0938 4.76562C18.1458 4.70312 18.1823 4.63021 18.2031 4.54688C18.2552 4.38021 18.3021 4.26042 18.3438 4.1875C18.3854 4.10417 18.401 4.02083 18.3906 3.9375ZM18.0156 4.39062C17.9635 4.43229 17.9167 4.4375 17.875 4.40625C17.8438 4.36458 17.8281 4.3125 17.8281 4.25C17.8281 4.22917 17.8333 4.20312 17.8438 4.17188C17.8646 4.13021 17.875 4.08854 17.875 4.04688C17.8854 3.99479 17.8854 3.94792 17.875 3.90625C17.875 3.85417 17.8906 3.82292 17.9219 3.8125C18.099 3.95833 18.1615 4.07292 18.1094 4.15625C18.0677 4.22917 18.0365 4.30729 18.0156 4.39062ZM18.0469 5.54688C17.9948 5.61979 17.9219 5.63542 17.8281 5.59375C17.7865 5.51042 17.8021 5.41667 17.875 5.3125C17.9583 5.19792 18.0365 5.15104 18.1094 5.17188C18.1615 5.25521 18.1771 5.30208 18.1562 5.3125C18.1458 5.32292 18.1302 5.34375 18.1094 5.375C18.099 5.39583 18.0885 5.42708 18.0781 5.46875C18.0781 5.5 18.0677 5.52604 18.0469 5.54688ZM19.8281 7.25C19.9115 7.1875 19.9635 7.19792 19.9844 7.28125C20.0156 7.36458 20.0156 7.44271 19.9844 7.51562C19.9635 7.56771 19.9271 7.64062 19.875 7.73438C19.8333 7.81771 19.8177 7.88542 19.8281 7.9375C19.8385 7.98958 19.8594 8.02604 19.8906 8.04688C19.9219 8.05729 19.9531 8.08333 19.9844 8.125C19.9531 8.19792 19.875 8.23438 19.75 8.23438C19.6354 8.23438 19.5417 8.23958 19.4688 8.25C19.4688 8.19792 19.4688 8.15625 19.4688 8.125C19.4792 8.08333 19.4896 8.03646 19.5 7.98438C19.5208 7.93229 19.5469 7.89062 19.5781 7.85938C19.6094 7.81771 19.6354 7.77083 19.6562 7.71875C19.7188 7.59375 19.75 7.51042 19.75 7.46875C19.7708 7.42708 19.7812 7.38542 19.7812 7.34375C19.7917 7.30208 19.8073 7.27083 19.8281 7.25ZM20.2188 8.26562C20.1667 8.22396 20.1458 8.1875 20.1562 8.15625C20.1771 8.11458 20.2083 8.08333 20.25 8.0625C20.2917 8.04167 20.3385 8.03646 20.3906 8.04688C20.4427 8.05729 20.4844 8.08333 20.5156 8.125C20.5052 8.17708 20.474 8.21875 20.4219 8.25C20.3698 8.28125 20.3021 8.28646 20.2188 8.26562ZM18.4375 11.5312C18.4583 11.6042 18.4531 11.6719 18.4219 11.7344C18.3906 11.7865 18.3646 11.849 18.3438 11.9219C18.3333 11.9844 18.3281 12.0365 18.3281 12.0781C18.3281 12.1094 18.3177 12.151 18.2969 12.2031C18.224 12.2865 18.1823 12.3438 18.1719 12.375C18.1719 12.4062 18.1615 12.4323 18.1406 12.4531C18.0885 12.4948 18.0104 12.5208 17.9062 12.5312C17.8021 12.5312 17.7031 12.5417 17.6094 12.5625C17.5781 12.5625 17.5469 12.5677 17.5156 12.5781C17.4844 12.5885 17.4583 12.599 17.4375 12.6094C17.3854 12.6094 17.3281 12.6094 17.2656 12.6094C17.2135 12.6094 17.1667 12.6146 17.125 12.625C17.1042 12.6354 17.0729 12.651 17.0312 12.6719C17 12.6927 16.974 12.7083 16.9531 12.7188C16.901 12.7292 16.849 12.724 16.7969 12.7031C16.7552 12.6719 16.7135 12.651 16.6719 12.6406C16.6719 12.599 16.6771 12.5677 16.6875 12.5469C16.6979 12.526 16.7031 12.5 16.7031 12.4688C16.7552 12.4271 16.8021 12.4115 16.8438 12.4219C16.8958 12.4323 16.9531 12.4323 17.0156 12.4219C17.0573 12.4219 17.0938 12.4167 17.125 12.4062C17.1667 12.3854 17.2031 12.3698 17.2344 12.3594C17.3698 12.3281 17.5156 12.3177 17.6719 12.3281C17.8281 12.3281 17.9479 12.2969 18.0312 12.2344C18.0833 12.1927 18.1302 12.1094 18.1719 11.9844C18.2031 11.8698 18.224 11.8125 18.2344 11.8125C18.2552 11.8021 18.2656 11.7865 18.2656 11.7656C18.2865 11.724 18.2969 11.6823 18.2969 11.6406C18.3073 11.599 18.3333 11.5625 18.375 11.5312H18.4375ZM24.0938 12.5156C24.1562 12.4948 24.2188 12.474 24.2812 12.4531C24.3438 12.4219 24.4115 12.4167 24.4844 12.4375C24.4635 12.5208 24.4062 12.5833 24.3125 12.625C24.2188 12.6667 24.1302 12.7135 24.0469 12.7656C23.9635 12.8073 23.8802 12.8542 23.7969 12.9062C23.724 12.9479 23.6354 12.9792 23.5312 13C23.4792 13.0104 23.4271 13.0156 23.375 13.0156C23.3229 13.0156 23.2812 13.0052 23.25 12.9844C23.2292 12.9427 23.2188 12.9062 23.2188 12.875C23.2292 12.8438 23.2448 12.8125 23.2656 12.7812C23.2552 12.7708 23.2396 12.7135 23.2188 12.6094C23.1875 12.5573 23.1302 12.5208 23.0469 12.5C22.9635 12.4688 22.8958 12.4271 22.8438 12.375C22.7812 12.3125 22.7448 12.2344 22.7344 12.1406C22.724 12.0365 22.7292 11.9271 22.75 11.8125C22.8021 11.7708 22.8438 11.776 22.875 11.8281C22.9167 11.8802 22.9479 11.9219 22.9688 11.9531C23.0729 12.0885 23.1562 12.2083 23.2188 12.3125C23.2708 12.3854 23.3333 12.4531 23.4062 12.5156C23.4792 12.5677 23.5677 12.599 23.6719 12.6094C23.724 12.6094 23.776 12.599 23.8281 12.5781C23.8802 12.5573 23.9323 12.5417 23.9844 12.5312L24.0938 12.5156ZM16.0938 12.2812C16.2188 12.2604 16.3333 12.2865 16.4375 12.3594C16.4583 12.4531 16.4531 12.526 16.4219 12.5781C16.401 12.6302 16.3594 12.6719 16.2969 12.7031C16.2448 12.724 16.1875 12.7292 16.125 12.7188C16.0729 12.7083 16.026 12.6771 15.9844 12.625C15.9844 12.4583 16.0208 12.3438 16.0938 12.2812ZM25.3906 12.1562C25.526 12.1771 25.6615 12.1615 25.7969 12.1094C25.9323 12.0573 26.0677 12.0365 26.2031 12.0469C26.2031 12.151 26.151 12.2188 26.0469 12.25C25.9427 12.2812 25.8438 12.3073 25.75 12.3281C25.6875 12.349 25.6354 12.3646 25.5938 12.375C25.5625 12.3854 25.5208 12.401 25.4688 12.4219C25.3542 12.4427 25.2448 12.4792 25.1406 12.5312C25.0469 12.5833 24.9427 12.5885 24.8281 12.5469C24.8073 12.5156 24.7969 12.4792 24.7969 12.4375C24.7969 12.3958 24.7917 12.3542 24.7812 12.3125C24.8333 12.2604 24.8958 12.2135 24.9688 12.1719C25.0417 12.1198 25.1198 12.0677 25.2031 12.0156C25.2552 12.0156 25.2917 12.0312 25.3125 12.0625C25.3438 12.0833 25.3698 12.1146 25.3906 12.1562ZM31.3281 1.96875C31.3073 2.01042 31.2708 2.04688 31.2188 2.07812C31.1667 2.09896 31.1146 2.11458 31.0625 2.125C31.0208 2.125 30.9792 2.11458 30.9375 2.09375C30.9062 2.0625 30.8958 2.01042 30.9062 1.9375C30.9583 1.89583 31.0208 1.86458 31.0938 1.84375C31.1771 1.8125 31.25 1.82292 31.3125 1.875L31.3281 1.96875ZM28.7188 2.89062C28.6771 2.91146 28.6302 2.91146 28.5781 2.89062C28.526 2.85938 28.5 2.80729 28.5 2.73438C28.5104 2.65104 28.5677 2.58854 28.6719 2.54688C28.776 2.50521 28.8646 2.46354 28.9375 2.42188C29.0625 2.35938 29.1823 2.29688 29.2969 2.23438C29.4115 2.17188 29.5469 2.11979 29.7031 2.07812C29.7552 2.06771 29.8073 2.0625 29.8594 2.0625C29.9219 2.0625 29.9896 2.05729 30.0625 2.04688C30.1146 2.03646 30.1927 2.02083 30.2969 2C30.401 1.96875 30.4792 1.99479 30.5312 2.07812C30.5104 2.11979 30.474 2.14062 30.4219 2.14062C30.3802 2.14062 30.3385 2.14583 30.2969 2.15625C30.2448 2.17708 30.1979 2.19271 30.1562 2.20312C30.1146 2.21354 30.0729 2.21875 30.0312 2.21875C29.9688 2.26042 29.901 2.29688 29.8281 2.32812C29.7656 2.34896 29.6979 2.375 29.625 2.40625C29.6042 2.48958 29.5729 2.58333 29.5312 2.6875C29.4896 2.79167 29.4271 2.85417 29.3438 2.875C29.2604 2.89583 29.1771 2.89583 29.0938 2.875C29.0208 2.84375 28.9531 2.81771 28.8906 2.79688C28.8594 2.82812 28.8021 2.85938 28.7188 2.89062ZM36.4531 10.9688C36.3802 10.9896 36.3229 11.0156 36.2812 11.0469C36.2396 11.0677 36.1927 11.099 36.1406 11.1406C36.1198 11.1615 36.0938 11.1823 36.0625 11.2031C36.0417 11.2135 36.0208 11.2292 36 11.25C35.9583 11.3021 35.9271 11.3594 35.9062 11.4219C35.8854 11.4844 35.8542 11.5417 35.8125 11.5938C35.7812 11.6354 35.7448 11.6771 35.7031 11.7188C35.6615 11.75 35.6198 11.7865 35.5781 11.8281C35.3177 11.9323 35.0833 12 34.875 12.0312C34.6771 12.0625 34.474 12.0885 34.2656 12.1094C34.2135 12.1198 34.1562 12.1302 34.0938 12.1406C34.0312 12.151 33.9635 12.1615 33.8906 12.1719C33.7969 12.1823 33.7031 12.1875 33.6094 12.1875C33.5156 12.1875 33.4219 12.1927 33.3281 12.2031C33.2552 12.2031 33.1875 12.2135 33.125 12.2344C33.0729 12.2448 33.0208 12.2448 32.9688 12.2344C32.8958 12.224 32.7969 12.2135 32.6719 12.2031C32.5573 12.1927 32.4583 12.1719 32.375 12.1406C32.2604 12.0885 32.1719 12.0625 32.1094 12.0625C32.0573 12.0625 32 12.0573 31.9375 12.0469C31.6458 11.974 31.4167 11.9635 31.25 12.0156C31.1354 12.0365 31.026 12.0677 30.9219 12.1094C30.8281 12.1406 30.7031 12.151 30.5469 12.1406C30.4635 12.1406 30.3802 12.125 30.2969 12.0938C30.224 12.0521 30.1458 12.0156 30.0625 11.9844C29.9792 11.9635 29.901 11.9427 29.8281 11.9219C29.7552 11.901 29.6875 11.8802 29.625 11.8594C29.5417 11.8281 29.4583 11.7865 29.375 11.7344C29.3021 11.7031 29.2344 11.6771 29.1719 11.6562C29.1198 11.625 29.0677 11.5885 29.0156 11.5469C28.901 11.4948 28.776 11.4479 28.6406 11.4062C28.5052 11.3542 28.3906 11.2812 28.2969 11.1875C28.2552 11.1562 28.2083 11.1146 28.1562 11.0625C28.1146 11 28.0885 10.9427 28.0781 10.8906C28.0677 10.8177 28.0833 10.724 28.125 10.6094C28.1667 10.4948 28.1979 10.4167 28.2188 10.375C28.2396 10.3542 28.2604 10.3333 28.2812 10.3125C28.3021 10.2917 28.3229 10.2708 28.3438 10.25C28.4271 10.0833 28.5156 9.97396 28.6094 9.92188C28.5885 9.88021 28.5938 9.85417 28.625 9.84375C28.6667 9.83333 28.6979 9.8125 28.7188 9.78125C28.8229 9.64583 28.9167 9.58854 29 9.60938C29.0938 9.63021 29.1823 9.66146 29.2656 9.70312C29.3177 9.72396 29.3646 9.73958 29.4062 9.75C29.4479 9.76042 29.4896 9.77604 29.5312 9.79688C29.6146 9.83854 29.7031 9.86979 29.7969 9.89062C29.901 9.91146 29.9948 9.93229 30.0781 9.95312C30.1615 9.98438 30.2344 10.026 30.2969 10.0781C30.3594 10.1302 30.401 10.1927 30.4219 10.2656C30.599 10.3594 30.7292 10.4062 30.8125 10.4062C30.8646 10.4062 30.9115 10.3802 30.9531 10.3281C30.9948 10.2656 31.0417 10.2292 31.0938 10.2188C31.1354 10.2083 31.1823 10.2135 31.2344 10.2344C31.2865 10.2448 31.3385 10.2552 31.3906 10.2656C31.6302 10.2656 31.8542 10.1979 32.0625 10.0625C32.1146 10.0104 32.1615 9.96875 32.2031 9.9375C32.2448 9.89583 32.2812 9.84375 32.3125 9.78125C32.3021 9.73958 32.3021 9.70312 32.3125 9.67188C32.3229 9.64062 32.3177 9.59896 32.2969 9.54688C32.276 9.49479 32.2344 9.43229 32.1719 9.35938C32.1094 9.27604 32.0573 9.21354 32.0156 9.17188C31.9635 9.14062 31.9167 9.11458 31.875 9.09375C31.8438 9.07292 31.8073 9.04688 31.7656 9.01562C31.6719 8.94271 31.6146 8.90625 31.5938 8.90625C31.5729 8.89583 31.5521 8.88542 31.5312 8.875C31.4792 8.83333 31.4219 8.78125 31.3594 8.71875C31.3073 8.65625 31.2552 8.60417 31.2031 8.5625C31.1719 8.54167 31.1354 8.52083 31.0938 8.5C31.0625 8.46875 31.0312 8.44271 31 8.42188C30.8229 8.29688 30.6406 8.16146 30.4531 8.01562C30.2656 7.85938 30.0885 7.70833 29.9219 7.5625C29.8906 7.47917 29.8385 7.42188 29.7656 7.39062C29.7031 7.34896 29.6458 7.29688 29.5938 7.23438C29.5104 7.21354 29.4219 7.1875 29.3281 7.15625C29.2344 7.11458 29.1458 7.08333 29.0625 7.0625C28.9479 7.01042 28.8542 6.94271 28.7812 6.85938C28.7188 6.76562 28.6302 6.6875 28.5156 6.625C28.4531 6.5 28.3854 6.40625 28.3125 6.34375C28.2396 6.27083 28.1771 6.19271 28.125 6.10938C28.0833 6.04688 28.0469 5.97917 28.0156 5.90625C27.9948 5.82292 27.9583 5.74479 27.9062 5.67188C27.8542 5.55729 27.8073 5.44792 27.7656 5.34375C27.7344 5.22917 27.7135 5.09896 27.7031 4.95312C27.6927 4.90104 27.6927 4.84896 27.7031 4.79688C27.7135 4.73438 27.724 4.66667 27.7344 4.59375C27.7448 4.5625 27.7448 4.53125 27.7344 4.5C27.7344 4.46875 27.7396 4.44271 27.75 4.42188C27.7708 4.32812 27.8021 4.23958 27.8438 4.15625C27.8854 4.07292 27.9167 3.97917 27.9375 3.875C28 3.82292 28.0521 3.76562 28.0938 3.70312C28.1354 3.63021 28.1823 3.56771 28.2344 3.51562C28.2865 3.46354 28.3385 3.40625 28.3906 3.34375C28.4531 3.28125 28.5156 3.23958 28.5781 3.21875C28.599 3.19792 28.625 3.1875 28.6562 3.1875C28.6979 3.1875 28.7292 3.18229 28.75 3.17188C28.9062 3.14062 29.0104 3.14062 29.0625 3.17188C29.1146 3.19271 29.1667 3.21354 29.2188 3.23438C29.2708 3.25521 29.3229 3.27083 29.375 3.28125C29.4375 3.28125 29.4948 3.26042 29.5469 3.21875C29.5885 3.19792 29.6146 3.16667 29.625 3.125C29.6458 3.07292 29.6719 3.02604 29.7031 2.98438C29.7344 2.92188 29.7708 2.86979 29.8125 2.82812C29.8542 2.78646 29.8854 2.73958 29.9062 2.6875C30 2.63542 30.0938 2.58854 30.1875 2.54688C30.2812 2.49479 30.3854 2.45833 30.5 2.4375C30.6875 2.40625 30.8698 2.39062 31.0469 2.39062C31.1198 2.38021 31.1979 2.36979 31.2812 2.35938C31.3646 2.33854 31.4479 2.32812 31.5312 2.32812C31.7083 2.32812 31.8802 2.33333 32.0469 2.34375C32.2135 2.35417 32.3854 2.35417 32.5625 2.34375C32.6458 2.33333 32.7292 2.34375 32.8125 2.375C32.8958 2.39583 32.9583 2.41667 33 2.4375C33.0521 2.46875 33.0938 2.51042 33.125 2.5625C33.1562 2.61458 33.2135 2.64583 33.2969 2.65625C33.4115 2.6875 33.5104 2.67188 33.5938 2.60938C33.6875 2.53646 33.7865 2.49479 33.8906 2.48438C34.0573 2.50521 34.2396 2.52083 34.4375 2.53125C34.6354 2.54167 34.8125 2.58333 34.9688 2.65625C35.0104 2.6875 35.0417 2.71354 35.0625 2.73438C35.0938 2.75521 35.1354 2.77083 35.1875 2.78125C35.3333 2.8125 35.4479 2.85417 35.5312 2.90625C35.6146 2.94792 35.6979 2.98438 35.7812 3.01562C35.8438 3.03646 35.9062 3.05729 35.9688 3.07812C36.0417 3.09896 36.1042 3.11979 36.1562 3.14062C36.2604 3.19271 36.3542 3.25 36.4375 3.3125C36.5312 3.375 36.625 3.43229 36.7188 3.48438C36.7604 3.53646 36.7969 3.59896 36.8281 3.67188C36.8594 3.73438 36.8698 3.80208 36.8594 3.875C36.849 3.96875 36.8073 4.05208 36.7344 4.125C36.6615 4.1875 36.5938 4.23958 36.5312 4.28125C36.5104 4.32292 36.4844 4.36458 36.4531 4.40625C36.4323 4.4375 36.4062 4.47396 36.375 4.51562C36.3125 4.56771 36.2396 4.63021 36.1562 4.70312C36.0729 4.77604 35.9688 4.80208 35.8438 4.78125C35.7917 4.77083 35.7396 4.75 35.6875 4.71875C35.6458 4.6875 35.6094 4.65625 35.5781 4.625C35.5573 4.60417 35.526 4.59375 35.4844 4.59375C35.4531 4.58333 35.4271 4.56771 35.4062 4.54688C35.3854 4.52604 35.3646 4.51042 35.3438 4.5C35.3229 4.47917 35.2969 4.45833 35.2656 4.4375C35.1615 4.38542 35.0938 4.33333 35.0625 4.28125C35.0417 4.22917 35.0052 4.1875 34.9531 4.15625C34.849 4.10417 34.7396 4.09896 34.625 4.14062C34.5208 4.18229 34.4115 4.19792 34.2969 4.1875C34.2344 4.17708 34.1719 4.16146 34.1094 4.14062C34.0573 4.11979 34 4.09896 33.9375 4.07812C33.6667 4.04688 33.4323 4.05729 33.2344 4.10938C33.0365 4.15104 32.8802 4.22917 32.7656 4.34375C32.7135 4.375 32.6615 4.42708 32.6094 4.5C32.5781 4.61458 32.5521 4.69271 32.5312 4.73438C32.5208 4.77604 32.5156 4.83854 32.5156 4.92188C32.526 4.97396 32.5521 5.01042 32.5938 5.03125C32.6354 5.05208 32.6719 5.08333 32.7031 5.125C32.724 5.15625 32.7448 5.19271 32.7656 5.23438C32.7865 5.26562 32.8177 5.30729 32.8594 5.35938C32.9948 5.47396 33.0885 5.54167 33.1406 5.5625C33.2031 5.58333 33.2604 5.61458 33.3125 5.65625C33.3438 5.67708 33.3698 5.70312 33.3906 5.73438C33.4219 5.76562 33.4531 5.79167 33.4844 5.8125C33.599 5.875 33.6667 5.92188 33.6875 5.95312C33.7083 5.97396 33.7292 5.99479 33.75 6.01562C33.7917 6.04688 33.849 6.08333 33.9219 6.125C34.0052 6.15625 34.0573 6.19792 34.0781 6.25C34.1094 6.3125 34.125 6.375 34.125 6.4375C34.125 6.48958 34.1354 6.54167 34.1562 6.59375C34.1979 6.67708 34.2448 6.75521 34.2969 6.82812C34.3594 6.89062 34.4323 6.94271 34.5156 6.98438C34.6927 7.04688 34.8698 7.07292 35.0469 7.0625C35.1927 7.16667 35.3333 7.26562 35.4688 7.35938C35.6146 7.44271 35.7448 7.54688 35.8594 7.67188C35.8698 7.84896 35.9062 7.99479 35.9688 8.10938C36.0417 8.22396 36.1615 8.29167 36.3281 8.3125C36.349 8.34375 36.375 8.36979 36.4062 8.39062C36.4479 8.41146 36.4688 8.44792 36.4688 8.5C36.5521 8.5625 36.6146 8.64062 36.6562 8.73438C36.7083 8.82812 36.7552 8.91667 36.7969 9C36.8385 9.14583 36.875 9.30208 36.9062 9.46875C36.9375 9.625 36.9427 9.79167 36.9219 9.96875C36.8802 10.0938 36.8594 10.1771 36.8594 10.2188C36.8594 10.25 36.8594 10.2812 36.8594 10.3125C36.7969 10.4375 36.7656 10.5156 36.7656 10.5469C36.776 10.5781 36.7708 10.6094 36.75 10.6406C36.7188 10.724 36.6719 10.7865 36.6094 10.8281C36.5573 10.8698 36.5052 10.9167 36.4531 10.9688ZM35.5156 3.98438C35.474 4.03646 35.474 4.08854 35.5156 4.14062C35.5677 4.19271 35.6302 4.22917 35.7031 4.25C35.7865 4.27083 35.8594 4.27604 35.9219 4.26562C35.9948 4.24479 36.026 4.19271 36.0156 4.10938C35.9635 4.06771 35.8802 4.02083 35.7656 3.96875C35.6615 3.90625 35.5781 3.91146 35.5156 3.98438ZM29.125 5.9375C29.1667 5.88542 29.1875 5.8125 29.1875 5.71875C29.1875 5.625 29.1875 5.53646 29.1875 5.45312C29.1667 5.43229 29.1406 5.39583 29.1094 5.34375C29.0781 5.29167 29.0469 5.26042 29.0156 5.25C28.9948 5.23958 28.9531 5.23958 28.8906 5.25C28.8281 5.26042 28.7812 5.27083 28.75 5.28125C28.6771 5.30208 28.625 5.36458 28.5938 5.46875C28.5729 5.5625 28.5729 5.65104 28.5938 5.73438C28.6354 5.81771 28.7083 5.88021 28.8125 5.92188C28.9167 5.95312 29.0208 5.95833 29.125 5.9375ZM29.2031 4.125C29.2656 4.10417 29.3125 4.06771 29.3438 4.01562C29.375 3.96354 29.401 3.90625 29.4219 3.84375C29.3698 3.82292 29.3177 3.81771 29.2656 3.82812C29.224 3.83854 29.1823 3.83854 29.1406 3.82812C28.9635 3.76562 28.8333 3.75521 28.75 3.79688C28.625 3.92188 28.5469 4.02604 28.5156 4.10938C28.4844 4.18229 28.4583 4.25 28.4375 4.3125C28.4583 4.33333 28.4688 4.36458 28.4688 4.40625C28.4792 4.44792 28.4844 4.48958 28.4844 4.53125C28.4844 4.5625 28.4896 4.59375 28.5 4.625C28.5208 4.65625 28.5573 4.66667 28.6094 4.65625C28.6823 4.58333 28.7292 4.5 28.75 4.40625C28.7708 4.30208 28.8229 4.22917 28.9062 4.1875C28.9583 4.16667 29.0052 4.15625 29.0469 4.15625C29.099 4.15625 29.151 4.14583 29.2031 4.125ZM35.0938 8.71875C35.1458 8.79167 35.224 8.82812 35.3281 8.82812C35.4427 8.82812 35.5312 8.80208 35.5938 8.75C35.6354 8.67708 35.6354 8.61979 35.5938 8.57812C35.5625 8.53646 35.5156 8.51042 35.4531 8.5C35.3906 8.47917 35.3229 8.47396 35.25 8.48438C35.1875 8.49479 35.1458 8.51562 35.125 8.54688C35.1042 8.56771 35.0938 8.59375 35.0938 8.625C35.1042 8.64583 35.1042 8.67708 35.0938 8.71875ZM35.7344 10.4062C35.776 10.375 35.8229 10.349 35.875 10.3281C35.9271 10.3073 35.9792 10.2812 36.0312 10.25C36.0833 10.1875 36.1354 10.1042 36.1875 10C36.2396 9.88542 36.2552 9.77604 36.2344 9.67188C36.2135 9.60938 36.1719 9.54688 36.1094 9.48438C36.0781 9.46354 36.0365 9.44792 35.9844 9.4375C35.9323 9.42708 35.8802 9.42188 35.8281 9.42188C35.7865 9.50521 35.7865 9.57812 35.8281 9.64062C35.8802 9.69271 35.8958 9.76042 35.875 9.84375C35.8646 9.86458 35.8438 9.89583 35.8125 9.9375C35.7812 9.97917 35.7552 10.0104 35.7344 10.0312C35.6823 10.0833 35.6198 10.1302 35.5469 10.1719C35.474 10.2031 35.4115 10.2344 35.3594 10.2656C35.2865 10.3281 35.2188 10.4271 35.1562 10.5625C35.1042 10.6875 35.1354 10.7812 35.25 10.8438C35.2812 10.8229 35.3125 10.8073 35.3438 10.7969C35.375 10.7865 35.401 10.7708 35.4219 10.75C35.474 10.6979 35.5208 10.6406 35.5625 10.5781C35.6146 10.5052 35.6719 10.4479 35.7344 10.4062ZM36.5312 4.82812C36.6146 4.80729 36.6771 4.76042 36.7188 4.6875C36.7604 4.61458 36.8281 4.57812 36.9219 4.57812C36.901 4.70312 36.8646 4.80729 36.8125 4.89062C36.7708 4.96354 36.7135 5.02604 36.6406 5.07812C36.5156 5.19271 36.3906 5.33854 36.2656 5.51562C36.2031 5.54688 36.1354 5.57292 36.0625 5.59375C36 5.60417 35.9167 5.59375 35.8125 5.5625C35.6979 5.5 35.6302 5.47396 35.6094 5.48438C35.5885 5.48438 35.5677 5.47917 35.5469 5.46875C35.4948 5.44792 35.4427 5.41667 35.3906 5.375C35.3385 5.32292 35.2812 5.28646 35.2188 5.26562C35.1875 5.18229 35.1875 5.10938 35.2188 5.04688C35.25 4.98438 35.2969 4.94271 35.3594 4.92188C35.4323 4.99479 35.526 5.03646 35.6406 5.04688C35.7656 5.05729 35.8542 5.10417 35.9062 5.1875C35.9896 5.20833 36.0521 5.20833 36.0938 5.1875C36.1354 5.16667 36.1823 5.14583 36.2344 5.125C36.2865 5.07292 36.3333 5.02604 36.375 4.98438C36.4271 4.93229 36.4792 4.88021 36.5312 4.82812ZM34.875 4.71875C34.9583 4.6875 35.026 4.69271 35.0781 4.73438C35.1406 4.77604 35.1719 4.83854 35.1719 4.92188C35.1302 4.98438 35.0573 5.02083 34.9531 5.03125C34.849 5.03125 34.7917 4.98958 34.7812 4.90625C34.7812 4.86458 34.7917 4.83333 34.8125 4.8125C34.8333 4.78125 34.8542 4.75 34.875 4.71875ZM30.8281 9.95312C30.7448 9.99479 30.651 9.99479 30.5469 9.95312C30.4531 9.91146 30.3958 9.86458 30.375 9.8125C30.3542 9.77083 30.349 9.74479 30.3594 9.73438C30.3802 9.71354 30.3906 9.67708 30.3906 9.625C30.4635 9.53125 30.5521 9.50521 30.6562 9.54688C30.7604 9.58854 30.8594 9.61979 30.9531 9.64062C31.026 9.66146 31.0938 9.66667 31.1562 9.65625C31.2188 9.63542 31.2865 9.625 31.3594 9.625C31.3802 9.70833 31.3854 9.75521 31.375 9.76562C31.3646 9.77604 31.3594 9.79167 31.3594 9.8125C31.2969 9.84375 31.224 9.85938 31.1406 9.85938C31.0677 9.85938 31 9.86979 30.9375 9.89062L30.8281 9.95312ZM28.875 11.9531C28.9896 11.9323 29.099 11.9583 29.2031 12.0312C29.3177 12.1042 29.3646 12.1979 29.3438 12.3125C29.3229 12.4062 29.25 12.4635 29.125 12.4844C29 12.4948 28.9062 12.4583 28.8438 12.375V12.2031C28.8125 12.1615 28.776 12.1302 28.7344 12.1094C28.6927 12.0781 28.6615 12.0365 28.6406 11.9844C28.5052 11.9531 28.3854 11.9115 28.2812 11.8594C28.1875 11.8073 28.0885 11.7552 27.9844 11.7031C27.8698 11.7031 27.7812 11.7031 27.7188 11.7031C27.6667 11.7031 27.6094 11.6927 27.5469 11.6719C27.4427 11.6302 27.3646 11.5833 27.3125 11.5312C27.25 11.4688 27.2135 11.3854 27.2031 11.2812C27.1927 11.1771 27.2031 11.0729 27.2344 10.9688C27.2656 10.8646 27.3073 10.7656 27.3594 10.6719C27.4115 10.5781 27.4635 10.5104 27.5156 10.4688C27.6406 10.5208 27.6927 10.5781 27.6719 10.6406C27.6615 10.7031 27.6406 10.7708 27.6094 10.8438C27.5885 10.9167 27.5677 10.9896 27.5469 11.0625C27.5365 11.125 27.5469 11.1927 27.5781 11.2656C27.7448 11.3594 27.8385 11.4115 27.8594 11.4219C27.9635 11.4427 28.0312 11.4688 28.0625 11.5C28.1042 11.5312 28.151 11.5573 28.2031 11.5781C28.3802 11.6198 28.5052 11.6719 28.5781 11.7344C28.651 11.7865 28.7188 11.849 28.7812 11.9219L28.875 11.9531ZM36.9062 11.1406C36.9583 11.151 36.9896 11.1875 37 11.25C37.0104 11.3125 37.0208 11.3802 37.0312 11.4531C36.9792 11.6302 36.8594 11.7865 36.6719 11.9219C36.4948 12.0573 36.2969 12.0781 36.0781 11.9844C36.0781 11.9323 36.0885 11.9062 36.1094 11.9062C36.1406 11.8958 36.1719 11.8802 36.2031 11.8594C36.2344 11.8385 36.2604 11.8125 36.2812 11.7812C36.3021 11.7396 36.3281 11.6979 36.3594 11.6562C36.3802 11.625 36.4062 11.599 36.4375 11.5781C36.4792 11.5573 36.5104 11.5312 36.5312 11.5C36.5521 11.4688 36.5677 11.4323 36.5781 11.3906C36.599 11.349 36.6302 11.3073 36.6719 11.2656C36.6927 11.2448 36.7292 11.2188 36.7812 11.1875C36.8438 11.1562 36.8854 11.1406 36.9062 11.1406ZM31.8281 12.3594C31.901 12.3802 31.9323 12.4219 31.9219 12.4844C31.9115 12.5469 31.8802 12.5885 31.8281 12.6094C31.7656 12.6302 31.6927 12.651 31.6094 12.6719C31.526 12.6927 31.4427 12.6979 31.3594 12.6875C31.2448 12.6458 31.1458 12.6302 31.0625 12.6406C30.9896 12.6406 30.9531 12.599 30.9531 12.5156C31.0677 12.4635 31.1979 12.4271 31.3438 12.4062C31.5 12.3854 31.6615 12.3698 31.8281 12.3594ZM39.1562 2.1875C39.125 2.19792 39.0938 2.20312 39.0625 2.20312C39.0312 2.19271 39.0052 2.19271 38.9844 2.20312C38.901 2.22396 38.8125 2.27604 38.7188 2.35938C38.625 2.43229 38.5625 2.51562 38.5312 2.60938C38.4896 2.74479 38.4635 2.88021 38.4531 3.01562C38.4427 3.15104 38.3802 3.26042 38.2656 3.34375C38.1927 3.23958 38.1406 3.125 38.1094 3C38.0781 2.875 38.0938 2.77083 38.1562 2.6875C38.1771 2.64583 38.2031 2.61979 38.2344 2.60938C38.276 2.59896 38.3125 2.58333 38.3438 2.5625C38.3854 2.4375 38.3958 2.30729 38.375 2.17188C38.3438 2.15104 38.3073 2.14062 38.2656 2.14062C38.224 2.14062 38.1927 2.125 38.1719 2.09375C38.1927 1.97917 38.2604 1.91667 38.375 1.90625C38.5 1.88542 38.6198 1.88542 38.7344 1.90625C38.8802 1.85417 39.0469 1.83854 39.2344 1.85938C39.4219 1.86979 39.5833 1.90104 39.7188 1.95312C39.8229 1.93229 39.9219 1.9375 40.0156 1.96875C40.1094 2 40.2135 2.00521 40.3281 1.98438C40.3594 1.98438 40.3854 1.97917 40.4062 1.96875C40.4375 1.94792 40.474 1.93229 40.5156 1.92188C40.6406 1.88021 40.7656 1.91146 40.8906 2.01562C40.8594 2.07812 40.7969 2.11979 40.7031 2.14062C40.6302 2.16146 40.5469 2.17708 40.4531 2.1875C40.3698 2.1875 40.2917 2.19271 40.2188 2.20312C40.1042 2.23438 40.0312 2.24479 40 2.23438C39.9688 2.22396 39.9427 2.21354 39.9219 2.20312C39.8906 2.19271 39.8594 2.19271 39.8281 2.20312C39.8073 2.21354 39.7812 2.21354 39.75 2.20312C39.6875 2.19271 39.6198 2.18229 39.5469 2.17188C39.474 2.15104 39.3958 2.14583 39.3125 2.15625L39.1562 2.1875ZM47.9844 10.5938C48.0052 10.7083 47.9896 10.8021 47.9375 10.875C47.8854 10.9375 47.8594 11.0104 47.8594 11.0938C47.8594 11.1667 47.8854 11.2396 47.9375 11.3125C48 11.3854 48.026 11.4635 48.0156 11.5469C47.9948 11.6094 47.9323 11.6771 47.8281 11.75C47.7344 11.8229 47.6615 11.875 47.6094 11.9062C47.5885 11.9271 47.5625 11.9531 47.5312 11.9844C47.5104 12.0052 47.4896 12.0156 47.4688 12.0156C47.4167 12.026 47.3646 12.026 47.3125 12.0156C47.2604 11.9948 47.2083 11.9792 47.1562 11.9688C46.9792 11.9688 46.7917 11.9635 46.5938 11.9531C46.3958 11.9427 46.2031 11.9375 46.0156 11.9375C45.974 11.9375 45.9375 11.9427 45.9062 11.9531C45.875 11.9531 45.8385 11.9531 45.7969 11.9531C45.7552 11.9531 45.7135 11.9531 45.6719 11.9531C45.6302 11.9427 45.5833 11.9375 45.5312 11.9375C45.4167 11.9375 45.2969 11.9427 45.1719 11.9531C45.0573 11.9635 44.9427 11.9583 44.8281 11.9375C44.776 11.9062 44.7135 11.8646 44.6406 11.8125C44.5781 11.75 44.5052 11.7292 44.4219 11.75C44.3802 11.7604 44.3438 11.7812 44.3125 11.8125C44.2812 11.8333 44.2448 11.849 44.2031 11.8594C44.151 11.8698 44.0833 11.8646 44 11.8438C43.9271 11.8125 43.849 11.7969 43.7656 11.7969H43.5938C43.5417 11.7865 43.4896 11.7708 43.4375 11.75C43.3854 11.7188 43.3281 11.7031 43.2656 11.7031C43.151 11.6823 43.0417 11.6875 42.9375 11.7188C42.9062 11.7188 42.8698 11.7292 42.8281 11.75C42.7969 11.7708 42.7656 11.7812 42.7344 11.7812C42.7135 11.7917 42.6823 11.7917 42.6406 11.7812C42.599 11.7604 42.5573 11.7448 42.5156 11.7344C42.4323 11.7135 42.3542 11.7083 42.2812 11.7188C42.2083 11.7188 42.1406 11.7135 42.0781 11.7031C41.9948 11.6823 41.9219 11.6458 41.8594 11.5938C41.8073 11.5417 41.75 11.4948 41.6875 11.4531C41.5417 11.3594 41.3958 11.3542 41.25 11.4375C41.1146 11.5104 41.0052 11.5885 40.9219 11.6719C40.7448 11.6406 40.5417 11.6406 40.3125 11.6719C40.0833 11.7031 39.8698 11.6823 39.6719 11.6094C39.5781 11.599 39.4844 11.5938 39.3906 11.5938C39.3073 11.5938 39.224 11.5833 39.1406 11.5625C39.0573 11.5417 38.9688 11.4792 38.875 11.375C38.7812 11.2708 38.724 11.1771 38.7031 11.0938C38.6927 11.0625 38.6927 11.026 38.7031 10.9844C38.7135 10.9427 38.7135 10.901 38.7031 10.8594C38.6927 10.8073 38.6823 10.7656 38.6719 10.7344C38.6615 10.6927 38.6562 10.651 38.6562 10.6094L38.75 10.4219C38.7812 10.3594 38.8073 10.3021 38.8281 10.25C38.849 10.1979 38.8802 10.1458 38.9219 10.0938C38.8802 10.0104 38.8438 9.94271 38.8125 9.89062C38.7917 9.83854 38.7604 9.77604 38.7188 9.70312C38.6771 9.65104 38.6458 9.61458 38.625 9.59375C38.6042 9.57292 38.5938 9.52604 38.5938 9.45312C38.5938 9.36979 38.6042 9.28646 38.625 9.20312C38.6458 9.11979 38.6667 9.03646 38.6875 8.95312C38.7083 8.86979 38.7188 8.78125 38.7188 8.6875C38.7292 8.58333 38.7396 8.48958 38.75 8.40625C38.7604 8.3125 38.7656 8.21875 38.7656 8.125C38.776 8.03125 38.7917 7.94271 38.8125 7.85938C38.8333 7.80729 38.8542 7.76562 38.875 7.73438C38.9062 7.69271 38.9219 7.64583 38.9219 7.59375C38.9219 7.53125 38.901 7.47396 38.8594 7.42188C38.8281 7.36979 38.8125 7.30729 38.8125 7.23438C38.8021 7.16146 38.8021 7.08333 38.8125 7C38.8333 6.90625 38.8438 6.81771 38.8438 6.73438C38.8438 6.69271 38.8385 6.65625 38.8281 6.625C38.8281 6.59375 38.8281 6.56771 38.8281 6.54688C38.849 6.48438 38.8802 6.43229 38.9219 6.39062C38.9635 6.33854 39 6.27604 39.0312 6.20312C39.1042 6.05729 39.1406 5.90625 39.1406 5.75C39.151 5.58333 39.1198 5.43229 39.0469 5.29688C39.026 5.25521 38.9948 5.21875 38.9531 5.1875C38.9115 5.15625 38.8802 5.11458 38.8594 5.0625C38.8385 5.01042 38.8333 4.95312 38.8438 4.89062C38.8646 4.81771 38.8802 4.73958 38.8906 4.65625C38.901 4.55208 38.901 4.44792 38.8906 4.34375C38.8906 4.22917 38.8958 4.13021 38.9062 4.04688C38.9375 3.82812 38.9479 3.65104 38.9375 3.51562C38.9271 3.38021 38.9427 3.25521 38.9844 3.14062C39.0052 3.04688 39.0417 2.96875 39.0938 2.90625C39.1458 2.84375 39.2031 2.77604 39.2656 2.70312C39.4219 2.61979 39.5885 2.57812 39.7656 2.57812C39.9531 2.56771 40.1406 2.57292 40.3281 2.59375C40.4219 2.60417 40.5417 2.61979 40.6875 2.64062C40.8333 2.65104 40.9583 2.65625 41.0625 2.65625C41.1146 2.65625 41.1771 2.65625 41.25 2.65625C41.3229 2.65625 41.401 2.66667 41.4844 2.6875C41.5365 2.70833 41.5781 2.73958 41.6094 2.78125C41.6406 2.82292 41.6823 2.85417 41.7344 2.875C41.7656 2.89583 41.8021 2.91667 41.8438 2.9375C41.8854 2.94792 41.9167 2.95833 41.9375 2.96875C42.1146 3 42.2604 2.97396 42.375 2.89062C42.4896 2.79688 42.6198 2.73958 42.7656 2.71875C42.849 2.75 42.9323 2.76562 43.0156 2.76562C43.1094 2.75521 43.1979 2.75521 43.2812 2.76562C43.3854 2.77604 43.4792 2.79167 43.5625 2.8125C43.6562 2.83333 43.75 2.84375 43.8438 2.84375H44.25C44.3438 2.84375 44.4167 2.84896 44.4688 2.85938C44.5 2.85938 44.5365 2.85417 44.5781 2.84375C44.6198 2.83333 44.6562 2.83333 44.6875 2.84375C44.8125 2.91667 44.901 2.94792 44.9531 2.9375C45.0052 2.92708 45.0625 2.93229 45.125 2.95312C45.1562 2.93229 45.1823 2.90625 45.2031 2.875C45.224 2.84375 45.25 2.82292 45.2812 2.8125C45.3333 2.79167 45.3906 2.78646 45.4531 2.79688C45.526 2.80729 45.5885 2.8125 45.6406 2.8125C45.9219 2.8125 46.2135 2.82292 46.5156 2.84375C46.8177 2.86458 47.1042 2.875 47.375 2.875C47.4271 2.90625 47.4792 2.93229 47.5312 2.95312C47.5833 2.97396 47.6198 3.01562 47.6406 3.07812C47.6615 3.17188 47.6615 3.27083 47.6406 3.375C47.6198 3.47917 47.5833 3.55729 47.5312 3.60938C47.4896 3.74479 47.5052 3.85417 47.5781 3.9375C47.6615 4.02083 47.7188 4.10417 47.75 4.1875C47.7708 4.36458 47.7865 4.48438 47.7969 4.54688C47.8177 4.60938 47.8021 4.67188 47.75 4.73438C47.6979 4.73438 47.6458 4.75 47.5938 4.78125C47.5521 4.80208 47.5052 4.8125 47.4531 4.8125C47.3906 4.82292 47.3229 4.82292 47.25 4.8125C47.1875 4.79167 47.1198 4.78125 47.0469 4.78125C46.8385 4.77083 46.6042 4.76042 46.3438 4.75C46.0833 4.72917 45.849 4.71875 45.6406 4.71875C45.4844 4.70833 45.3229 4.70833 45.1562 4.71875C45 4.72917 44.8646 4.72396 44.75 4.70312C44.7188 4.69271 44.6823 4.67708 44.6406 4.65625C44.6094 4.625 44.5781 4.60417 44.5469 4.59375C44.474 4.57292 44.4062 4.58333 44.3438 4.625C44.2812 4.66667 44.2188 4.66146 44.1562 4.60938C44.0104 4.63021 43.8542 4.63542 43.6875 4.625C43.5208 4.60417 43.3698 4.61458 43.2344 4.65625C43.1823 4.71875 43.151 4.80729 43.1406 4.92188C43.1406 5.02604 43.1302 5.13021 43.1094 5.23438C43.0677 5.35938 43.0469 5.4375 43.0469 5.46875C43.0573 5.48958 43.0521 5.51042 43.0312 5.53125C43.0104 5.58333 42.9792 5.625 42.9375 5.65625C42.9062 5.67708 42.8854 5.71354 42.875 5.76562C42.875 5.83854 42.901 5.88542 42.9531 5.90625C43.0156 5.92708 43.0625 5.96354 43.0938 6.01562C43.0729 6.09896 43.0677 6.19271 43.0781 6.29688C43.0885 6.39062 43.125 6.44792 43.1875 6.46875C43.3438 6.46875 43.4531 6.47396 43.5156 6.48438C43.5885 6.48438 43.651 6.48438 43.7031 6.48438C43.776 6.48438 43.8646 6.48438 43.9688 6.48438C44.0729 6.47396 44.151 6.48958 44.2031 6.53125C44.224 6.55208 44.2396 6.58333 44.25 6.625C44.2708 6.65625 44.3021 6.6875 44.3438 6.71875C44.3646 6.72917 44.401 6.74479 44.4531 6.76562C44.5052 6.78646 44.5521 6.79167 44.5938 6.78125C44.6458 6.77083 44.6927 6.75 44.7344 6.71875C44.776 6.67708 44.8229 6.64583 44.875 6.625C44.9271 6.60417 44.9844 6.59896 45.0469 6.60938C45.1198 6.60938 45.1927 6.60417 45.2656 6.59375C45.4115 6.58333 45.5156 6.58854 45.5781 6.60938C45.6406 6.61979 45.7031 6.63021 45.7656 6.64062C45.8177 6.64062 45.8698 6.64062 45.9219 6.64062C45.9844 6.64062 46.0417 6.64583 46.0938 6.65625C46.2292 6.6875 46.3802 6.70833 46.5469 6.71875C46.7135 6.71875 46.8646 6.70833 47 6.6875C47.0938 6.70833 47.1771 6.73958 47.25 6.78125C47.3333 6.8125 47.3906 6.86458 47.4219 6.9375C47.4427 6.97917 47.4635 7.05729 47.4844 7.17188C47.5052 7.27604 47.5052 7.36458 47.4844 7.4375C47.474 7.48958 47.4531 7.54167 47.4219 7.59375C47.3906 7.63542 47.375 7.68229 47.375 7.73438C47.3646 7.80729 47.3698 7.88542 47.3906 7.96875C47.4219 8.04167 47.4271 8.11458 47.4062 8.1875C47.3958 8.22917 47.375 8.26042 47.3438 8.28125C47.3125 8.30208 47.2865 8.32812 47.2656 8.35938C47.1719 8.40104 47.0417 8.41146 46.875 8.39062C46.7083 8.35938 46.5573 8.34375 46.4219 8.34375H46.2188C46.1146 8.34375 46.0052 8.34896 45.8906 8.35938C45.7865 8.36979 45.6823 8.38021 45.5781 8.39062C45.5156 8.39062 45.4479 8.38542 45.375 8.375C45.3125 8.36458 45.25 8.35938 45.1875 8.35938C45.125 8.35938 45.0573 8.36979 44.9844 8.39062C44.9219 8.40104 44.8646 8.40104 44.8125 8.39062C44.7604 8.38021 44.7083 8.35417 44.6562 8.3125C44.6146 8.27083 44.5677 8.25 44.5156 8.25C44.474 8.25 44.4375 8.26042 44.4062 8.28125C44.375 8.30208 44.3438 8.31771 44.3125 8.32812C44.1146 8.38021 43.901 8.39583 43.6719 8.375C43.4531 8.34375 43.25 8.35417 43.0625 8.40625C42.9688 8.63542 42.9115 8.86979 42.8906 9.10938C42.8802 9.34896 42.8698 9.59896 42.8594 9.85938C42.9323 9.93229 43.0156 9.97917 43.1094 10C43.2135 10.0104 43.3177 10.0104 43.4219 10C43.526 9.98958 43.6302 9.97917 43.7344 9.96875C43.849 9.95833 43.9635 9.95833 44.0781 9.96875C44.1302 9.96875 44.1823 9.97917 44.2344 10C44.2865 10.0208 44.3385 10.0312 44.3906 10.0312C44.4531 10.0417 44.5104 10.0469 44.5625 10.0469C44.625 10.0365 44.6927 10.0365 44.7656 10.0469C44.8177 10.0469 44.8698 10.0521 44.9219 10.0625C44.974 10.0625 45.026 10.0625 45.0781 10.0625C45.1302 10.0729 45.1875 10.0781 45.25 10.0781C45.3125 10.0677 45.3698 10.0677 45.4219 10.0781C45.4844 10.0885 45.5312 10.1146 45.5625 10.1562C45.6042 10.1875 45.651 10.2135 45.7031 10.2344C45.8073 10.276 45.9115 10.2969 46.0156 10.2969C46.099 10.2969 46.1771 10.276 46.25 10.2344C46.3333 10.1823 46.4167 10.1458 46.5 10.125C46.5521 10.125 46.6146 10.1302 46.6875 10.1406C46.7708 10.1406 46.849 10.1458 46.9219 10.1562C47.0365 10.1667 47.151 10.1719 47.2656 10.1719C47.3906 10.1615 47.5 10.1667 47.5938 10.1875C47.6979 10.2083 47.7812 10.25 47.8438 10.3125C47.9167 10.375 47.9635 10.4688 47.9844 10.5938ZM39.7031 3.45312C39.7031 3.55729 39.6927 3.63021 39.6719 3.67188C39.6615 3.70312 39.6562 3.73438 39.6562 3.76562C39.6562 3.82812 39.651 3.89062 39.6406 3.95312C39.6406 4.01562 39.651 4.06771 39.6719 4.10938C39.7865 4.07812 39.8385 4.04688 39.8281 4.01562C39.8281 3.97396 39.8281 3.9375 39.8281 3.90625C39.8594 3.76042 39.9271 3.65625 40.0312 3.59375C40.1458 3.52083 40.2292 3.41667 40.2812 3.28125C40.1979 3.17708 40.0885 3.14583 39.9531 3.1875C39.8177 3.22917 39.7344 3.31771 39.7031 3.45312ZM39.6875 9.4375C39.7083 9.35417 39.7135 9.27083 39.7031 9.1875C39.7031 9.09375 39.6823 9.00521 39.6406 8.92188C39.5573 8.91146 39.4948 8.94271 39.4531 9.01562C39.4219 9.08854 39.4062 9.16667 39.4062 9.25C39.4062 9.33333 39.4271 9.40104 39.4688 9.45312C39.5208 9.50521 39.5938 9.5 39.6875 9.4375ZM39.6406 10.9531C39.7031 10.9635 39.7812 10.9792 39.875 11C39.9792 11.0104 40.0729 11.0156 40.1562 11.0156C40.25 11.0156 40.3281 11.0052 40.3906 10.9844C40.4635 10.9531 40.5 10.8958 40.5 10.8125C40.4479 10.75 40.3698 10.7083 40.2656 10.6875C40.1719 10.6562 40.0781 10.6458 39.9844 10.6562C39.9115 10.5833 39.849 10.5 39.7969 10.4062C39.7552 10.3021 39.7396 10.1875 39.75 10.0625C39.6979 10.0104 39.651 10.0052 39.6094 10.0469C39.5677 10.0781 39.5365 10.1094 39.5156 10.1406C39.474 10.1927 39.4427 10.2656 39.4219 10.3594C39.4115 10.4531 39.3958 10.5417 39.375 10.625C39.3438 10.7812 39.3594 10.875 39.4219 10.9062C39.4948 10.9271 39.5677 10.9427 39.6406 10.9531ZM42.5469 4.17188C42.526 4.20312 42.5104 4.24479 42.5 4.29688C42.4896 4.34896 42.4844 4.40104 42.4844 4.45312C42.4844 4.50521 42.4896 4.55729 42.5 4.60938C42.5208 4.65104 42.5521 4.67708 42.5938 4.6875C42.6458 4.69792 42.6771 4.68229 42.6875 4.64062C42.7083 4.59896 42.7396 4.56771 42.7812 4.54688C42.8125 4.48438 42.8438 4.42708 42.875 4.375C42.9062 4.3125 42.9479 4.25521 43 4.20312C43.0312 4.17188 43.0677 4.14583 43.1094 4.125C43.1615 4.10417 43.1979 4.07292 43.2188 4.03125C43.0833 4.02083 42.9688 4 42.875 3.96875C42.7917 3.9375 42.7031 3.96875 42.6094 4.0625L42.5469 4.17188ZM42.3594 9.15625C42.4219 9.15625 42.4583 9.125 42.4688 9.0625C42.4792 8.98958 42.474 8.92188 42.4531 8.85938C42.4115 8.86979 42.3698 8.88542 42.3281 8.90625C42.2865 8.92708 42.2604 8.95833 42.25 9C42.2396 9.04167 42.2448 9.07812 42.2656 9.10938C42.2969 9.14062 42.3281 9.15625 42.3594 9.15625ZM42.875 7.92188C42.8958 7.89062 42.9167 7.86458 42.9375 7.84375C42.9583 7.82292 42.9531 7.78646 42.9219 7.73438C42.8594 7.71354 42.7812 7.69271 42.6875 7.67188C42.6042 7.65104 42.5417 7.66667 42.5 7.71875C42.4583 7.82292 42.4219 7.93229 42.3906 8.04688C42.3594 8.16146 42.3333 8.27604 42.3125 8.39062C42.4583 8.33854 42.5729 8.26562 42.6562 8.17188C42.7396 8.06771 42.8125 7.98438 42.875 7.92188ZM46.7031 11.4531C46.8177 11.5052 46.9271 11.5156 47.0312 11.4844C47.1458 11.4531 47.2135 11.375 47.2344 11.25C47.0781 11.1458 46.9479 11.125 46.8438 11.1875C46.75 11.2396 46.7031 11.3281 46.7031 11.4531ZM48.2344 3.96875C48.2135 4.01042 48.1771 4.03646 48.125 4.04688C48.0833 4.04688 48.0365 4.05208 47.9844 4.0625C47.9427 4 47.9115 3.94271 47.8906 3.89062C47.8698 3.82812 47.8698 3.75521 47.8906 3.67188C47.901 3.61979 47.9271 3.57812 47.9688 3.54688C48.0208 3.50521 48.0469 3.45833 48.0469 3.40625C48.0573 3.33333 48.0417 3.27604 48 3.23438C47.9688 3.18229 47.9531 3.11979 47.9531 3.04688C48.1302 2.98438 48.2344 3.00521 48.2656 3.10938C48.3073 3.21354 48.3229 3.30729 48.3125 3.39062C48.3125 3.42188 48.3073 3.45833 48.2969 3.5C48.2865 3.53125 48.2812 3.56771 48.2812 3.60938C48.2708 3.68229 48.2656 3.75 48.2656 3.8125C48.2656 3.875 48.2552 3.92708 48.2344 3.96875ZM38.0625 3.64062C38.1146 3.63021 38.1562 3.625 38.1875 3.625C38.2188 3.625 38.2448 3.65104 38.2656 3.70312C38.276 3.86979 38.2812 4.03646 38.2812 4.20312C38.2812 4.35938 38.2448 4.5 38.1719 4.625C38.0052 4.60417 37.9323 4.54688 37.9531 4.45312C37.974 4.34896 37.9792 4.25521 37.9688 4.17188C37.8958 4.10938 37.875 4.02083 37.9062 3.90625C37.9479 3.79167 38 3.70312 38.0625 3.64062ZM44.4219 5.17188C44.4115 5.09896 44.4219 5.04688 44.4531 5.01562C44.4948 4.98438 44.5417 4.96875 44.5938 4.96875C44.6562 4.95833 44.7135 4.96875 44.7656 5C44.8281 5.02083 44.8698 5.04688 44.8906 5.07812C44.8698 5.16146 44.8021 5.21354 44.6875 5.23438C44.5729 5.24479 44.4844 5.22396 44.4219 5.17188ZM43.6719 4.96875C43.7552 4.94792 43.8698 4.9375 44.0156 4.9375C44.1615 4.92708 44.2604 4.95833 44.3125 5.03125C44.1875 5.14583 44.0677 5.21875 43.9531 5.25C43.849 5.28125 43.7708 5.33854 43.7188 5.42188C43.7083 5.50521 43.6771 5.57812 43.625 5.64062C43.5312 5.59896 43.4792 5.54688 43.4688 5.48438C43.4583 5.41146 43.4583 5.33854 43.4688 5.26562C43.4792 5.19271 43.5 5.13021 43.5312 5.07812C43.5625 5.01562 43.6094 4.97917 43.6719 4.96875ZM48.4844 10.1562C48.5469 10.1979 48.6146 10.2448 48.6875 10.2969C48.7708 10.3385 48.7865 10.4167 48.7344 10.5312C48.6094 10.625 48.5208 10.625 48.4688 10.5312C48.4271 10.4375 48.3958 10.3385 48.375 10.2344C48.3542 10.1198 48.2865 10.0365 48.1719 9.98438C48.0677 9.93229 47.9479 9.89583 47.8125 9.875C47.7396 9.875 47.6667 9.88542 47.5938 9.90625C47.5312 9.91667 47.4688 9.91667 47.4062 9.90625C47.2604 9.86458 47.1562 9.84375 47.0938 9.84375C47.0417 9.84375 46.9896 9.83854 46.9375 9.82812C46.9062 9.82812 46.8594 9.83333 46.7969 9.84375C46.7344 9.84375 46.6771 9.84375 46.625 9.84375C46.5729 9.84375 46.526 9.83333 46.4844 9.8125C46.4531 9.79167 46.4479 9.75521 46.4688 9.70312C46.6146 9.65104 46.7708 9.63542 46.9375 9.65625C47.1146 9.66667 47.2917 9.68229 47.4688 9.70312C47.5104 9.71354 47.5677 9.71875 47.6406 9.71875C47.7031 9.70833 47.7604 9.69271 47.8125 9.67188C47.875 9.64062 47.9427 9.64062 48.0156 9.67188C48.0469 9.64062 48.0885 9.63021 48.1406 9.64062C48.2031 9.65104 48.2604 9.65104 48.3125 9.64062C48.3958 9.68229 48.4323 9.71354 48.4219 9.73438C48.4219 9.75521 48.4271 9.78125 48.4375 9.8125C48.4792 9.94792 48.4948 10.0312 48.4844 10.0625C48.474 10.0938 48.474 10.125 48.4844 10.1562ZM48.4531 10.8594C48.5573 10.9948 48.6094 11.1198 48.6094 11.2344C48.6094 11.349 48.5885 11.4427 48.5469 11.5156C48.3698 11.5677 48.2969 11.4635 48.3281 11.2031C48.3281 11.1615 48.3438 11.099 48.375 11.0156C48.4062 10.9219 48.4323 10.8698 48.4531 10.8594Z" fill="white"/>
</svg>
