<svg width="58" height="15" viewBox="0 0 58 15" fill="none" xmlns="http://www.w3.org/2000/svg">
<path d="M20.0469 3.29688C19.9635 3.32812 19.9062 3.33854 19.875 3.32812C19.8542 3.30729 19.8281 3.28646 19.7969 3.26562C19.776 3.14062 19.7812 3.01042 19.8125 2.875C19.8542 2.72917 19.8542 2.58854 19.8125 2.45312C19.7917 2.40104 19.7708 2.35938 19.75 2.32812C19.7396 2.29688 19.724 2.26042 19.7031 2.21875C19.651 2.23958 19.5781 2.25 19.4844 2.25C19.401 2.25 19.3229 2.25 19.25 2.25C19.2292 2.25 19.1771 2.23438 19.0938 2.20312C19.0208 2.16146 18.974 2.13021 18.9531 2.10938C18.9219 2.06771 18.9062 2.02083 18.9062 1.96875C18.9167 1.91667 18.9271 1.85938 18.9375 1.79688C18.8333 1.73438 18.7604 1.70833 18.7188 1.71875C18.6875 1.71875 18.651 1.71354 18.6094 1.70312C18.5052 1.67188 18.4167 1.66667 18.3438 1.6875C18.2812 1.69792 18.2344 1.69271 18.2031 1.67188C18.1615 1.66146 18.125 1.63542 18.0938 1.59375C18.0729 1.54167 18.0677 1.49479 18.0781 1.45312C18.099 1.34896 18.1667 1.30208 18.2812 1.3125C18.4062 1.32292 18.5052 1.35417 18.5781 1.40625C18.6615 1.39583 18.7604 1.40104 18.875 1.42188C18.9896 1.43229 19.1042 1.4375 19.2188 1.4375C19.2604 1.4375 19.2969 1.4375 19.3281 1.4375C19.3594 1.42708 19.3906 1.42708 19.4219 1.4375C19.5052 1.44792 19.5625 1.48438 19.5938 1.54688C19.625 1.60938 19.6615 1.66667 19.7031 1.71875C19.776 1.75 19.8385 1.79167 19.8906 1.84375C19.9427 1.88542 20 1.94271 20.0625 2.01562C20.1771 2.11979 20.2135 2.25521 20.1719 2.42188C20.1302 2.56771 20.0938 2.71354 20.0625 2.85938C20.0312 2.99479 20.026 3.14062 20.0469 3.29688ZM2.70312 0.890625C2.49479 0.932292 2.29688 0.953125 2.10938 0.953125C1.92188 0.953125 1.72917 0.953125 1.53125 0.953125C1.48958 1.01562 1.46354 1.10417 1.45312 1.21875C1.44271 1.33333 1.40625 1.42708 1.34375 1.5C1.3125 1.53125 1.27083 1.57292 1.21875 1.625C1.16667 1.67708 1.13021 1.70312 1.10938 1.70312C0.994792 1.61979 0.9375 1.52604 0.9375 1.42188C0.947917 1.30729 0.958333 1.20833 0.96875 1.125C0.979167 1.07292 0.989583 1.02604 1 0.984375C1.02083 0.932292 1.04167 0.890625 1.0625 0.859375C1.07292 0.838542 1.08854 0.817708 1.10938 0.796875C1.14062 0.776042 1.17188 0.75 1.20312 0.71875C1.23438 0.666667 1.26042 0.619792 1.28125 0.578125C1.30208 0.536458 1.33854 0.510417 1.39062 0.5C1.50521 0.510417 1.57292 0.510417 1.59375 0.5C1.625 0.479167 1.66146 0.46875 1.70312 0.46875C1.75521 0.458333 1.80208 0.46875 1.84375 0.5C1.89583 0.520833 1.94792 0.53125 2 0.53125C2.03125 0.53125 2.0625 0.526042 2.09375 0.515625C2.13542 0.505208 2.17188 0.5 2.20312 0.5C2.23438 0.520833 2.27083 0.53125 2.3125 0.53125C2.36458 0.53125 2.41146 0.53125 2.45312 0.53125C2.50521 0.520833 2.55208 0.515625 2.59375 0.515625C2.64583 0.505208 2.68229 0.505208 2.70312 0.515625C2.75521 0.557292 2.77083 0.614583 2.75 0.6875C2.72917 0.75 2.71354 0.817708 2.70312 0.890625ZM9.20312 6.03125C9.22396 6.08333 9.23958 6.13542 9.25 6.1875C9.27083 6.22917 9.29167 6.27604 9.3125 6.32812C9.32292 6.36979 9.34375 6.41146 9.375 6.45312C9.40625 6.48438 9.43229 6.52083 9.45312 6.5625C9.52604 6.6875 9.58854 6.8125 9.64062 6.9375C9.70312 7.05208 9.77604 7.16667 9.85938 7.28125C9.90104 7.39583 9.94271 7.51042 9.98438 7.625C10.026 7.73958 10.0781 7.83854 10.1406 7.92188C10.1406 7.98438 10.151 8.04167 10.1719 8.09375C10.2031 8.13542 10.2292 8.18229 10.25 8.23438C10.2812 8.32812 10.3125 8.41667 10.3438 8.5C10.3854 8.58333 10.4375 8.66667 10.5 8.75C10.6771 8.47917 10.849 8.20312 11.0156 7.92188C11.1823 7.63021 11.3385 7.32812 11.4844 7.01562C11.5365 7.00521 11.5938 6.98958 11.6562 6.96875C11.7188 6.9375 11.7812 6.91146 11.8438 6.89062C11.875 6.86979 11.8958 6.84896 11.9062 6.82812C11.9271 6.79688 11.9531 6.76562 11.9844 6.73438C12.0781 6.63021 12.1354 6.55729 12.1562 6.51562C12.1771 6.47396 12.1615 6.41667 12.1094 6.34375C12.1302 6.22917 12.1719 6.11458 12.2344 6C12.2969 5.88542 12.3594 5.78646 12.4219 5.70312C12.4531 5.65104 12.4792 5.60417 12.5 5.5625C12.5208 5.52083 12.5469 5.47917 12.5781 5.4375C12.599 5.38542 12.625 5.34375 12.6562 5.3125C12.6875 5.27083 12.7135 5.22917 12.7344 5.1875C12.7552 5.13542 12.7812 5.08854 12.8125 5.04688C12.8438 5.00521 12.875 4.95833 12.9062 4.90625C12.9271 4.86458 12.9479 4.82292 12.9688 4.78125C12.9896 4.73958 13.0104 4.69271 13.0312 4.64062C13.0833 4.55729 13.1302 4.48438 13.1719 4.42188C13.224 4.34896 13.2708 4.27083 13.3125 4.1875C13.3333 4.14583 13.349 4.10938 13.3594 4.07812C13.3802 4.03646 13.401 3.99479 13.4219 3.95312C13.474 3.85938 13.5365 3.76562 13.6094 3.67188C13.6927 3.56771 13.7604 3.46875 13.8125 3.375C13.8646 3.22917 13.9167 3.11979 13.9688 3.04688C14 2.99479 14.0312 2.94792 14.0625 2.90625C14.1042 2.86458 14.1354 2.81771 14.1562 2.76562C14.1979 2.66146 14.224 2.60417 14.2344 2.59375C14.2552 2.58333 14.2708 2.56771 14.2812 2.54688C14.375 2.39062 14.4375 2.28646 14.4688 2.23438C14.5 2.18229 14.5312 2.125 14.5625 2.0625C14.6042 2.04167 14.6562 1.98958 14.7188 1.90625C14.7708 1.89583 14.8177 1.88021 14.8594 1.85938C14.9115 1.82812 14.9635 1.79688 15.0156 1.76562C15.1198 1.81771 15.2396 1.83854 15.375 1.82812C15.5104 1.81771 15.6302 1.83854 15.7344 1.89062C15.8177 1.86979 15.901 1.86979 15.9844 1.89062C16.0677 1.91146 16.151 1.92188 16.2344 1.92188C16.3073 1.92188 16.3698 1.91667 16.4219 1.90625C16.4844 1.89583 16.5469 1.88542 16.6094 1.875C16.6927 1.875 16.776 1.88021 16.8594 1.89062C16.9427 1.90104 17.0365 1.90625 17.1406 1.90625C17.2344 1.91667 17.3281 1.91667 17.4219 1.90625C17.5156 1.89583 17.6198 1.89583 17.7344 1.90625C17.9948 1.90625 18.2656 1.92188 18.5469 1.95312C18.5885 2.09896 18.6615 2.23438 18.7656 2.35938C18.8073 2.38021 18.8385 2.40625 18.8594 2.4375C18.8802 2.45833 18.9115 2.47917 18.9531 2.5C19.0156 2.52083 19.0729 2.53125 19.125 2.53125C19.1875 2.53125 19.2396 2.54688 19.2812 2.57812C19.3333 2.61979 19.3594 2.66667 19.3594 2.71875C19.3698 2.77083 19.401 2.82292 19.4531 2.875C19.4427 3.08333 19.4375 3.28646 19.4375 3.48438C19.4375 3.68229 19.4271 3.88021 19.4062 4.07812C19.3958 4.22396 19.3802 4.36979 19.3594 4.51562C19.349 4.66146 19.3438 4.80729 19.3438 4.95312C19.3646 5.10938 19.3646 5.22917 19.3438 5.3125C19.3333 5.38542 19.3281 5.46354 19.3281 5.54688C19.3177 5.67188 19.25 5.77604 19.125 5.85938C19.0104 5.94271 18.9323 6.02604 18.8906 6.10938C18.849 6.20312 18.849 6.30208 18.8906 6.40625C18.9323 6.51042 18.9635 6.60938 18.9844 6.70312C19.0781 6.78646 19.1406 6.875 19.1719 6.96875C19.2135 7.0625 19.2344 7.17188 19.2344 7.29688C19.2344 7.36979 19.2292 7.44271 19.2188 7.51562C19.2188 7.57812 19.2083 7.63021 19.1875 7.67188C19.1979 7.88021 19.1979 8.08333 19.1875 8.28125C19.1771 8.46875 19.1667 8.66667 19.1562 8.875C19.1458 8.95833 19.1354 9.04688 19.125 9.14062C19.1146 9.22396 19.1094 9.30729 19.1094 9.39062C19.099 9.52604 19.099 9.65625 19.1094 9.78125C19.1198 9.90625 19.1146 10.0417 19.0938 10.1875C18.9688 10.375 18.8854 10.5208 18.8438 10.625C18.8125 10.7292 18.7969 10.8438 18.7969 10.9688C18.7969 11.0833 18.8333 11.1719 18.9062 11.2344C18.9896 11.2865 19.0417 11.3698 19.0625 11.4844C19.0417 11.7552 19.026 12.0469 19.0156 12.3594C19.0052 12.6615 18.9896 12.9375 18.9688 13.1875C18.8646 13.2396 18.7552 13.2396 18.6406 13.1875C18.5573 13.1354 18.5052 13.1094 18.4844 13.1094C18.474 13.1094 18.4635 13.1042 18.4531 13.0938C18.4219 13.0729 18.3958 13.0521 18.375 13.0312C18.3542 13.0208 18.3281 13.0104 18.2969 13C18.2135 12.9896 18.1406 13.0156 18.0781 13.0781C18.0156 13.151 17.9531 13.2083 17.8906 13.25C17.8073 13.2708 17.7396 13.2917 17.6875 13.3125C17.5104 13.3021 17.3177 13.2917 17.1094 13.2812C16.9115 13.2812 16.724 13.2708 16.5469 13.25C16.474 13.2396 16.401 13.2396 16.3281 13.25C16.2552 13.2708 16.1771 13.2812 16.0938 13.2812C16 13.2812 15.901 13.2812 15.7969 13.2812C15.7031 13.2917 15.599 13.2917 15.4844 13.2812C15.4531 13.2812 15.4219 13.276 15.3906 13.2656C15.3698 13.2656 15.3438 13.2656 15.3125 13.2656C15.1979 13.276 15.0573 13.2969 14.8906 13.3281C14.7344 13.3594 14.5885 13.3333 14.4531 13.25C14.349 13.2396 14.2969 13.2135 14.2969 13.1719C14.2969 13.1406 14.2865 13.1094 14.2656 13.0781C14.2552 13.0469 14.2396 13.0156 14.2188 12.9844C14.2083 12.9531 14.1979 12.9219 14.1875 12.8906C14.1771 12.849 14.1719 12.8125 14.1719 12.7812C14.1719 12.7396 14.1615 12.6979 14.1406 12.6562C14.1198 12.5938 14.0781 12.5521 14.0156 12.5312C13.9531 12.5104 13.8958 12.4792 13.8438 12.4375C13.8229 12.2812 13.8229 12.1146 13.8438 11.9375C13.8646 11.75 13.901 11.5885 13.9531 11.4531C13.9323 11.2552 13.9271 11.0677 13.9375 10.8906C13.9583 10.7031 13.9688 10.5052 13.9688 10.2969C13.9688 9.94271 13.9948 9.60417 14.0469 9.28125C14.099 8.95833 14.1302 8.59896 14.1406 8.20312C14.151 8.06771 14.1615 7.93229 14.1719 7.79688C14.1823 7.66146 14.1875 7.52604 14.1875 7.39062C14.1042 7.53646 14.0208 7.68229 13.9375 7.82812C13.8646 7.96354 13.7865 8.10417 13.7031 8.25C13.6302 8.35417 13.5521 8.45833 13.4688 8.5625C13.3958 8.65625 13.3333 8.76042 13.2812 8.875C13.2604 8.96875 13.2292 9.04167 13.1875 9.09375C13.1458 9.13542 13.1146 9.19792 13.0938 9.28125C13.0208 9.38542 12.974 9.45833 12.9531 9.5C12.9323 9.54167 12.9115 9.58854 12.8906 9.64062C12.849 9.68229 12.8073 9.6875 12.7656 9.65625C12.7344 9.625 12.6927 9.61458 12.6406 9.625C12.5469 9.72917 12.4948 9.79688 12.4844 9.82812C12.4844 9.84896 12.474 9.90104 12.4531 9.98438C12.4115 10.151 12.4115 10.2552 12.4531 10.2969C12.4948 10.3385 12.5156 10.3802 12.5156 10.4219C12.5156 10.4635 12.4948 10.5156 12.4531 10.5781C12.4115 10.6406 12.3802 10.6979 12.3594 10.75C12.2135 10.9688 12.0729 11.2135 11.9375 11.4844C11.8542 11.6302 11.7917 11.7708 11.75 11.9062C11.6875 11.9583 11.6406 12.0208 11.6094 12.0938C11.5885 12.1562 11.5625 12.2188 11.5312 12.2812C11.4792 12.375 11.4219 12.4688 11.3594 12.5625C11.2969 12.6458 11.2396 12.7292 11.1875 12.8125C11.1146 12.9167 11.0729 12.9635 11.0625 12.9531C11.0521 12.9323 11.0417 12.9167 11.0312 12.9062C10.9583 12.9792 10.8594 13.0156 10.7344 13.0156C10.6198 13.0156 10.5365 12.974 10.4844 12.8906C10.401 12.901 10.3229 12.9167 10.25 12.9375C10.1875 12.9479 10.1146 12.9635 10.0312 12.9844C9.97917 13.0052 9.91667 13.0312 9.84375 13.0625C9.78125 13.1042 9.71354 13.1198 9.64062 13.1094C9.53646 13.0573 9.46875 13.0312 9.4375 13.0312C9.40625 13.0312 9.38021 13.026 9.35938 13.0156C9.27604 12.9635 9.21875 12.8958 9.1875 12.8125C9.16667 12.7188 9.13542 12.6146 9.09375 12.5C9.07292 12.4271 9.04167 12.3594 9 12.2969C8.95833 12.2344 8.92188 12.1615 8.89062 12.0781C8.80729 11.8698 8.71875 11.6615 8.625 11.4531C8.54167 11.2344 8.45833 11.0208 8.375 10.8125C8.35417 10.7812 8.33333 10.75 8.3125 10.7188C8.29167 10.6875 8.27083 10.651 8.25 10.6094C8.22917 10.5677 8.20833 10.4948 8.1875 10.3906C8.15625 10.3177 8.11979 10.25 8.07812 10.1875C8.03646 10.125 8.00521 10.0573 7.98438 9.98438C7.96354 9.92188 7.94792 9.85417 7.9375 9.78125C7.9375 9.70833 7.92708 9.63542 7.90625 9.5625C7.88542 9.47917 7.85938 9.40625 7.82812 9.34375C7.80729 9.27083 7.79688 9.20312 7.79688 9.14062C7.77604 8.88021 7.69271 8.69271 7.54688 8.57812C7.41146 8.45312 7.29688 8.33333 7.20312 8.21875C7.11979 8.01042 7.04688 7.80208 6.98438 7.59375C6.93229 7.375 6.86458 7.16667 6.78125 6.96875C6.76042 6.98958 6.75 7.01562 6.75 7.04688C6.75 7.07812 6.74479 7.11458 6.73438 7.15625C6.73438 7.27083 6.72396 7.38021 6.70312 7.48438C6.68229 7.57812 6.66667 7.67188 6.65625 7.76562C6.64583 7.86979 6.63542 7.97917 6.625 8.09375C6.61458 8.20833 6.60417 8.32292 6.59375 8.4375C6.58333 8.55208 6.57812 8.66146 6.57812 8.76562C6.57812 8.86979 6.56771 8.97396 6.54688 9.07812C6.53646 9.19271 6.53125 9.3125 6.53125 9.4375C6.53125 9.5625 6.52083 9.67708 6.5 9.78125C6.47917 9.84375 6.44792 9.90625 6.40625 9.96875C6.375 10.0312 6.33854 10.0938 6.29688 10.1562C6.25521 10.2083 6.22396 10.2708 6.20312 10.3438C6.18229 10.4062 6.1875 10.4792 6.21875 10.5625C6.22917 10.5833 6.25 10.6094 6.28125 10.6406C6.3125 10.6615 6.33854 10.6875 6.35938 10.7188C6.42188 10.8542 6.45312 10.9635 6.45312 11.0469C6.45312 11.1302 6.45312 11.2292 6.45312 11.3438C6.46354 11.5104 6.46875 11.6823 6.46875 11.8594C6.47917 12.0365 6.47396 12.2135 6.45312 12.3906C6.29688 12.4635 6.1875 12.526 6.125 12.5781C6.0625 12.6302 6 12.6823 5.9375 12.7344C5.86458 12.724 5.79167 12.724 5.71875 12.7344C5.64583 12.7448 5.57812 12.75 5.51562 12.75C5.28646 12.75 5.04688 12.7396 4.79688 12.7188C4.54688 12.6875 4.29688 12.651 4.04688 12.6094C3.96354 12.5885 3.90625 12.5729 3.875 12.5625C3.82292 12.5625 3.77604 12.5677 3.73438 12.5781C3.70312 12.5885 3.66146 12.5938 3.60938 12.5938C3.51562 12.5938 3.42188 12.5885 3.32812 12.5781C3.24479 12.5677 3.15625 12.5521 3.0625 12.5312C2.96875 12.5208 2.88021 12.5208 2.79688 12.5312C2.71354 12.5312 2.63021 12.526 2.54688 12.5156C2.41146 12.5052 2.28125 12.4948 2.15625 12.4844C2.04167 12.4635 1.93229 12.4167 1.82812 12.3438C1.79688 12.2708 1.73958 12.2188 1.65625 12.1875C1.58333 12.1458 1.50521 12.1146 1.42188 12.0938C1.35938 11.9896 1.3125 11.9167 1.28125 11.875C1.25 11.8333 1.22396 11.7917 1.20312 11.75C1.19271 11.6458 1.19792 11.5469 1.21875 11.4531C1.25 11.3594 1.26042 11.2656 1.25 11.1719C1.23958 11.0885 1.22917 11 1.21875 10.9062C1.21875 10.8021 1.21875 10.7083 1.21875 10.625C1.20833 10.5417 1.20833 10.4635 1.21875 10.3906C1.22917 10.3073 1.23958 10.224 1.25 10.1406C1.25 9.98438 1.24479 9.83854 1.23438 9.70312C1.23438 9.56771 1.24479 9.42708 1.26562 9.28125C1.26562 9.26042 1.27083 9.22917 1.28125 9.1875C1.30208 9.13542 1.32292 9.09896 1.34375 9.07812C1.45833 8.94271 1.52083 8.81771 1.53125 8.70312C1.54167 8.58854 1.57292 8.48438 1.625 8.39062C1.65625 8.09896 1.61458 7.85938 1.5 7.67188C1.47917 7.63021 1.45833 7.59896 1.4375 7.57812C1.41667 7.55729 1.40104 7.53125 1.39062 7.5C1.38021 7.44792 1.38021 7.375 1.39062 7.28125C1.40104 7.1875 1.40625 7.10938 1.40625 7.04688C1.40625 6.92188 1.41667 6.81771 1.4375 6.73438C1.46875 6.64062 1.50521 6.54688 1.54688 6.45312C1.56771 6.40104 1.57812 6.35417 1.57812 6.3125C1.58854 6.27083 1.59896 6.22917 1.60938 6.1875C1.63021 6.13542 1.65104 6.07812 1.67188 6.01562C1.69271 5.94271 1.6875 5.86979 1.65625 5.79688C1.64583 5.76562 1.63021 5.73958 1.60938 5.71875C1.58854 5.69792 1.56771 5.67708 1.54688 5.65625C1.51562 5.5625 1.5 5.46875 1.5 5.375C1.51042 5.27083 1.52083 5.17188 1.53125 5.07812C1.55208 4.91146 1.5625 4.73438 1.5625 4.54688C1.5625 4.35938 1.57292 4.18229 1.59375 4.01562C1.625 3.73438 1.64062 3.45312 1.64062 3.17188C1.64062 2.96354 1.63542 2.74479 1.625 2.51562C1.61458 2.27604 1.61979 2.03646 1.64062 1.79688C1.65104 1.73438 1.66146 1.67708 1.67188 1.625C1.69271 1.5625 1.70312 1.5 1.70312 1.4375C1.82812 1.34375 1.95833 1.28125 2.09375 1.25C2.23958 1.20833 2.35938 1.22917 2.45312 1.3125C2.53646 1.33333 2.60938 1.33854 2.67188 1.32812C2.73438 1.31771 2.79688 1.32812 2.85938 1.35938C2.94271 1.31771 3.00521 1.27083 3.04688 1.21875C3.09896 1.15625 3.15104 1.09896 3.20312 1.04688C3.27604 1.03646 3.34896 1.04167 3.42188 1.0625C3.49479 1.07292 3.57292 1.07812 3.65625 1.07812C3.72917 1.07812 3.79167 1.07292 3.84375 1.0625C3.90625 1.05208 3.96875 1.05208 4.03125 1.0625C4.08333 1.0625 4.13021 1.07292 4.17188 1.09375C4.21354 1.10417 4.26042 1.11979 4.3125 1.14062C4.45833 1.16146 4.59896 1.16667 4.73438 1.15625C4.86979 1.14583 5 1.15104 5.125 1.17188C5.23958 1.21354 5.31771 1.22917 5.35938 1.21875C5.41146 1.20833 5.46875 1.21875 5.53125 1.25C5.63542 1.22917 5.73438 1.23958 5.82812 1.28125C5.92188 1.32292 6.02083 1.34375 6.125 1.34375C6.27083 1.32292 6.39583 1.33333 6.5 1.375C6.61458 1.41667 6.73438 1.45312 6.85938 1.48438C7.00521 1.57812 7.10938 1.70833 7.17188 1.875C7.23438 2.04167 7.29167 2.21354 7.34375 2.39062C7.39583 2.44271 7.4375 2.5 7.46875 2.5625C7.51042 2.625 7.55729 2.6875 7.60938 2.75C7.67188 2.86458 7.73438 2.98438 7.79688 3.10938C7.85938 3.22396 7.92708 3.34375 8 3.46875C8.0625 3.58333 8.11979 3.71875 8.17188 3.875C8.23438 4.02083 8.29688 4.16146 8.35938 4.29688C8.42188 4.38021 8.44792 4.4375 8.4375 4.46875C8.4375 4.5 8.44792 4.52604 8.46875 4.54688C8.51042 4.65104 8.55208 4.75 8.59375 4.84375C8.64583 4.92708 8.69271 5.01042 8.73438 5.09375C8.75521 5.125 8.78125 5.16146 8.8125 5.20312C8.84375 5.23438 8.85938 5.26042 8.85938 5.28125C8.85938 5.33333 8.83854 5.39062 8.79688 5.45312C8.75521 5.50521 8.74479 5.57292 8.76562 5.65625C8.76562 5.67708 8.77604 5.70312 8.79688 5.73438C8.82812 5.76562 8.85417 5.79167 8.875 5.8125C8.91667 5.86458 8.96354 5.90625 9.01562 5.9375C9.06771 5.95833 9.13021 5.98958 9.20312 6.03125ZM4.6875 1.95312C4.625 1.92188 4.54167 1.89062 4.4375 1.85938C4.33333 1.82812 4.24479 1.83333 4.17188 1.875C4.13021 1.84375 4.08854 1.83333 4.04688 1.84375C4.00521 1.85417 3.95833 1.86458 3.90625 1.875C3.88542 1.95833 3.88542 2.02083 3.90625 2.0625C3.92708 2.10417 3.94792 2.14583 3.96875 2.1875C4.04167 2.22917 4.11979 2.24479 4.20312 2.23438C4.28646 2.22396 4.375 2.22396 4.46875 2.23438C4.52083 2.23438 4.56771 2.23958 4.60938 2.25C4.65104 2.25 4.69271 2.23958 4.73438 2.21875C4.75521 2.16667 4.75521 2.125 4.73438 2.09375C4.71354 2.05208 4.69792 2.00521 4.6875 1.95312ZM2.70312 2.39062C2.73438 2.34896 2.79688 2.3125 2.89062 2.28125C2.99479 2.25 3.07812 2.22917 3.14062 2.21875C3.20312 2.20833 3.25521 2.19792 3.29688 2.1875C3.34896 2.17708 3.38542 2.15104 3.40625 2.10938C3.42708 2.07812 3.42188 2.02604 3.39062 1.95312C3.35938 1.88021 3.32812 1.84375 3.29688 1.84375C3.16146 1.89583 3.01562 1.9375 2.85938 1.96875C2.71354 2 2.56771 1.98958 2.42188 1.9375C2.33854 2.19792 2.28125 2.42188 2.25 2.60938C2.21875 2.79688 2.23438 2.97917 2.29688 3.15625C2.42188 3.1875 2.50521 3.18229 2.54688 3.14062C2.58854 3.08854 2.61458 3.02083 2.625 2.9375C2.63542 2.85417 2.63542 2.76042 2.625 2.65625C2.625 2.55208 2.65104 2.46354 2.70312 2.39062ZM18.5469 3.48438C18.6198 3.48438 18.6667 3.45833 18.6875 3.40625C18.7083 3.34375 18.7083 3.28125 18.6875 3.21875C18.6771 3.15625 18.6458 3.10417 18.5938 3.0625C18.5521 3.01042 18.5 2.99479 18.4375 3.01562C18.375 3.03646 18.3229 3.07812 18.2812 3.14062C18.2396 3.20312 18.2188 3.27083 18.2188 3.34375C18.3021 3.41667 18.3594 3.46354 18.3906 3.48438C18.4323 3.49479 18.4844 3.49479 18.5469 3.48438ZM14.8906 5.82812C14.8594 5.82812 14.8073 5.84896 14.7344 5.89062C14.6719 5.93229 14.6354 5.96354 14.625 5.98438C14.5938 6.09896 14.6198 6.18229 14.7031 6.23438C14.7865 6.27604 14.849 6.32292 14.8906 6.375C14.9948 6.45833 15.0469 6.59896 15.0469 6.79688C15.0365 6.91146 15.0208 7.02083 15 7.125C14.9896 7.22917 14.9948 7.34375 15.0156 7.46875C15.1198 7.46875 15.1823 7.45833 15.2031 7.4375C15.2344 7.41667 15.2552 7.39583 15.2656 7.375C15.2865 7.25 15.2969 7.14583 15.2969 7.0625C15.2969 6.96875 15.3073 6.86458 15.3281 6.75C15.349 6.57292 15.3646 6.40625 15.375 6.25C15.3854 6.09375 15.3385 5.95833 15.2344 5.84375C15.1823 5.875 15.1302 5.88021 15.0781 5.85938C15.026 5.82812 14.9635 5.81771 14.8906 5.82812ZM15.2656 8.0625C15.2031 8.04167 15.1302 8.05208 15.0469 8.09375C14.9635 8.13542 14.9323 8.20312 14.9531 8.29688C15.0781 8.36979 15.1719 8.36979 15.2344 8.29688C15.3073 8.22396 15.3177 8.14583 15.2656 8.0625ZM9.48438 11.4844C9.45312 11.5365 9.4375 11.6094 9.4375 11.7031C9.44792 11.7865 9.46354 11.875 9.48438 11.9688C9.50521 12.0521 9.53646 12.125 9.57812 12.1875C9.63021 12.25 9.6875 12.2812 9.75 12.2812C9.8125 12.2812 9.85938 12.25 9.89062 12.1875C9.92188 12.125 9.95312 12.0677 9.98438 12.0156C9.91146 11.9115 9.84896 11.7969 9.79688 11.6719C9.75521 11.5469 9.65104 11.4844 9.48438 11.4844ZM4.84375 11.8281C4.78125 11.901 4.79167 11.9531 4.875 11.9844C4.95833 12.0156 5.02604 12.0417 5.07812 12.0625C5.19271 12.1146 5.27083 12.1302 5.3125 12.1094C5.36458 12.0885 5.41146 12.0885 5.45312 12.1094C5.70312 12.0781 5.81771 11.9375 5.79688 11.6875C5.79688 11.6354 5.78646 11.5833 5.76562 11.5312C5.74479 11.4792 5.73438 11.4271 5.73438 11.375C5.71354 11.2917 5.66667 11.2708 5.59375 11.3125C5.53125 11.3542 5.48438 11.3906 5.45312 11.4219C5.41146 11.4844 5.38542 11.5573 5.375 11.6406C5.36458 11.7135 5.33333 11.776 5.28125 11.8281C5.21875 11.849 5.14062 11.8438 5.04688 11.8125C4.96354 11.7708 4.89583 11.776 4.84375 11.8281ZM3.64062 11.6406C3.63021 11.6927 3.625 11.75 3.625 11.8125C3.625 11.8646 3.64583 11.9062 3.6875 11.9375C3.71875 11.9479 3.75521 11.9479 3.79688 11.9375C3.83854 11.9271 3.88021 11.9323 3.92188 11.9531C3.95312 11.901 3.97917 11.8542 4 11.8125C4.03125 11.7708 4.04688 11.7083 4.04688 11.625C3.98438 11.6146 3.91667 11.6094 3.84375 11.6094C3.77083 11.599 3.70312 11.6094 3.64062 11.6406ZM10.8281 12.1406C10.8385 12.0573 10.8177 12.0208 10.7656 12.0312C10.7135 12.0312 10.6615 12.0417 10.6094 12.0625C10.5885 12.1042 10.5625 12.1302 10.5312 12.1406C10.5 12.1406 10.4844 12.1667 10.4844 12.2188C10.5365 12.2604 10.6042 12.2708 10.6875 12.25C10.7708 12.2292 10.8177 12.1927 10.8281 12.1406ZM8.89062 3.29688C8.96354 3.31771 9.01562 3.34375 9.04688 3.375C9.08854 3.40625 9.13542 3.43229 9.1875 3.45312C9.22917 3.53646 9.25521 3.61979 9.26562 3.70312C9.27604 3.77604 9.25521 3.84896 9.20312 3.92188C9.23438 4.03646 9.28125 4.16146 9.34375 4.29688C9.40625 4.42188 9.46354 4.54167 9.51562 4.65625C9.53646 4.70833 9.57292 4.76562 9.625 4.82812C9.67708 4.88021 9.70312 4.93229 9.70312 4.98438C9.70312 5.07812 9.63542 5.15104 9.5 5.20312C9.375 5.24479 9.27604 5.22396 9.20312 5.14062C9.11979 5.02604 9.06771 4.88542 9.04688 4.71875C9.02604 4.55208 8.98958 4.39583 8.9375 4.25C8.89583 4.19792 8.86458 4.14583 8.84375 4.09375C8.83333 4.03125 8.8125 3.96875 8.78125 3.90625C8.76042 3.86458 8.73438 3.82812 8.70312 3.79688C8.67188 3.75521 8.64583 3.71354 8.625 3.67188C8.60417 3.61979 8.58333 3.57292 8.5625 3.53125C8.54167 3.48958 8.52083 3.44792 8.5 3.40625C8.46875 3.33333 8.43229 3.26042 8.39062 3.1875C8.34896 3.11458 8.30208 3.04167 8.25 2.96875C8.1875 2.86458 8.125 2.72917 8.0625 2.5625C8.04167 2.52083 8.02083 2.47917 8 2.4375C7.97917 2.39583 7.95312 2.35417 7.92188 2.3125C7.84896 2.19792 7.77604 2.07812 7.70312 1.95312C7.63021 1.82812 7.55208 1.70833 7.46875 1.59375C7.5 1.55208 7.53125 1.51562 7.5625 1.48438C7.59375 1.44271 7.65104 1.43229 7.73438 1.45312C7.84896 1.49479 7.94271 1.58333 8.01562 1.71875C8.09896 1.84375 8.18229 1.94271 8.26562 2.01562C8.34896 2.20312 8.43229 2.39062 8.51562 2.57812C8.60938 2.76562 8.71354 2.93229 8.82812 3.07812C8.83854 3.11979 8.84896 3.15625 8.85938 3.1875C8.86979 3.21875 8.88021 3.25521 8.89062 3.29688ZM19.2812 13.25C19.3021 13.3229 19.3177 13.3906 19.3281 13.4531C19.3385 13.5156 19.3385 13.5729 19.3281 13.625C19.3177 13.7188 19.2656 13.8073 19.1719 13.8906C19.0885 13.974 18.9948 14.0208 18.8906 14.0312C18.8594 14.0417 18.8281 14.0417 18.7969 14.0312C18.776 14.0208 18.75 14.0156 18.7188 14.0156C18.6042 13.9948 18.4844 13.9948 18.3594 14.0156C18.2344 14.0365 18.1094 14.0417 17.9844 14.0312C17.9219 13.9583 17.8854 13.875 17.875 13.7812C17.8646 13.6979 17.9062 13.625 18 13.5625C18.0521 13.5312 18.1198 13.5156 18.2031 13.5156C18.2865 13.5156 18.3698 13.526 18.4531 13.5469C18.6198 13.6094 18.7448 13.6354 18.8281 13.625C18.9115 13.6146 18.9792 13.5885 19.0312 13.5469C19.0729 13.4948 19.1042 13.4271 19.125 13.3438C19.1458 13.2604 19.1979 13.2292 19.2812 13.25ZM4.1875 13.4844C4.0625 13.4219 3.97917 13.3802 3.9375 13.3594C3.89583 13.3385 3.84896 13.3125 3.79688 13.2812C3.76562 13.2708 3.72917 13.2656 3.6875 13.2656C3.64583 13.2656 3.61458 13.2552 3.59375 13.2344C3.53125 13.1927 3.51562 13.1302 3.54688 13.0469C3.57812 12.9635 3.625 12.9167 3.6875 12.9062C3.84375 12.9271 3.97396 12.9375 4.07812 12.9375C4.19271 12.9271 4.30729 12.9271 4.42188 12.9375C4.52604 12.9792 4.59375 13.0312 4.625 13.0938C4.65625 13.1667 4.66667 13.2292 4.65625 13.2812C4.63542 13.3958 4.57812 13.4635 4.48438 13.4844C4.39062 13.5052 4.29167 13.5052 4.1875 13.4844ZM4.96875 13.4062C4.94792 13.375 4.9375 13.3281 4.9375 13.2656C4.94792 13.2031 4.96354 13.1615 4.98438 13.1406C5.03646 13.0885 5.09375 13.0573 5.15625 13.0469C5.22917 13.0469 5.30208 13.0521 5.375 13.0625C5.52083 13.0833 5.67188 13.0833 5.82812 13.0625C5.98438 13.0417 6.125 13.0417 6.25 13.0625C6.3125 13.0521 6.35938 13.0312 6.39062 13C6.42188 12.9792 6.45312 12.9531 6.48438 12.9219C6.51562 12.8906 6.54688 12.8646 6.57812 12.8438C6.61979 12.8229 6.66667 12.8177 6.71875 12.8281C6.78125 12.8385 6.83854 12.875 6.89062 12.9375C6.94271 13 6.95312 13.0625 6.92188 13.125C6.90104 13.1771 6.85938 13.2292 6.79688 13.2812C6.73438 13.3438 6.67708 13.3802 6.625 13.3906C6.55208 13.4115 6.45833 13.4115 6.34375 13.3906C6.23958 13.3802 6.14062 13.3802 6.04688 13.3906C5.85938 13.4115 5.72396 13.4167 5.64062 13.4062C5.56771 13.4062 5.48958 13.4115 5.40625 13.4219C5.32292 13.4219 5.24479 13.4271 5.17188 13.4375C5.10938 13.4479 5.04167 13.4375 4.96875 13.4062ZM12.25 12.3281C12.3021 12.4115 12.2969 12.5 12.2344 12.5938C12.1823 12.6771 12.1458 12.7604 12.125 12.8438C12.0938 12.8958 12.0573 12.9479 12.0156 13C11.9844 13.0521 11.9479 13.1094 11.9062 13.1719C11.8854 13.2135 11.8646 13.2552 11.8438 13.2969C11.8229 13.349 11.8021 13.3906 11.7812 13.4219C11.7292 13.474 11.6719 13.5208 11.6094 13.5625C11.5573 13.6146 11.5156 13.6719 11.4844 13.7344C11.3698 13.7552 11.224 13.7865 11.0469 13.8281C10.8698 13.8698 10.7083 13.8802 10.5625 13.8594C10.4792 13.8385 10.4115 13.7917 10.3594 13.7188C10.3177 13.6458 10.3125 13.5573 10.3438 13.4531C10.4896 13.3698 10.6406 13.3438 10.7969 13.375C10.9531 13.4062 11.1042 13.3958 11.25 13.3438C11.3125 13.3125 11.375 13.2656 11.4375 13.2031C11.5 13.1406 11.5677 13.0729 11.6406 13C11.724 12.9271 11.7812 12.8333 11.8125 12.7188C11.8229 12.6562 11.8229 12.599 11.8125 12.5469C11.8125 12.4948 11.8333 12.4479 11.875 12.4062C11.8958 12.3854 11.9271 12.375 11.9688 12.375C12.0208 12.3646 12.0677 12.349 12.1094 12.3281H12.25ZM22.3906 2.1875C22.3594 2.19792 22.3281 2.20312 22.2969 2.20312C22.2656 2.19271 22.2396 2.19271 22.2188 2.20312C22.1354 2.22396 22.0469 2.27604 21.9531 2.35938C21.8594 2.43229 21.7969 2.51562 21.7656 2.60938C21.724 2.74479 21.6979 2.88021 21.6875 3.01562C21.6771 3.15104 21.6146 3.26042 21.5 3.34375C21.4271 3.23958 21.375 3.125 21.3438 3C21.3125 2.875 21.3281 2.77083 21.3906 2.6875C21.4115 2.64583 21.4375 2.61979 21.4688 2.60938C21.5104 2.59896 21.5469 2.58333 21.5781 2.5625C21.6198 2.4375 21.6302 2.30729 21.6094 2.17188C21.5781 2.15104 21.5417 2.14062 21.5 2.14062C21.4583 2.14062 21.4271 2.125 21.4062 2.09375C21.4271 1.97917 21.4948 1.91667 21.6094 1.90625C21.7344 1.88542 21.8542 1.88542 21.9688 1.90625C22.1146 1.85417 22.2812 1.83854 22.4688 1.85938C22.6562 1.86979 22.8177 1.90104 22.9531 1.95312C23.0573 1.93229 23.1562 1.9375 23.25 1.96875C23.3438 2 23.4479 2.00521 23.5625 1.98438C23.5938 1.98438 23.6198 1.97917 23.6406 1.96875C23.6719 1.94792 23.7083 1.93229 23.75 1.92188C23.875 1.88021 24 1.91146 24.125 2.01562C24.0938 2.07812 24.0312 2.11979 23.9375 2.14062C23.8646 2.16146 23.7812 2.17708 23.6875 2.1875C23.6042 2.1875 23.526 2.19271 23.4531 2.20312C23.3385 2.23438 23.2656 2.24479 23.2344 2.23438C23.2031 2.22396 23.1771 2.21354 23.1562 2.20312C23.125 2.19271 23.0938 2.19271 23.0625 2.20312C23.0417 2.21354 23.0156 2.21354 22.9844 2.20312C22.9219 2.19271 22.8542 2.18229 22.7812 2.17188C22.7083 2.15104 22.6302 2.14583 22.5469 2.15625L22.3906 2.1875ZM31.2188 10.5938C31.2396 10.7083 31.224 10.8021 31.1719 10.875C31.1198 10.9375 31.0938 11.0104 31.0938 11.0938C31.0938 11.1667 31.1198 11.2396 31.1719 11.3125C31.2344 11.3854 31.2604 11.4635 31.25 11.5469C31.2292 11.6094 31.1667 11.6771 31.0625 11.75C30.9688 11.8229 30.8958 11.875 30.8438 11.9062C30.8229 11.9271 30.7969 11.9531 30.7656 11.9844C30.7448 12.0052 30.724 12.0156 30.7031 12.0156C30.651 12.026 30.599 12.026 30.5469 12.0156C30.4948 11.9948 30.4427 11.9792 30.3906 11.9688C30.2135 11.9688 30.026 11.9635 29.8281 11.9531C29.6302 11.9427 29.4375 11.9375 29.25 11.9375C29.2083 11.9375 29.1719 11.9427 29.1406 11.9531C29.1094 11.9531 29.0729 11.9531 29.0312 11.9531C28.9896 11.9531 28.9479 11.9531 28.9062 11.9531C28.8646 11.9427 28.8177 11.9375 28.7656 11.9375C28.651 11.9375 28.5312 11.9427 28.4062 11.9531C28.2917 11.9635 28.1771 11.9583 28.0625 11.9375C28.0104 11.9062 27.9479 11.8646 27.875 11.8125C27.8125 11.75 27.7396 11.7292 27.6562 11.75C27.6146 11.7604 27.5781 11.7812 27.5469 11.8125C27.5156 11.8333 27.4792 11.849 27.4375 11.8594C27.3854 11.8698 27.3177 11.8646 27.2344 11.8438C27.1615 11.8125 27.0833 11.7969 27 11.7969H26.8281C26.776 11.7865 26.724 11.7708 26.6719 11.75C26.6198 11.7188 26.5625 11.7031 26.5 11.7031C26.3854 11.6823 26.276 11.6875 26.1719 11.7188C26.1406 11.7188 26.1042 11.7292 26.0625 11.75C26.0312 11.7708 26 11.7812 25.9688 11.7812C25.9479 11.7917 25.9167 11.7917 25.875 11.7812C25.8333 11.7604 25.7917 11.7448 25.75 11.7344C25.6667 11.7135 25.5885 11.7083 25.5156 11.7188C25.4427 11.7188 25.375 11.7135 25.3125 11.7031C25.2292 11.6823 25.1562 11.6458 25.0938 11.5938C25.0417 11.5417 24.9844 11.4948 24.9219 11.4531C24.776 11.3594 24.6302 11.3542 24.4844 11.4375C24.349 11.5104 24.2396 11.5885 24.1562 11.6719C23.9792 11.6406 23.776 11.6406 23.5469 11.6719C23.3177 11.7031 23.1042 11.6823 22.9062 11.6094C22.8125 11.599 22.7188 11.5938 22.625 11.5938C22.5417 11.5938 22.4583 11.5833 22.375 11.5625C22.2917 11.5417 22.2031 11.4792 22.1094 11.375C22.0156 11.2708 21.9583 11.1771 21.9375 11.0938C21.9271 11.0625 21.9271 11.026 21.9375 10.9844C21.9479 10.9427 21.9479 10.901 21.9375 10.8594C21.9271 10.8073 21.9167 10.7656 21.9062 10.7344C21.8958 10.6927 21.8906 10.651 21.8906 10.6094L21.9844 10.4219C22.0156 10.3594 22.0417 10.3021 22.0625 10.25C22.0833 10.1979 22.1146 10.1458 22.1562 10.0938C22.1146 10.0104 22.0781 9.94271 22.0469 9.89062C22.026 9.83854 21.9948 9.77604 21.9531 9.70312C21.9115 9.65104 21.8802 9.61458 21.8594 9.59375C21.8385 9.57292 21.8281 9.52604 21.8281 9.45312C21.8281 9.36979 21.8385 9.28646 21.8594 9.20312C21.8802 9.11979 21.901 9.03646 21.9219 8.95312C21.9427 8.86979 21.9531 8.78125 21.9531 8.6875C21.9635 8.58333 21.974 8.48958 21.9844 8.40625C21.9948 8.3125 22 8.21875 22 8.125C22.0104 8.03125 22.026 7.94271 22.0469 7.85938C22.0677 7.80729 22.0885 7.76562 22.1094 7.73438C22.1406 7.69271 22.1562 7.64583 22.1562 7.59375C22.1562 7.53125 22.1354 7.47396 22.0938 7.42188C22.0625 7.36979 22.0469 7.30729 22.0469 7.23438C22.0365 7.16146 22.0365 7.08333 22.0469 7C22.0677 6.90625 22.0781 6.81771 22.0781 6.73438C22.0781 6.69271 22.0729 6.65625 22.0625 6.625C22.0625 6.59375 22.0625 6.56771 22.0625 6.54688C22.0833 6.48438 22.1146 6.43229 22.1562 6.39062C22.1979 6.33854 22.2344 6.27604 22.2656 6.20312C22.3385 6.05729 22.375 5.90625 22.375 5.75C22.3854 5.58333 22.3542 5.43229 22.2812 5.29688C22.2604 5.25521 22.2292 5.21875 22.1875 5.1875C22.1458 5.15625 22.1146 5.11458 22.0938 5.0625C22.0729 5.01042 22.0677 4.95312 22.0781 4.89062C22.099 4.81771 22.1146 4.73958 22.125 4.65625C22.1354 4.55208 22.1354 4.44792 22.125 4.34375C22.125 4.22917 22.1302 4.13021 22.1406 4.04688C22.1719 3.82812 22.1823 3.65104 22.1719 3.51562C22.1615 3.38021 22.1771 3.25521 22.2188 3.14062C22.2396 3.04688 22.276 2.96875 22.3281 2.90625C22.3802 2.84375 22.4375 2.77604 22.5 2.70312C22.6562 2.61979 22.8229 2.57812 23 2.57812C23.1875 2.56771 23.375 2.57292 23.5625 2.59375C23.6562 2.60417 23.776 2.61979 23.9219 2.64062C24.0677 2.65104 24.1927 2.65625 24.2969 2.65625C24.349 2.65625 24.4115 2.65625 24.4844 2.65625C24.5573 2.65625 24.6354 2.66667 24.7188 2.6875C24.7708 2.70833 24.8125 2.73958 24.8438 2.78125C24.875 2.82292 24.9167 2.85417 24.9688 2.875C25 2.89583 25.0365 2.91667 25.0781 2.9375C25.1198 2.94792 25.151 2.95833 25.1719 2.96875C25.349 3 25.4948 2.97396 25.6094 2.89062C25.724 2.79688 25.8542 2.73958 26 2.71875C26.0833 2.75 26.1667 2.76562 26.25 2.76562C26.3438 2.75521 26.4323 2.75521 26.5156 2.76562C26.6198 2.77604 26.7135 2.79167 26.7969 2.8125C26.8906 2.83333 26.9844 2.84375 27.0781 2.84375H27.4844C27.5781 2.84375 27.651 2.84896 27.7031 2.85938C27.7344 2.85938 27.7708 2.85417 27.8125 2.84375C27.8542 2.83333 27.8906 2.83333 27.9219 2.84375C28.0469 2.91667 28.1354 2.94792 28.1875 2.9375C28.2396 2.92708 28.2969 2.93229 28.3594 2.95312C28.3906 2.93229 28.4167 2.90625 28.4375 2.875C28.4583 2.84375 28.4844 2.82292 28.5156 2.8125C28.5677 2.79167 28.625 2.78646 28.6875 2.79688C28.7604 2.80729 28.8229 2.8125 28.875 2.8125C29.1562 2.8125 29.4479 2.82292 29.75 2.84375C30.0521 2.86458 30.3385 2.875 30.6094 2.875C30.6615 2.90625 30.7135 2.93229 30.7656 2.95312C30.8177 2.97396 30.8542 3.01562 30.875 3.07812C30.8958 3.17188 30.8958 3.27083 30.875 3.375C30.8542 3.47917 30.8177 3.55729 30.7656 3.60938C30.724 3.74479 30.7396 3.85417 30.8125 3.9375C30.8958 4.02083 30.9531 4.10417 30.9844 4.1875C31.0052 4.36458 31.0208 4.48438 31.0312 4.54688C31.0521 4.60938 31.0365 4.67188 30.9844 4.73438C30.9323 4.73438 30.8802 4.75 30.8281 4.78125C30.7865 4.80208 30.7396 4.8125 30.6875 4.8125C30.625 4.82292 30.5573 4.82292 30.4844 4.8125C30.4219 4.79167 30.3542 4.78125 30.2812 4.78125C30.0729 4.77083 29.8385 4.76042 29.5781 4.75C29.3177 4.72917 29.0833 4.71875 28.875 4.71875C28.7188 4.70833 28.5573 4.70833 28.3906 4.71875C28.2344 4.72917 28.099 4.72396 27.9844 4.70312C27.9531 4.69271 27.9167 4.67708 27.875 4.65625C27.8438 4.625 27.8125 4.60417 27.7812 4.59375C27.7083 4.57292 27.6406 4.58333 27.5781 4.625C27.5156 4.66667 27.4531 4.66146 27.3906 4.60938C27.2448 4.63021 27.0885 4.63542 26.9219 4.625C26.7552 4.60417 26.6042 4.61458 26.4688 4.65625C26.4167 4.71875 26.3854 4.80729 26.375 4.92188C26.375 5.02604 26.3646 5.13021 26.3438 5.23438C26.3021 5.35938 26.2812 5.4375 26.2812 5.46875C26.2917 5.48958 26.2865 5.51042 26.2656 5.53125C26.2448 5.58333 26.2135 5.625 26.1719 5.65625C26.1406 5.67708 26.1198 5.71354 26.1094 5.76562C26.1094 5.83854 26.1354 5.88542 26.1875 5.90625C26.25 5.92708 26.2969 5.96354 26.3281 6.01562C26.3073 6.09896 26.3021 6.19271 26.3125 6.29688C26.3229 6.39062 26.3594 6.44792 26.4219 6.46875C26.5781 6.46875 26.6875 6.47396 26.75 6.48438C26.8229 6.48438 26.8854 6.48438 26.9375 6.48438C27.0104 6.48438 27.099 6.48438 27.2031 6.48438C27.3073 6.47396 27.3854 6.48958 27.4375 6.53125C27.4583 6.55208 27.474 6.58333 27.4844 6.625C27.5052 6.65625 27.5365 6.6875 27.5781 6.71875C27.599 6.72917 27.6354 6.74479 27.6875 6.76562C27.7396 6.78646 27.7865 6.79167 27.8281 6.78125C27.8802 6.77083 27.9271 6.75 27.9688 6.71875C28.0104 6.67708 28.0573 6.64583 28.1094 6.625C28.1615 6.60417 28.2188 6.59896 28.2812 6.60938C28.3542 6.60938 28.4271 6.60417 28.5 6.59375C28.6458 6.58333 28.75 6.58854 28.8125 6.60938C28.875 6.61979 28.9375 6.63021 29 6.64062C29.0521 6.64062 29.1042 6.64062 29.1562 6.64062C29.2188 6.64062 29.276 6.64583 29.3281 6.65625C29.4635 6.6875 29.6146 6.70833 29.7812 6.71875C29.9479 6.71875 30.099 6.70833 30.2344 6.6875C30.3281 6.70833 30.4115 6.73958 30.4844 6.78125C30.5677 6.8125 30.625 6.86458 30.6562 6.9375C30.6771 6.97917 30.6979 7.05729 30.7188 7.17188C30.7396 7.27604 30.7396 7.36458 30.7188 7.4375C30.7083 7.48958 30.6875 7.54167 30.6562 7.59375C30.625 7.63542 30.6094 7.68229 30.6094 7.73438C30.599 7.80729 30.6042 7.88542 30.625 7.96875C30.6562 8.04167 30.6615 8.11458 30.6406 8.1875C30.6302 8.22917 30.6094 8.26042 30.5781 8.28125C30.5469 8.30208 30.5208 8.32812 30.5 8.35938C30.4062 8.40104 30.276 8.41146 30.1094 8.39062C29.9427 8.35938 29.7917 8.34375 29.6562 8.34375H29.4531C29.349 8.34375 29.2396 8.34896 29.125 8.35938C29.0208 8.36979 28.9167 8.38021 28.8125 8.39062C28.75 8.39062 28.6823 8.38542 28.6094 8.375C28.5469 8.36458 28.4844 8.35938 28.4219 8.35938C28.3594 8.35938 28.2917 8.36979 28.2188 8.39062C28.1562 8.40104 28.099 8.40104 28.0469 8.39062C27.9948 8.38021 27.9427 8.35417 27.8906 8.3125C27.849 8.27083 27.8021 8.25 27.75 8.25C27.7083 8.25 27.6719 8.26042 27.6406 8.28125C27.6094 8.30208 27.5781 8.31771 27.5469 8.32812C27.349 8.38021 27.1354 8.39583 26.9062 8.375C26.6875 8.34375 26.4844 8.35417 26.2969 8.40625C26.2031 8.63542 26.1458 8.86979 26.125 9.10938C26.1146 9.34896 26.1042 9.59896 26.0938 9.85938C26.1667 9.93229 26.25 9.97917 26.3438 10C26.4479 10.0104 26.5521 10.0104 26.6562 10C26.7604 9.98958 26.8646 9.97917 26.9688 9.96875C27.0833 9.95833 27.1979 9.95833 27.3125 9.96875C27.3646 9.96875 27.4167 9.97917 27.4688 10C27.5208 10.0208 27.5729 10.0312 27.625 10.0312C27.6875 10.0417 27.7448 10.0469 27.7969 10.0469C27.8594 10.0365 27.9271 10.0365 28 10.0469C28.0521 10.0469 28.1042 10.0521 28.1562 10.0625C28.2083 10.0625 28.2604 10.0625 28.3125 10.0625C28.3646 10.0729 28.4219 10.0781 28.4844 10.0781C28.5469 10.0677 28.6042 10.0677 28.6562 10.0781C28.7188 10.0885 28.7656 10.1146 28.7969 10.1562C28.8385 10.1875 28.8854 10.2135 28.9375 10.2344C29.0417 10.276 29.1458 10.2969 29.25 10.2969C29.3333 10.2969 29.4115 10.276 29.4844 10.2344C29.5677 10.1823 29.651 10.1458 29.7344 10.125C29.7865 10.125 29.849 10.1302 29.9219 10.1406C30.0052 10.1406 30.0833 10.1458 30.1562 10.1562C30.2708 10.1667 30.3854 10.1719 30.5 10.1719C30.625 10.1615 30.7344 10.1667 30.8281 10.1875C30.9323 10.2083 31.0156 10.25 31.0781 10.3125C31.151 10.375 31.1979 10.4688 31.2188 10.5938ZM22.9375 3.45312C22.9375 3.55729 22.9271 3.63021 22.9062 3.67188C22.8958 3.70312 22.8906 3.73438 22.8906 3.76562C22.8906 3.82812 22.8854 3.89062 22.875 3.95312C22.875 4.01562 22.8854 4.06771 22.9062 4.10938C23.0208 4.07812 23.0729 4.04688 23.0625 4.01562C23.0625 3.97396 23.0625 3.9375 23.0625 3.90625C23.0938 3.76042 23.1615 3.65625 23.2656 3.59375C23.3802 3.52083 23.4635 3.41667 23.5156 3.28125C23.4323 3.17708 23.3229 3.14583 23.1875 3.1875C23.0521 3.22917 22.9688 3.31771 22.9375 3.45312ZM22.9219 9.4375C22.9427 9.35417 22.9479 9.27083 22.9375 9.1875C22.9375 9.09375 22.9167 9.00521 22.875 8.92188C22.7917 8.91146 22.7292 8.94271 22.6875 9.01562C22.6562 9.08854 22.6406 9.16667 22.6406 9.25C22.6406 9.33333 22.6615 9.40104 22.7031 9.45312C22.7552 9.50521 22.8281 9.5 22.9219 9.4375ZM22.875 10.9531C22.9375 10.9635 23.0156 10.9792 23.1094 11C23.2135 11.0104 23.3073 11.0156 23.3906 11.0156C23.4844 11.0156 23.5625 11.0052 23.625 10.9844C23.6979 10.9531 23.7344 10.8958 23.7344 10.8125C23.6823 10.75 23.6042 10.7083 23.5 10.6875C23.4062 10.6562 23.3125 10.6458 23.2188 10.6562C23.1458 10.5833 23.0833 10.5 23.0312 10.4062C22.9896 10.3021 22.974 10.1875 22.9844 10.0625C22.9323 10.0104 22.8854 10.0052 22.8438 10.0469C22.8021 10.0781 22.7708 10.1094 22.75 10.1406C22.7083 10.1927 22.6771 10.2656 22.6562 10.3594C22.6458 10.4531 22.6302 10.5417 22.6094 10.625C22.5781 10.7812 22.5938 10.875 22.6562 10.9062C22.7292 10.9271 22.8021 10.9427 22.875 10.9531ZM25.7812 4.17188C25.7604 4.20312 25.7448 4.24479 25.7344 4.29688C25.724 4.34896 25.7188 4.40104 25.7188 4.45312C25.7188 4.50521 25.724 4.55729 25.7344 4.60938C25.7552 4.65104 25.7865 4.67708 25.8281 4.6875C25.8802 4.69792 25.9115 4.68229 25.9219 4.64062C25.9427 4.59896 25.974 4.56771 26.0156 4.54688C26.0469 4.48438 26.0781 4.42708 26.1094 4.375C26.1406 4.3125 26.1823 4.25521 26.2344 4.20312C26.2656 4.17188 26.3021 4.14583 26.3438 4.125C26.3958 4.10417 26.4323 4.07292 26.4531 4.03125C26.3177 4.02083 26.2031 4 26.1094 3.96875C26.026 3.9375 25.9375 3.96875 25.8438 4.0625L25.7812 4.17188ZM25.5938 9.15625C25.6562 9.15625 25.6927 9.125 25.7031 9.0625C25.7135 8.98958 25.7083 8.92188 25.6875 8.85938C25.6458 8.86979 25.6042 8.88542 25.5625 8.90625C25.5208 8.92708 25.4948 8.95833 25.4844 9C25.474 9.04167 25.4792 9.07812 25.5 9.10938C25.5312 9.14062 25.5625 9.15625 25.5938 9.15625ZM26.1094 7.92188C26.1302 7.89062 26.151 7.86458 26.1719 7.84375C26.1927 7.82292 26.1875 7.78646 26.1562 7.73438C26.0938 7.71354 26.0156 7.69271 25.9219 7.67188C25.8385 7.65104 25.776 7.66667 25.7344 7.71875C25.6927 7.82292 25.6562 7.93229 25.625 8.04688C25.5938 8.16146 25.5677 8.27604 25.5469 8.39062C25.6927 8.33854 25.8073 8.26562 25.8906 8.17188C25.974 8.06771 26.0469 7.98438 26.1094 7.92188ZM29.9375 11.4531C30.0521 11.5052 30.1615 11.5156 30.2656 11.4844C30.3802 11.4531 30.4479 11.375 30.4688 11.25C30.3125 11.1458 30.1823 11.125 30.0781 11.1875C29.9844 11.2396 29.9375 11.3281 29.9375 11.4531ZM31.4688 3.96875C31.4479 4.01042 31.4115 4.03646 31.3594 4.04688C31.3177 4.04688 31.2708 4.05208 31.2188 4.0625C31.1771 4 31.1458 3.94271 31.125 3.89062C31.1042 3.82812 31.1042 3.75521 31.125 3.67188C31.1354 3.61979 31.1615 3.57812 31.2031 3.54688C31.2552 3.50521 31.2812 3.45833 31.2812 3.40625C31.2917 3.33333 31.276 3.27604 31.2344 3.23438C31.2031 3.18229 31.1875 3.11979 31.1875 3.04688C31.3646 2.98438 31.4688 3.00521 31.5 3.10938C31.5417 3.21354 31.5573 3.30729 31.5469 3.39062C31.5469 3.42188 31.5417 3.45833 31.5312 3.5C31.5208 3.53125 31.5156 3.56771 31.5156 3.60938C31.5052 3.68229 31.5 3.75 31.5 3.8125C31.5 3.875 31.4896 3.92708 31.4688 3.96875ZM21.2969 3.64062C21.349 3.63021 21.3906 3.625 21.4219 3.625C21.4531 3.625 21.4792 3.65104 21.5 3.70312C21.5104 3.86979 21.5156 4.03646 21.5156 4.20312C21.5156 4.35938 21.4792 4.5 21.4062 4.625C21.2396 4.60417 21.1667 4.54688 21.1875 4.45312C21.2083 4.34896 21.2135 4.25521 21.2031 4.17188C21.1302 4.10938 21.1094 4.02083 21.1406 3.90625C21.1823 3.79167 21.2344 3.70312 21.2969 3.64062ZM27.6562 5.17188C27.6458 5.09896 27.6562 5.04688 27.6875 5.01562C27.7292 4.98438 27.776 4.96875 27.8281 4.96875C27.8906 4.95833 27.9479 4.96875 28 5C28.0625 5.02083 28.1042 5.04688 28.125 5.07812C28.1042 5.16146 28.0365 5.21354 27.9219 5.23438C27.8073 5.24479 27.7188 5.22396 27.6562 5.17188ZM26.9062 4.96875C26.9896 4.94792 27.1042 4.9375 27.25 4.9375C27.3958 4.92708 27.4948 4.95833 27.5469 5.03125C27.4219 5.14583 27.3021 5.21875 27.1875 5.25C27.0833 5.28125 27.0052 5.33854 26.9531 5.42188C26.9427 5.50521 26.9115 5.57812 26.8594 5.64062C26.7656 5.59896 26.7135 5.54688 26.7031 5.48438C26.6927 5.41146 26.6927 5.33854 26.7031 5.26562C26.7135 5.19271 26.7344 5.13021 26.7656 5.07812C26.7969 5.01562 26.8438 4.97917 26.9062 4.96875ZM31.7188 10.1562C31.7812 10.1979 31.849 10.2448 31.9219 10.2969C32.0052 10.3385 32.0208 10.4167 31.9688 10.5312C31.8438 10.625 31.7552 10.625 31.7031 10.5312C31.6615 10.4375 31.6302 10.3385 31.6094 10.2344C31.5885 10.1198 31.5208 10.0365 31.4062 9.98438C31.3021 9.93229 31.1823 9.89583 31.0469 9.875C30.974 9.875 30.901 9.88542 30.8281 9.90625C30.7656 9.91667 30.7031 9.91667 30.6406 9.90625C30.4948 9.86458 30.3906 9.84375 30.3281 9.84375C30.276 9.84375 30.224 9.83854 30.1719 9.82812C30.1406 9.82812 30.0938 9.83333 30.0312 9.84375C29.9688 9.84375 29.9115 9.84375 29.8594 9.84375C29.8073 9.84375 29.7604 9.83333 29.7188 9.8125C29.6875 9.79167 29.6823 9.75521 29.7031 9.70312C29.849 9.65104 30.0052 9.63542 30.1719 9.65625C30.349 9.66667 30.526 9.68229 30.7031 9.70312C30.7448 9.71354 30.8021 9.71875 30.875 9.71875C30.9375 9.70833 30.9948 9.69271 31.0469 9.67188C31.1094 9.64062 31.1771 9.64062 31.25 9.67188C31.2812 9.64062 31.3229 9.63021 31.375 9.64062C31.4375 9.65104 31.4948 9.65104 31.5469 9.64062C31.6302 9.68229 31.6667 9.71354 31.6562 9.73438C31.6562 9.75521 31.6615 9.78125 31.6719 9.8125C31.7135 9.94792 31.7292 10.0312 31.7188 10.0625C31.7083 10.0938 31.7083 10.125 31.7188 10.1562ZM31.6875 10.8594C31.7917 10.9948 31.8438 11.1198 31.8438 11.2344C31.8438 11.349 31.8229 11.4427 31.7812 11.5156C31.6042 11.5677 31.5312 11.4635 31.5625 11.2031C31.5625 11.1615 31.5781 11.099 31.6094 11.0156C31.6406 10.9219 31.6667 10.8698 31.6875 10.8594ZM34.9844 2.14062C34.9323 2.14062 34.8854 2.125 34.8438 2.09375C34.8021 2.05208 34.7708 2.01562 34.75 1.98438C34.8229 1.84896 34.8906 1.78125 34.9531 1.78125C35.0156 1.78125 35.0781 1.79167 35.1406 1.8125C35.2135 1.83333 35.2865 1.85417 35.3594 1.875C35.4323 1.89583 35.5 1.90104 35.5625 1.89062C35.6146 1.88021 35.6823 1.85417 35.7656 1.8125C35.849 1.76042 35.9219 1.78646 35.9844 1.89062C35.8698 1.98438 35.7812 2.03646 35.7188 2.04688C35.6562 2.05729 35.5885 2.05729 35.5156 2.04688C35.474 2.04688 35.4323 2.04167 35.3906 2.03125C35.349 2.02083 35.3073 2.02083 35.2656 2.03125C35.2135 2.03125 35.1615 2.05208 35.1094 2.09375C35.0677 2.125 35.026 2.14062 34.9844 2.14062ZM34.0938 2.21875C33.9792 2.23958 33.8906 2.29167 33.8281 2.375C33.776 2.44792 33.7188 2.52083 33.6562 2.59375C33.6146 2.6875 33.5885 2.79688 33.5781 2.92188C33.5677 3.03646 33.5156 3.10938 33.4219 3.14062C33.3802 2.98438 33.3698 2.85938 33.3906 2.76562C33.4219 2.66146 33.4375 2.55729 33.4375 2.45312C33.4479 2.35938 33.4479 2.26562 33.4375 2.17188C33.4271 2.06771 33.4479 1.96875 33.5 1.875C33.6458 1.84375 33.724 1.84896 33.7344 1.89062C33.7552 1.93229 33.7917 1.96354 33.8438 1.98438C33.9062 2.00521 33.9531 1.99479 33.9844 1.95312C34.026 1.90104 34.0729 1.86458 34.125 1.84375C34.2604 1.77083 34.3854 1.78646 34.5 1.89062C34.5417 1.94271 34.5781 1.97396 34.6094 1.98438C34.6406 1.98438 34.651 2.00521 34.6406 2.04688C34.6406 2.09896 34.599 2.125 34.5156 2.125C34.4323 2.125 34.3646 2.125 34.3125 2.125C34.1979 2.15625 34.125 2.1875 34.0938 2.21875ZM44.4531 2.84375C44.3802 2.80208 44.3646 2.75 44.4062 2.6875C44.4479 2.61458 44.5104 2.57292 44.5938 2.5625C44.6667 2.55208 44.7344 2.55729 44.7969 2.57812C44.8698 2.59896 44.9531 2.60938 45.0469 2.60938C45.1198 2.60938 45.1875 2.60938 45.25 2.60938C45.3229 2.60938 45.3854 2.63542 45.4375 2.6875C45.4896 2.72917 45.5156 2.77604 45.5156 2.82812C45.526 2.88021 45.5208 2.9375 45.5 3C45.4792 3.0625 45.4531 3.13021 45.4219 3.20312C45.401 3.26562 45.3906 3.32812 45.3906 3.39062C45.3698 3.41146 45.3438 3.42708 45.3125 3.4375C45.2812 3.44792 45.25 3.46875 45.2188 3.5C45.1667 3.46875 45.151 3.42708 45.1719 3.375C45.1927 3.32292 45.2031 3.27604 45.2031 3.23438C45.2135 3.18229 45.2083 3.13542 45.1875 3.09375C45.1771 3.05208 45.1719 3.01042 45.1719 2.96875C45.0885 2.86458 44.9792 2.82812 44.8438 2.85938C44.7188 2.88021 44.5885 2.875 44.4531 2.84375ZM40.2656 3.57812C40.2656 3.52604 40.2708 3.47917 40.2812 3.4375C40.3021 3.38542 40.2969 3.33333 40.2656 3.28125C40.2865 3.19792 40.2917 3.10938 40.2812 3.01562C40.2812 2.92188 40.3021 2.84896 40.3438 2.79688C40.3646 2.74479 40.4062 2.70312 40.4688 2.67188C40.5312 2.63021 40.5938 2.60938 40.6562 2.60938C40.7292 2.59896 40.7917 2.60938 40.8438 2.64062C40.9062 2.66146 40.9479 2.70833 40.9688 2.78125C40.9271 2.82292 40.875 2.85417 40.8125 2.875C40.7604 2.88542 40.7083 2.90104 40.6562 2.92188C40.6667 3.09896 40.6615 3.27604 40.6406 3.45312C40.6302 3.63021 40.6146 3.81771 40.5938 4.01562C40.5104 4.04688 40.4635 4.0625 40.4531 4.0625C40.4427 4.0625 40.4323 4.05729 40.4219 4.04688C40.3906 3.98438 40.3542 3.91146 40.3125 3.82812C40.2812 3.74479 40.2656 3.66146 40.2656 3.57812ZM43.8438 11.9375C43.7917 11.9479 43.7448 11.9375 43.7031 11.9062C43.6719 11.875 43.6354 11.8594 43.5938 11.8594C43.5104 11.849 43.4479 11.8594 43.4062 11.8906C43.3646 11.9219 43.3177 11.9479 43.2656 11.9688C42.9323 11.9583 42.5885 11.9583 42.2344 11.9688C41.8906 11.9688 41.5625 11.9167 41.25 11.8125C41.2188 11.7604 41.1875 11.7135 41.1562 11.6719C41.125 11.6302 41.0885 11.5833 41.0469 11.5312C41.026 11.4896 40.9948 11.4427 40.9531 11.3906C40.9115 11.3281 40.8854 11.2708 40.875 11.2188C40.875 11.1771 40.8854 11.1458 40.9062 11.125C40.9271 11.1042 40.9427 11.0781 40.9531 11.0469C40.974 10.9635 40.974 10.8698 40.9531 10.7656C40.9427 10.6615 40.9219 10.5833 40.8906 10.5312C40.8385 10.4583 40.776 10.4115 40.7031 10.3906C40.6302 10.3594 40.5625 10.3125 40.5 10.25C40.4583 10.1042 40.4167 9.96875 40.375 9.84375C40.3229 9.79167 40.2708 9.75 40.2188 9.71875C40.1667 9.67708 40.0938 9.64583 40 9.625C39.9062 9.57292 39.8385 9.51042 39.7969 9.4375C39.7656 9.36458 39.724 9.27083 39.6719 9.15625C39.6302 9.08333 39.5833 9.02083 39.5312 8.96875C39.4896 8.90625 39.4688 8.82292 39.4688 8.71875C39.4688 8.66667 39.474 8.61979 39.4844 8.57812C39.5052 8.52604 39.5104 8.47396 39.5 8.42188C39.4896 8.34896 39.4531 8.27604 39.3906 8.20312C39.3281 8.13021 39.2448 8.09896 39.1406 8.10938C39.0573 8.06771 38.9948 7.98438 38.9531 7.85938C38.9219 7.73438 38.8802 7.63021 38.8281 7.54688C38.7448 7.36979 38.6406 7.20833 38.5156 7.0625C38.4115 6.88542 38.3229 6.71354 38.25 6.54688C38.1771 6.38021 38.0833 6.22396 37.9688 6.07812C37.9375 6.01562 37.901 5.95312 37.8594 5.89062C37.8281 5.95312 37.8073 6.02083 37.7969 6.09375C37.7969 6.15625 37.7865 6.22917 37.7656 6.3125C37.7448 6.39583 37.7188 6.48438 37.6875 6.57812C37.6562 6.67188 37.6458 6.75 37.6562 6.8125C37.6979 6.9375 37.7135 7.01562 37.7031 7.04688C37.6927 7.06771 37.6875 7.09375 37.6875 7.125C37.6771 7.21875 37.6771 7.32292 37.6875 7.4375C37.6979 7.55208 37.6979 7.66146 37.6875 7.76562C37.6562 8.00521 37.6562 8.1875 37.6875 8.3125C37.7188 8.4375 37.7135 8.5625 37.6719 8.6875C37.6198 8.78125 37.5938 8.83854 37.5938 8.85938C37.5938 8.88021 37.5885 8.90104 37.5781 8.92188C37.5573 8.97396 37.5312 9.02083 37.5 9.0625C37.4688 9.09375 37.4427 9.14062 37.4219 9.20312C37.4115 9.23438 37.401 9.27604 37.3906 9.32812C37.3906 9.38021 37.3958 9.42708 37.4062 9.46875C37.4062 9.52083 37.4219 9.5625 37.4531 9.59375C37.4844 9.625 37.5052 9.65625 37.5156 9.6875C37.526 9.73958 37.526 9.79688 37.5156 9.85938C37.5156 9.92188 37.5156 9.98958 37.5156 10.0625C37.5156 10.125 37.5156 10.1875 37.5156 10.25C37.526 10.3125 37.5312 10.3698 37.5312 10.4219C37.5312 10.5052 37.526 10.6042 37.5156 10.7188C37.5052 10.8333 37.4896 10.9531 37.4688 11.0781C37.3854 11.1927 37.2656 11.2865 37.1094 11.3594C36.9635 11.4219 36.8021 11.4531 36.625 11.4531C36.5625 11.4427 36.4948 11.4323 36.4219 11.4219C36.349 11.4115 36.2812 11.4062 36.2188 11.4062C36.1979 11.3958 36.1667 11.3958 36.125 11.4062C36.0938 11.4167 36.0677 11.4167 36.0469 11.4062C35.9948 11.3854 35.9479 11.3281 35.9062 11.2344C35.875 11.1406 35.8229 11.0833 35.75 11.0625C35.6771 11.0521 35.6094 11.0729 35.5469 11.125C35.4948 11.1771 35.4427 11.2188 35.3906 11.25C35.3594 11.2708 35.3021 11.2865 35.2188 11.2969C35.1354 11.2969 35.0677 11.2917 35.0156 11.2812C34.9427 11.2812 34.8646 11.276 34.7812 11.2656C34.6979 11.2552 34.6094 11.25 34.5156 11.25C34.3698 11.2292 34.2188 11.2344 34.0625 11.2656C33.9167 11.2865 33.8021 11.2708 33.7188 11.2188C33.6771 11.1667 33.6458 11.1406 33.625 11.1406C33.6042 11.1406 33.5833 11.1302 33.5625 11.1094C33.5208 11.0885 33.4896 11.0573 33.4688 11.0156C33.4479 10.9635 33.4115 10.9219 33.3594 10.8906C33.3385 10.8281 33.3281 10.7552 33.3281 10.6719C33.3281 10.5885 33.3333 10.5052 33.3438 10.4219C33.3542 10.3177 33.3542 10.2135 33.3438 10.1094C33.3438 10.0052 33.3594 9.91667 33.3906 9.84375C33.4115 9.80208 33.4375 9.76562 33.4688 9.73438C33.5104 9.69271 33.5312 9.64062 33.5312 9.57812C33.5312 9.54688 33.5208 9.51562 33.5 9.48438C33.4792 9.45312 33.4583 9.42708 33.4375 9.40625C33.4167 9.33333 33.4115 9.25521 33.4219 9.17188C33.4323 9.08854 33.4583 9.02083 33.5 8.96875C33.5521 8.875 33.6094 8.79167 33.6719 8.71875C33.7448 8.64583 33.7812 8.52604 33.7812 8.35938C33.7812 8.29688 33.7656 8.23958 33.7344 8.1875C33.7031 8.13542 33.6771 8.08333 33.6562 8.03125C33.6354 7.97917 33.6146 7.9375 33.5938 7.90625C33.5833 7.875 33.5729 7.84375 33.5625 7.8125C33.5521 7.72917 33.5521 7.65104 33.5625 7.57812C33.5833 7.50521 33.5938 7.43229 33.5938 7.35938C33.5833 7.18229 33.5833 7.04688 33.5938 6.95312C33.6042 6.85938 33.6146 6.76042 33.625 6.65625C33.625 6.61458 33.6198 6.57292 33.6094 6.53125C33.6094 6.48958 33.6146 6.44792 33.625 6.40625C33.6458 6.34375 33.6823 6.28646 33.7344 6.23438C33.7865 6.18229 33.8177 6.10938 33.8281 6.01562C33.8281 5.94271 33.8229 5.86979 33.8125 5.79688C33.8021 5.71354 33.7865 5.64583 33.7656 5.59375C33.7448 5.54167 33.7188 5.49479 33.6875 5.45312C33.6562 5.41146 33.6302 5.35938 33.6094 5.29688C33.5885 5.21354 33.5833 5.125 33.5938 5.03125C33.6146 4.9375 33.6302 4.83333 33.6406 4.71875C33.651 4.625 33.651 4.52604 33.6406 4.42188C33.6406 4.31771 33.651 4.22396 33.6719 4.14062C33.6823 4.09896 33.6927 4.05729 33.7031 4.01562C33.724 3.97396 33.7396 3.93229 33.75 3.89062C33.75 3.85938 33.7448 3.82812 33.7344 3.79688C33.7344 3.76562 33.7396 3.72917 33.75 3.6875C33.8021 3.45833 33.8333 3.26042 33.8438 3.09375C33.8646 2.92708 33.9375 2.77083 34.0625 2.625C34.125 2.60417 34.1823 2.57292 34.2344 2.53125C34.2865 2.48958 34.3385 2.45833 34.3906 2.4375C34.4427 2.41667 34.5156 2.40625 34.6094 2.40625C34.7031 2.40625 34.7917 2.40104 34.875 2.39062C35.0625 2.38021 35.2344 2.375 35.3906 2.375C35.5573 2.375 35.7344 2.38021 35.9219 2.39062C35.9948 2.40104 36.0573 2.40625 36.1094 2.40625C36.1719 2.39583 36.224 2.39583 36.2656 2.40625C36.2969 2.41667 36.3229 2.4375 36.3438 2.46875C36.375 2.5 36.4115 2.52604 36.4531 2.54688C36.6198 2.57812 36.7083 2.59375 36.7188 2.59375C36.7708 2.59375 36.8073 2.58333 36.8281 2.5625C36.849 2.53125 36.8854 2.51042 36.9375 2.5C37.0208 2.47917 37.125 2.47917 37.25 2.5C37.3854 2.52083 37.4948 2.55729 37.5781 2.60938C37.6094 2.63021 37.6406 2.66146 37.6719 2.70312C37.7135 2.74479 37.75 2.78646 37.7812 2.82812C37.8958 2.92188 37.9896 3.03125 38.0625 3.15625C38.1354 3.28125 38.2135 3.41667 38.2969 3.5625C38.3802 3.71875 38.4583 3.84375 38.5312 3.9375C38.6146 4.02083 38.6823 4.11458 38.7344 4.21875C38.7552 4.27083 38.776 4.31771 38.7969 4.35938C38.8177 4.40104 38.8438 4.44271 38.875 4.48438C38.8958 4.53646 38.9167 4.58854 38.9375 4.64062C38.9688 4.68229 38.9948 4.72396 39.0156 4.76562C39.0469 4.81771 39.0833 4.86979 39.125 4.92188C39.1667 4.96354 39.2135 5.01042 39.2656 5.0625C39.2865 5.09375 39.3021 5.125 39.3125 5.15625C39.3229 5.17708 39.3385 5.20312 39.3594 5.23438C39.3906 5.28646 39.4219 5.33333 39.4531 5.375C39.4844 5.41667 39.5156 5.46354 39.5469 5.51562C39.5469 5.63021 39.5469 5.72917 39.5469 5.8125C39.5469 5.88542 39.5677 5.95833 39.6094 6.03125C39.6615 6.125 39.7448 6.19271 39.8594 6.23438C39.974 6.26562 40.0729 6.32292 40.1562 6.40625C40.1562 6.45833 40.1771 6.50521 40.2188 6.54688C40.2604 6.57812 40.2865 6.63021 40.2969 6.70312C40.2969 6.85938 40.3125 6.94271 40.3438 6.95312C40.375 6.96354 40.4115 6.97917 40.4531 7C40.5365 7.07292 40.599 7.15104 40.6406 7.23438C40.6927 7.30729 40.7552 7.38542 40.8281 7.46875C40.8698 7.30208 40.8854 7.13542 40.875 6.96875C40.875 6.79167 40.8802 6.60417 40.8906 6.40625C40.8906 6.33333 40.8854 6.25521 40.875 6.17188C40.8646 6.07812 40.8698 5.98958 40.8906 5.90625C40.9115 5.82292 40.9583 5.74479 41.0312 5.67188C41.1146 5.58854 41.151 5.48958 41.1406 5.375C41.1406 5.32292 41.125 5.28646 41.0938 5.26562C41.0729 5.23438 41.0521 5.19271 41.0312 5.14062C40.9792 5.05729 40.9375 4.96875 40.9062 4.875C40.8854 4.77083 40.8854 4.65104 40.9062 4.51562C40.9167 4.40104 40.9323 4.28646 40.9531 4.17188C40.974 4.04688 40.9896 3.92188 41 3.79688C41.0208 3.68229 41.026 3.57292 41.0156 3.46875C41.0156 3.35417 41.0521 3.24479 41.125 3.14062C41.25 3.05729 41.3229 3.00521 41.3438 2.98438C41.3646 2.95312 41.3854 2.93229 41.4062 2.92188C41.4583 2.90104 41.526 2.89062 41.6094 2.89062C41.7031 2.89062 41.776 2.89583 41.8281 2.90625C42.0156 2.90625 42.2031 2.91667 42.3906 2.9375C42.5781 2.95833 42.75 2.97396 42.9062 2.98438C43.0417 2.98438 43.125 3 43.1562 3.03125C43.1875 3.05208 43.224 3.07292 43.2656 3.09375C43.3594 3.10417 43.4479 3.11979 43.5312 3.14062C43.625 3.16146 43.7188 3.16667 43.8125 3.15625C43.9167 3.13542 44.0052 3.10417 44.0781 3.0625C44.1615 3.02083 44.2448 2.99479 44.3281 2.98438C44.3594 2.98438 44.3854 2.98958 44.4062 3C44.4375 3.01042 44.4688 3.01562 44.5 3.01562C44.5625 3.01562 44.625 3.01042 44.6875 3C44.75 2.98958 44.8073 2.99479 44.8594 3.01562C44.849 3.11979 44.8542 3.18229 44.875 3.20312C44.9062 3.22396 44.9271 3.25 44.9375 3.28125C44.875 3.46875 44.8438 3.60938 44.8438 3.70312C44.8542 3.78646 44.8594 3.875 44.8594 3.96875C44.849 4.17708 44.849 4.39062 44.8594 4.60938C44.8698 4.81771 44.8698 5.02604 44.8594 5.23438C44.8385 5.49479 44.8177 5.76042 44.7969 6.03125C44.7865 6.29167 44.7865 6.54167 44.7969 6.78125C44.7969 6.88542 44.8021 7.01562 44.8125 7.17188C44.8229 7.32812 44.8125 7.44792 44.7812 7.53125C44.7604 7.58333 44.724 7.63021 44.6719 7.67188C44.6302 7.70312 44.599 7.74479 44.5781 7.79688C44.5573 7.83854 44.5365 7.89583 44.5156 7.96875C44.5052 8.04167 44.5 8.10938 44.5 8.17188C44.5104 8.23438 44.5365 8.29167 44.5781 8.34375C44.6198 8.39583 44.651 8.45312 44.6719 8.51562C44.6927 8.56771 44.7031 8.64062 44.7031 8.73438C44.7031 8.82812 44.6979 8.91667 44.6875 9C44.6771 9.13542 44.6719 9.25521 44.6719 9.35938C44.6719 9.46354 44.6667 9.57812 44.6562 9.70312C44.6562 9.75521 44.6615 9.80729 44.6719 9.85938C44.6927 9.90104 44.6979 9.9375 44.6875 9.96875C44.6771 10.0208 44.6458 10.0677 44.5938 10.1094C44.5521 10.1406 44.526 10.1823 44.5156 10.2344C44.5052 10.2969 44.5156 10.3594 44.5469 10.4219C44.5781 10.474 44.599 10.5365 44.6094 10.6094C44.6094 10.651 44.6042 10.6927 44.5938 10.7344C44.5833 10.776 44.5781 10.8177 44.5781 10.8594C44.5781 10.8906 44.5781 10.9271 44.5781 10.9688C44.5781 11 44.5677 11.026 44.5469 11.0469C44.5365 11.099 44.5052 11.1562 44.4531 11.2188C44.4115 11.2708 44.3802 11.3229 44.3594 11.375C44.3281 11.4271 44.2969 11.4844 44.2656 11.5469C44.2344 11.6094 44.2031 11.6615 44.1719 11.7031C44.151 11.7344 44.1042 11.7812 44.0312 11.8438C43.9583 11.9062 43.8958 11.9375 43.8438 11.9375ZM34.4844 3.14062C34.4219 3.22396 34.3698 3.35417 34.3281 3.53125C34.2969 3.69792 34.3125 3.83854 34.375 3.95312C34.5 3.93229 34.5781 3.86979 34.6094 3.76562C34.651 3.66146 34.7083 3.57292 34.7812 3.5C34.8542 3.45833 34.9479 3.42708 35.0625 3.40625C35.1458 3.27083 35.1458 3.16667 35.0625 3.09375C34.9792 3.03125 34.8802 3.01042 34.7656 3.03125C34.651 3.05208 34.5573 3.08854 34.4844 3.14062ZM34.5781 9.125C34.5573 9.08333 34.5469 9.03646 34.5469 8.98438C34.5573 8.93229 34.5625 8.88542 34.5625 8.84375C34.5625 8.80208 34.5573 8.76562 34.5469 8.73438C34.5365 8.69271 34.5 8.66667 34.4375 8.65625C34.4271 8.67708 34.401 8.73438 34.3594 8.82812C34.3281 8.91146 34.3073 8.96354 34.2969 8.98438C34.276 9.06771 34.3021 9.11979 34.375 9.14062C34.4479 9.15104 34.5156 9.14583 34.5781 9.125ZM34.2812 4.40625C34.2812 4.47917 34.2812 4.5625 34.2812 4.65625C34.2812 4.75 34.3177 4.80729 34.3906 4.82812C34.4427 4.77604 34.4844 4.70312 34.5156 4.60938C34.5469 4.50521 34.5312 4.42708 34.4688 4.375C34.375 4.35417 34.3125 4.36458 34.2812 4.40625ZM34.6406 10.6875C34.7031 10.6771 34.7448 10.6562 34.7656 10.625C34.7865 10.5833 34.7865 10.5417 34.7656 10.5C34.7552 10.4583 34.7292 10.4271 34.6875 10.4062C34.6458 10.3854 34.5938 10.3906 34.5312 10.4219C34.4792 10.3385 34.4323 10.2448 34.3906 10.1406C34.349 10.0365 34.3385 9.92188 34.3594 9.79688C34.2656 9.82812 34.1927 9.92188 34.1406 10.0781C34.099 10.2344 34.0885 10.3854 34.1094 10.5312C34.1302 10.6146 34.1667 10.6562 34.2188 10.6562C34.2708 10.6458 34.3281 10.6458 34.3906 10.6562C34.4427 10.6562 34.4896 10.6667 34.5312 10.6875C34.5729 10.6979 34.6094 10.6979 34.6406 10.6875ZM43.0156 3.625C42.9844 3.64583 42.9635 3.6875 42.9531 3.75C42.9427 3.8125 42.9583 3.85417 43 3.875C43.0521 3.91667 43.1094 3.91667 43.1719 3.875C43.2344 3.83333 43.2396 3.77604 43.1875 3.70312C43.1562 3.69271 43.125 3.68229 43.0938 3.67188C43.0729 3.65104 43.0469 3.63542 43.0156 3.625ZM41.7188 3.79688C41.7188 3.85938 41.7188 3.93229 41.7188 4.01562C41.7188 4.09896 41.7188 4.18229 41.7188 4.26562C41.7188 4.33854 41.7292 4.40625 41.75 4.46875C41.7708 4.52083 41.8073 4.55208 41.8594 4.5625C41.9323 4.48958 41.9688 4.39583 41.9688 4.28125C41.9792 4.15625 41.9948 4.05208 42.0156 3.96875C42.0885 3.91667 42.1719 3.88542 42.2656 3.875C42.3698 3.85417 42.474 3.83854 42.5781 3.82812C42.599 3.80729 42.6094 3.77604 42.6094 3.73438C42.6094 3.68229 42.599 3.64583 42.5781 3.625C42.4635 3.60417 42.3438 3.59896 42.2188 3.60938C42.1042 3.60938 41.974 3.59375 41.8281 3.5625C41.7552 3.57292 41.7188 3.59896 41.7188 3.64062C41.7188 3.68229 41.7188 3.73438 41.7188 3.79688ZM42.7969 11.1875C42.8073 11.1458 42.8073 11.1042 42.7969 11.0625C42.7969 11.0104 42.7865 10.974 42.7656 10.9531C42.7135 10.901 42.651 10.8802 42.5781 10.8906C42.5052 10.8906 42.4323 10.8802 42.3594 10.8594C42.2656 10.8385 42.1927 10.8021 42.1406 10.75C42.099 10.6979 42.0625 10.6406 42.0312 10.5781C42 10.5156 41.9635 10.4531 41.9219 10.3906C41.8802 10.3177 41.8229 10.2604 41.75 10.2188C41.7292 10.2188 41.6979 10.2188 41.6562 10.2188C41.625 10.2083 41.599 10.1927 41.5781 10.1719C41.4948 10.2344 41.4792 10.3073 41.5312 10.3906C41.5833 10.4635 41.6198 10.5365 41.6406 10.6094C41.6719 10.7031 41.6875 10.7969 41.6875 10.8906C41.6979 10.974 41.7188 11.0469 41.75 11.1094C41.8438 11.1927 41.9583 11.2344 42.0938 11.2344C42.2396 11.2344 42.3698 11.2448 42.4844 11.2656C42.5365 11.2448 42.5885 11.2344 42.6406 11.2344C42.7031 11.224 42.7552 11.2083 42.7969 11.1875ZM43.5938 11.2812C43.625 11.1875 43.6198 11.125 43.5781 11.0938C43.4323 11.1042 43.3385 11.1094 43.2969 11.1094C43.2656 11.099 43.25 11.1094 43.25 11.1406C43.25 11.224 43.2917 11.2812 43.375 11.3125C43.4688 11.3438 43.5417 11.3333 43.5938 11.2812ZM33.1562 3.42188C33.2396 3.38021 33.3125 3.38021 33.375 3.42188C33.4479 3.45312 33.4948 3.49479 33.5156 3.54688C33.4948 3.68229 33.474 3.81771 33.4531 3.95312C33.4427 4.07812 33.4375 4.21354 33.4375 4.35938C33.4375 4.48438 33.401 4.57812 33.3281 4.64062C33.276 4.66146 33.2292 4.66146 33.1875 4.64062C33.1562 4.60938 33.1302 4.58333 33.1094 4.5625C33.0885 4.42708 33.0938 4.27604 33.125 4.10938C33.1667 3.94271 33.1615 3.78646 33.1094 3.64062C33.1198 3.59896 33.125 3.55729 33.125 3.51562C33.125 3.47396 33.1354 3.44271 33.1562 3.42188ZM40.3125 4.53125C40.3542 4.51042 40.3802 4.48438 40.3906 4.45312C40.4115 4.41146 40.4479 4.39062 40.5 4.39062C40.625 4.53646 40.6562 4.70833 40.5938 4.90625C40.4271 4.92708 40.3333 4.89583 40.3125 4.8125C40.3021 4.71875 40.3021 4.625 40.3125 4.53125ZM44.7656 11C44.8073 10.9792 44.8438 10.9792 44.875 11C44.9167 11.0208 44.9479 11.0417 44.9688 11.0625C44.9167 11.1771 44.8802 11.2448 44.8594 11.2656C44.8385 11.2865 44.8021 11.2865 44.75 11.2656C44.7292 11.2344 44.7188 11.1927 44.7188 11.1406C44.7292 11.0781 44.7448 11.0312 44.7656 11ZM37.9375 10.9219C38.0104 10.8906 38.0417 10.9323 38.0312 11.0469C38.0208 11.151 38.0208 11.2396 38.0312 11.3125C38.0417 11.4375 38.0625 11.5469 38.0938 11.6406C38.125 11.7344 38.1146 11.8333 38.0625 11.9375C38 12 37.9062 12.0208 37.7812 12C37.6562 11.9688 37.5417 11.9583 37.4375 11.9688C37.3125 12.0521 37.2031 12.099 37.1094 12.1094C37.0156 12.1198 36.9167 12.1354 36.8125 12.1562C36.6354 12.1771 36.4531 12.1615 36.2656 12.1094C36.0885 12.0573 35.9115 12.0052 35.7344 11.9531C35.7135 11.901 35.724 11.8698 35.7656 11.8594C35.8177 11.849 35.8542 11.8333 35.875 11.8125C35.9896 11.8125 36.1042 11.8021 36.2188 11.7812C36.3438 11.75 36.474 11.7396 36.6094 11.75C36.6719 11.75 36.7292 11.7604 36.7812 11.7812C36.8438 11.7917 36.9062 11.7969 36.9688 11.7969C37.0417 11.7969 37.1094 11.7917 37.1719 11.7812C37.2448 11.7708 37.3125 11.7708 37.375 11.7812C37.5208 11.8333 37.625 11.8438 37.6875 11.8125C37.75 11.7708 37.7917 11.7135 37.8125 11.6406C37.8229 11.6094 37.8229 11.5781 37.8125 11.5469C37.8125 11.5156 37.8125 11.4844 37.8125 11.4531C37.8229 11.349 37.8385 11.25 37.8594 11.1562C37.8906 11.0625 37.9167 10.9844 37.9375 10.9219ZM44.625 11.4844C44.6771 11.4844 44.7135 11.4948 44.7344 11.5156C44.7552 11.5365 44.776 11.5573 44.7969 11.5781C44.776 11.6615 44.7604 11.7552 44.75 11.8594C44.7396 11.9635 44.7344 12.0729 44.7344 12.1875C44.7031 12.3229 44.6615 12.4115 44.6094 12.4531C44.5573 12.4844 44.5104 12.5 44.4688 12.5C44.4062 12.5 44.3594 12.4792 44.3281 12.4375C44.3073 12.3854 44.2552 12.3698 44.1719 12.3906C44.0781 12.5052 43.9479 12.5469 43.7812 12.5156C43.6979 12.401 43.7083 12.3125 43.8125 12.25C43.9271 12.1875 44.0365 12.151 44.1406 12.1406C44.1719 12.1302 44.2188 12.099 44.2812 12.0469C44.3542 11.9844 44.401 11.9375 44.4219 11.9062C44.474 11.8333 44.5 11.7656 44.5 11.7031C44.5104 11.6406 44.5521 11.5677 44.625 11.4844ZM33.6094 11.5156C33.6927 11.526 33.776 11.526 33.8594 11.5156C33.9531 11.5052 34.026 11.5312 34.0781 11.5938C33.9219 11.6875 33.7812 11.7552 33.6562 11.7969C33.5417 11.8281 33.4115 11.8177 33.2656 11.7656C33.224 11.7135 33.1927 11.6562 33.1719 11.5938C33.151 11.5208 33.1667 11.4635 33.2188 11.4219C33.2812 11.4219 33.3438 11.4375 33.4062 11.4688C33.4688 11.4896 33.5365 11.5052 33.6094 11.5156ZM43.1562 12.25C43.2083 12.2604 43.2656 12.2917 43.3281 12.3438C43.401 12.3958 43.4271 12.4479 43.4062 12.5C43.3542 12.5625 43.2812 12.5938 43.1875 12.5938C43.0938 12.5833 42.9948 12.5781 42.8906 12.5781C42.8073 12.5677 42.7292 12.5729 42.6562 12.5938C42.5938 12.6042 42.526 12.599 42.4531 12.5781C42.3906 12.5573 42.3542 12.5208 42.3438 12.4688C42.3438 12.4167 42.3698 12.3698 42.4219 12.3281C42.474 12.3073 42.5365 12.3021 42.6094 12.3125C42.6823 12.3125 42.7604 12.3073 42.8438 12.2969C42.8958 12.2969 42.9479 12.2865 43 12.2656C43.0521 12.2448 43.1042 12.2396 43.1562 12.25ZM51.8281 2.4375C51.776 2.41667 51.724 2.38542 51.6719 2.34375C51.6198 2.29167 51.599 2.23438 51.6094 2.17188C51.7135 2.13021 51.8646 2.11979 52.0625 2.14062C52.0938 2.14062 52.125 2.14583 52.1562 2.15625C52.1875 2.16667 52.2135 2.17708 52.2344 2.1875C52.3073 2.13542 52.4062 2.11458 52.5312 2.125C52.6667 2.125 52.7448 2.16667 52.7656 2.25C52.776 2.27083 52.776 2.30729 52.7656 2.35938C52.7656 2.41146 52.7604 2.45312 52.75 2.48438C52.75 2.54688 52.7396 2.625 52.7188 2.71875C52.6979 2.80208 52.6771 2.86979 52.6562 2.92188C52.6354 3.02604 52.5885 3.10417 52.5156 3.15625C52.4427 3.19792 52.401 3.21875 52.3906 3.21875C52.3594 3.20833 52.3333 3.17708 52.3125 3.125C52.2917 3.0625 52.276 3.01562 52.2656 2.98438C52.2448 2.90104 52.2396 2.82292 52.25 2.75C52.2604 2.66667 52.25 2.59375 52.2188 2.53125C52.1667 2.51042 52.1042 2.49479 52.0312 2.48438C51.9583 2.47396 51.8906 2.45833 51.8281 2.4375ZM55.9375 11.5156C55.7812 11.5781 55.6875 11.625 55.6562 11.6562C55.625 11.6771 55.5885 11.6979 55.5469 11.7188C55.5052 11.7292 55.4635 11.7344 55.4219 11.7344C55.3802 11.7344 55.3333 11.7396 55.2812 11.75C55.1458 11.7812 55.0052 11.8177 54.8594 11.8594C54.724 11.901 54.5833 11.9219 54.4375 11.9219C54.1875 11.9219 53.9427 11.9271 53.7031 11.9375C53.474 11.9479 53.2656 11.8906 53.0781 11.7656C52.9427 11.7031 52.776 11.6667 52.5781 11.6562C52.3906 11.6354 52.2188 11.651 52.0625 11.7031C52.0312 11.724 51.9896 11.7344 51.9375 11.7344C51.8958 11.7344 51.8542 11.7448 51.8125 11.7656C51.7292 11.7865 51.651 11.8021 51.5781 11.8125C51.5052 11.8229 51.4115 11.8177 51.2969 11.7969C51.1406 11.7656 51.0208 11.7604 50.9375 11.7812C50.8646 11.7917 50.7865 11.7812 50.7031 11.75C50.3906 11.7708 50.1042 11.7708 49.8438 11.75C49.5833 11.7188 49.3281 11.6458 49.0781 11.5312C49.0052 11.5312 48.9323 11.5052 48.8594 11.4531C48.5677 11.349 48.3281 11.2135 48.1406 11.0469C47.9531 10.8698 47.7708 10.6927 47.5938 10.5156C47.5417 10.4427 47.4896 10.3698 47.4375 10.2969C47.3854 10.2135 47.3385 10.1302 47.2969 10.0469C47.276 9.99479 47.2552 9.94792 47.2344 9.90625C47.2135 9.86458 47.2135 9.81771 47.2344 9.76562C47.2135 9.74479 47.1979 9.71875 47.1875 9.6875C47.1875 9.65625 47.1771 9.625 47.1562 9.59375C47.1562 9.48958 47.1458 9.375 47.125 9.25C47.1146 9.125 47.1042 9.00521 47.0938 8.89062C47.0938 8.76562 47.1042 8.65104 47.125 8.54688C47.1458 8.44271 47.1979 8.35417 47.2812 8.28125C47.2917 8.19792 47.3073 8.11458 47.3281 8.03125C47.349 7.9375 47.349 7.84375 47.3281 7.75C47.3177 7.69792 47.2917 7.65625 47.25 7.625C47.2083 7.58333 47.1823 7.53646 47.1719 7.48438C47.1615 7.46354 47.1562 7.4375 47.1562 7.40625C47.1667 7.375 47.1719 7.33854 47.1719 7.29688C47.1719 7.26562 47.1667 7.23958 47.1562 7.21875C47.1562 7.1875 47.1615 7.15625 47.1719 7.125C47.1719 7.07292 47.1771 7.02604 47.1875 6.98438C47.1979 6.93229 47.2083 6.86979 47.2188 6.79688C47.2188 6.77604 47.2135 6.75 47.2031 6.71875C47.2031 6.6875 47.2031 6.65625 47.2031 6.625C47.2135 6.59375 47.224 6.5625 47.2344 6.53125C47.2552 6.5 47.2656 6.46354 47.2656 6.42188C47.276 6.39062 47.276 6.35938 47.2656 6.32812C47.2656 6.28646 47.2708 6.24479 47.2812 6.20312C47.2917 6.02604 47.3073 5.85938 47.3281 5.70312C47.3594 5.53646 47.3802 5.36458 47.3906 5.1875C47.3698 5.07292 47.3594 4.96354 47.3594 4.85938C47.3698 4.74479 47.375 4.63021 47.375 4.51562C47.3854 4.47396 47.3906 4.43229 47.3906 4.39062C47.3906 4.33854 47.401 4.30208 47.4219 4.28125C47.4427 4.22917 47.474 4.1875 47.5156 4.15625C47.5573 4.125 47.5885 4.08333 47.6094 4.03125C47.651 3.91667 47.6562 3.8125 47.625 3.71875C47.6042 3.625 47.5729 3.53646 47.5312 3.45312C47.5104 3.42188 47.4896 3.39062 47.4688 3.35938C47.4479 3.31771 47.4323 3.27604 47.4219 3.23438C47.4115 3.20312 47.4062 3.16146 47.4062 3.10938C47.4062 3.05729 47.4115 3 47.4219 2.9375C47.4323 2.875 47.4427 2.81771 47.4531 2.76562C47.4635 2.70312 47.474 2.66146 47.4844 2.64062C47.4844 2.63021 47.5052 2.60938 47.5469 2.57812C47.5885 2.53646 47.6146 2.51042 47.625 2.5C47.6458 2.47917 47.6771 2.47396 47.7188 2.48438C47.7708 2.48438 47.8177 2.47917 47.8594 2.46875C47.974 2.42708 48.0417 2.41146 48.0625 2.42188C48.0833 2.42188 48.1042 2.42188 48.125 2.42188C48.2188 2.42188 48.3177 2.43229 48.4219 2.45312C48.6198 2.47396 48.8073 2.49479 48.9844 2.51562C49.1719 2.52604 49.3802 2.52083 49.6094 2.5C49.6927 2.58333 49.7552 2.625 49.7969 2.625C49.8802 2.67708 49.9896 2.73438 50.125 2.79688C50.2604 2.84896 50.3802 2.875 50.4844 2.875C50.599 2.875 50.6875 2.85417 50.75 2.8125C50.8229 2.77083 50.901 2.73438 50.9844 2.70312C51.1302 2.65104 51.2708 2.63021 51.4062 2.64062C51.5521 2.65104 51.6979 2.65104 51.8438 2.64062C51.8646 2.67188 51.8802 2.71354 51.8906 2.76562C51.901 2.80729 51.901 2.83854 51.8906 2.85938C51.9115 2.90104 51.9271 2.94271 51.9375 2.98438C51.9479 3.02604 51.9635 3.06771 51.9844 3.10938C52.0052 3.31771 52.0156 3.53646 52.0156 3.76562C52.0156 3.98438 51.9896 4.18229 51.9375 4.35938C51.8854 4.79688 51.8281 5.21875 51.7656 5.625C51.7135 6.03125 51.6875 6.40104 51.6875 6.73438C51.6562 6.82812 51.6198 6.90625 51.5781 6.96875C51.5365 7.02083 51.5 7.10417 51.4688 7.21875C51.4375 7.32292 51.4115 7.42708 51.3906 7.53125C51.3698 7.625 51.3333 7.71354 51.2812 7.79688C51.2812 7.93229 51.2865 8.05208 51.2969 8.15625C51.3177 8.25 51.3802 8.31771 51.4844 8.35938C51.4948 8.44271 51.5104 8.53125 51.5312 8.625C51.5521 8.71875 51.5625 8.80729 51.5625 8.89062C51.5625 9.06771 51.5729 9.19271 51.5938 9.26562C51.6146 9.32812 51.6198 9.40104 51.6094 9.48438C51.651 9.51562 51.6875 9.55208 51.7188 9.59375C51.75 9.63542 51.7812 9.67708 51.8125 9.71875C51.8438 9.76042 51.8802 9.80208 51.9219 9.84375C51.9635 9.875 52.0208 9.89583 52.0938 9.90625C52.1771 9.90625 52.2292 9.91146 52.25 9.92188C52.2812 9.93229 52.3073 9.9375 52.3281 9.9375C52.4219 9.95833 52.526 9.96354 52.6406 9.95312C52.7656 9.94271 52.8854 9.9375 53 9.9375C53.1042 9.94792 53.2031 9.95312 53.2969 9.95312C53.401 9.95312 53.5 9.96354 53.5938 9.98438C53.6979 9.96354 53.8021 9.95833 53.9062 9.96875C54.0104 9.96875 54.1146 9.97396 54.2188 9.98438C54.3229 9.98438 54.4167 9.98438 54.5 9.98438C54.5938 9.97396 54.6823 9.94271 54.7656 9.89062C54.8281 9.84896 54.8854 9.78646 54.9375 9.70312C54.9896 9.60938 55.026 9.51562 55.0469 9.42188C55.1094 9.21354 55.1458 9.02604 55.1562 8.85938C55.1667 8.68229 55.1719 8.53125 55.1719 8.40625C55.1823 8.32292 55.1823 8.23958 55.1719 8.15625C55.1719 8.07292 55.1823 7.99479 55.2031 7.92188C55.2552 7.80729 55.3125 7.71354 55.375 7.64062C55.4375 7.55729 55.4948 7.46875 55.5469 7.375C55.6094 7.19792 55.6094 7.00521 55.5469 6.79688C55.4844 6.58854 55.4062 6.42188 55.3125 6.29688C55.2604 6.13021 55.2448 5.96354 55.2656 5.79688C55.2969 5.61979 55.3177 5.44271 55.3281 5.26562C55.3281 4.85938 55.3438 4.48958 55.375 4.15625C55.4062 3.82292 55.401 3.5 55.3594 3.1875C55.3802 3.14583 55.401 3.10938 55.4219 3.07812C55.4427 3.03646 55.4688 3.00521 55.5 2.98438C55.5729 2.94271 55.6615 2.92708 55.7656 2.9375C55.8698 2.9375 55.974 2.94271 56.0781 2.95312C56.1823 2.97396 56.2396 2.99479 56.25 3.01562C56.2604 3.02604 56.276 3.03646 56.2969 3.04688C56.349 3.07812 56.3958 3.10417 56.4375 3.125C56.4896 3.13542 56.5417 3.15104 56.5938 3.17188C56.7188 3.14062 56.7917 3.11979 56.8125 3.10938C56.8333 3.08854 56.8542 3.07812 56.875 3.07812C56.9479 3.05729 57.026 3.06771 57.1094 3.10938C57.2031 3.15104 57.2656 3.19792 57.2969 3.25C57.3073 3.28125 57.3073 3.32292 57.2969 3.375C57.2865 3.41667 57.2812 3.46354 57.2812 3.51562C57.3021 3.78646 57.3125 4.08333 57.3125 4.40625C57.3229 4.71875 57.3125 5.01042 57.2812 5.28125C57.2812 5.48958 57.2604 5.70312 57.2188 5.92188C57.1875 6.14062 57.1615 6.35417 57.1406 6.5625C57.1302 6.67708 57.125 6.79167 57.125 6.90625C57.1354 7.01042 57.1354 7.11979 57.125 7.23438C57.1146 7.44271 57.1094 7.65104 57.1094 7.85938C57.1198 8.06771 57.1094 8.27604 57.0781 8.48438C57.1094 8.54688 57.1094 8.59375 57.0781 8.625C57.0573 8.65625 57.0312 8.69792 57 8.75C56.9688 8.80208 56.9375 8.86979 56.9062 8.95312C56.875 9.03646 56.8646 9.10938 56.875 9.17188C56.8854 9.22396 56.901 9.26562 56.9219 9.29688C56.9427 9.32812 56.9583 9.375 56.9688 9.4375C56.9792 9.48958 56.9792 9.54688 56.9688 9.60938C56.9688 9.66146 56.9688 9.71875 56.9688 9.78125C56.9688 9.83333 56.974 9.89062 56.9844 9.95312C57.0052 10.0052 57.0104 10.0521 57 10.0938C56.9792 10.25 56.9323 10.401 56.8594 10.5469C56.7969 10.6927 56.7083 10.8073 56.5938 10.8906C56.5625 10.9531 56.5208 11.0052 56.4688 11.0469C56.4271 11.0781 56.3854 11.1198 56.3438 11.1719C56.3021 11.2135 56.25 11.276 56.1875 11.3594C56.0729 11.4219 56.0052 11.4635 55.9844 11.4844C55.974 11.4948 55.9583 11.5052 55.9375 11.5156ZM48.3438 3.95312C48.4583 3.94271 48.5417 3.90625 48.5938 3.84375C48.6562 3.78125 48.6979 3.70833 48.7188 3.625C48.75 3.53125 48.7604 3.43229 48.75 3.32812C48.7396 3.22396 48.7292 3.125 48.7188 3.03125C48.6354 2.97917 48.5365 2.9375 48.4219 2.90625C48.3177 2.86458 48.2344 2.88542 48.1719 2.96875C48.1406 3.02083 48.1302 3.07812 48.1406 3.14062C48.1615 3.20312 48.1719 3.27604 48.1719 3.35938C48.2552 3.43229 48.3021 3.52083 48.3125 3.625C48.3229 3.72917 48.3333 3.83854 48.3438 3.95312ZM50.5469 9.1875C50.6406 9.1875 50.7188 9.17188 50.7812 9.14062C50.8542 9.09896 50.8958 9.02604 50.9062 8.92188C50.8854 8.89062 50.8594 8.86458 50.8281 8.84375C50.8073 8.8125 50.7865 8.77604 50.7656 8.73438C50.6927 8.71354 50.6302 8.71875 50.5781 8.75C50.5365 8.78125 50.5052 8.82292 50.4844 8.875C50.4635 8.92708 50.4583 8.98438 50.4688 9.04688C50.4792 9.10938 50.5052 9.15625 50.5469 9.1875ZM52 10.6875C52.0312 10.6667 52.0573 10.6406 52.0781 10.6094C52.099 10.5781 52.1198 10.5521 52.1406 10.5312C52.0573 10.4479 51.9375 10.4115 51.7812 10.4219C51.6354 10.4219 51.5208 10.3906 51.4375 10.3281C51.375 10.2448 51.3125 10.1615 51.25 10.0781C51.1875 9.98438 51.1406 9.88021 51.1094 9.76562C50.9948 9.75521 50.9219 9.78125 50.8906 9.84375C50.8594 9.90625 50.8438 9.97917 50.8438 10.0625C50.8438 10.1458 50.8542 10.2344 50.875 10.3281C50.9062 10.4219 50.9323 10.4948 50.9531 10.5469C51.0052 10.6198 51.0833 10.6719 51.1875 10.7031C51.3021 10.724 51.4115 10.7344 51.5156 10.7344C51.5469 10.7344 51.5729 10.7292 51.5938 10.7188C51.625 10.7083 51.6562 10.7031 51.6875 10.7031C51.7396 10.7031 51.7969 10.7083 51.8594 10.7188C51.9219 10.7188 51.9688 10.7083 52 10.6875ZM55.9844 4.09375C56.0469 4.10417 56.0938 4.08333 56.125 4.03125C56.1562 3.96875 56.1927 3.92708 56.2344 3.90625C56.2448 3.84375 56.2344 3.78125 56.2031 3.71875C56.1823 3.64583 56.1562 3.60417 56.125 3.59375C56.0833 3.58333 56.026 3.59375 55.9531 3.625C55.8906 3.64583 55.8542 3.68229 55.8438 3.73438C55.8229 3.78646 55.8281 3.85417 55.8594 3.9375C55.8906 4.02083 55.9323 4.07292 55.9844 4.09375ZM52.6719 3.75C52.6927 3.85417 52.6823 3.95312 52.6406 4.04688C52.599 4.14062 52.599 4.22917 52.6406 4.3125C52.6198 4.35417 52.599 4.39062 52.5781 4.42188C52.5573 4.45312 52.5469 4.48958 52.5469 4.53125C52.526 4.57292 52.4948 4.61458 52.4531 4.65625C52.4115 4.6875 52.375 4.70312 52.3438 4.70312C52.2812 4.58854 52.2552 4.49479 52.2656 4.42188C52.2865 4.34896 52.2917 4.29167 52.2812 4.25C52.2812 4.19792 52.276 4.14062 52.2656 4.07812C52.2656 4.01562 52.2656 3.94792 52.2656 3.875C52.276 3.80208 52.2969 3.73958 52.3281 3.6875C52.3594 3.625 52.3958 3.59375 52.4375 3.59375C52.4896 3.58333 52.526 3.60417 52.5469 3.65625C52.5781 3.69792 52.6198 3.72917 52.6719 3.75ZM54.75 8.57812C54.7188 8.57812 54.6927 8.55729 54.6719 8.51562C54.651 8.46354 54.6406 8.41667 54.6406 8.375C54.651 8.32292 54.6667 8.28125 54.6875 8.25C54.7188 8.21875 54.7656 8.21875 54.8281 8.25C54.8281 8.27083 54.8333 8.30208 54.8438 8.34375C54.8542 8.375 54.8594 8.41146 54.8594 8.45312C54.8594 8.49479 54.849 8.53125 54.8281 8.5625C54.8177 8.58333 54.7917 8.58854 54.75 8.57812ZM53.9688 9.79688C53.9479 9.78646 53.9219 9.76562 53.8906 9.73438C53.8594 9.70312 53.8438 9.67708 53.8438 9.65625C53.8542 9.61458 53.8854 9.58333 53.9375 9.5625C53.9896 9.53125 54.026 9.51042 54.0469 9.5C54.099 9.48958 54.1458 9.48958 54.1875 9.5C54.2292 9.5 54.2708 9.48438 54.3125 9.45312C54.3646 9.41146 54.4115 9.36458 54.4531 9.3125C54.4844 9.26042 54.4948 9.20312 54.4844 9.14062C54.4844 9.06771 54.4948 9.01042 54.5156 8.96875C54.5365 8.92708 54.5833 8.89062 54.6562 8.85938C54.7396 8.81771 54.7969 8.82812 54.8281 8.89062C54.849 8.93229 54.8542 8.98438 54.8438 9.04688C54.8438 9.09896 54.8229 9.14062 54.7812 9.17188C54.8021 9.25521 54.7969 9.35938 54.7656 9.48438C54.7448 9.59896 54.7083 9.68229 54.6562 9.73438C54.6042 9.77604 54.5521 9.79688 54.5 9.79688C54.4479 9.79688 54.3854 9.80729 54.3125 9.82812C54.2604 9.78646 54.2031 9.77604 54.1406 9.79688C54.0781 9.81771 54.0208 9.81771 53.9688 9.79688ZM57.5 10.0312C57.6146 10.1875 57.6094 10.3385 57.4844 10.4844C57.4531 10.4948 57.4219 10.5104 57.3906 10.5312C57.3594 10.5521 57.3229 10.5521 57.2812 10.5312C57.2812 10.4896 57.2812 10.4375 57.2812 10.375C57.2917 10.3125 57.3021 10.2552 57.3125 10.2031C57.3229 10.1406 57.3385 10.0938 57.3594 10.0625C57.3906 10.0312 57.4375 10.0208 57.5 10.0312ZM57.3438 10.7969C57.3854 10.974 57.3802 11.1198 57.3281 11.2344C57.2865 11.3385 57.2344 11.4323 57.1719 11.5156C57.0885 11.651 56.9948 11.776 56.8906 11.8906C56.7865 12.0052 56.6458 12.0833 56.4688 12.125C56.4375 12.1354 56.4062 12.1406 56.375 12.1406C56.3542 12.1302 56.3281 12.1302 56.2969 12.1406C56.224 12.1615 56.1406 12.1927 56.0469 12.2344C55.9635 12.276 55.8646 12.2708 55.75 12.2188C55.7188 12.1667 55.7135 12.099 55.7344 12.0156C55.8698 11.9427 55.9531 11.8958 55.9844 11.875C56.0156 11.8542 56.0521 11.8333 56.0938 11.8125C56.1354 11.7917 56.1719 11.7812 56.2031 11.7812C56.2344 11.7812 56.2604 11.7708 56.2812 11.75C56.3125 11.7292 56.3333 11.7083 56.3438 11.6875C56.3646 11.6667 56.3906 11.6458 56.4219 11.625C56.474 11.5833 56.5312 11.5573 56.5938 11.5469C56.6562 11.526 56.7135 11.5 56.7656 11.4688C56.7865 11.4479 56.8177 11.4115 56.8594 11.3594C56.9115 11.2969 56.9479 11.2552 56.9688 11.2344C57 11.1719 57.026 11.1094 57.0469 11.0469C57.0781 10.9844 57.1094 10.9167 57.1406 10.8438C57.1615 10.8229 57.1875 10.8073 57.2188 10.7969C57.25 10.7865 57.2917 10.7865 57.3438 10.7969ZM47.7188 11.1406C47.6979 11.1927 47.6927 11.2292 47.7031 11.25C47.724 11.2708 47.7292 11.3125 47.7188 11.375C47.5833 11.4062 47.474 11.4062 47.3906 11.375C47.3073 11.3438 47.2188 11.276 47.125 11.1719C47.0938 11.1406 47.0573 11.1094 47.0156 11.0781C46.9844 11.0469 46.9583 11.0156 46.9375 10.9844C46.8854 10.9219 46.8542 10.8646 46.8438 10.8125C46.8438 10.75 46.8385 10.6771 46.8281 10.5938C46.8281 10.5625 46.8229 10.5312 46.8125 10.5C46.8021 10.4688 46.8073 10.4427 46.8281 10.4219C46.8385 10.3906 46.8646 10.3646 46.9062 10.3438C46.9583 10.3229 47 10.3229 47.0312 10.3438C47.0625 10.3646 47.0938 10.4062 47.125 10.4688C47.1667 10.5208 47.2031 10.5729 47.2344 10.625C47.3073 10.7396 47.3854 10.8333 47.4688 10.9062C47.5521 10.9792 47.6354 11.0573 47.7188 11.1406ZM49.4688 11.9844C49.4896 12.0156 49.5156 12.0417 49.5469 12.0625C49.5781 12.0833 49.5938 12.1094 49.5938 12.1406C49.5938 12.1927 49.5677 12.2188 49.5156 12.2188C49.474 12.2188 49.4271 12.2083 49.375 12.1875C49.2812 12.2188 49.1615 12.2396 49.0156 12.25C48.8802 12.25 48.7812 12.2083 48.7188 12.125C48.6042 12.0833 48.4948 12.0521 48.3906 12.0312C48.2865 12 48.1979 11.9427 48.125 11.8594C47.9792 11.8594 47.9062 11.8021 47.9062 11.6875C47.9062 11.6562 47.9167 11.6198 47.9375 11.5781C47.9688 11.5365 48.0104 11.5208 48.0625 11.5312C48.0833 11.5312 48.1094 11.5469 48.1406 11.5781C48.1719 11.6094 48.2031 11.6354 48.2344 11.6562C48.2656 11.6771 48.2969 11.6875 48.3281 11.6875C48.3698 11.6875 48.4115 11.6979 48.4531 11.7188C48.4948 11.7292 48.5312 11.7448 48.5625 11.7656C48.6042 11.776 48.6406 11.7865 48.6719 11.7969C48.7656 11.8385 48.8542 11.8646 48.9375 11.875C48.9688 11.8854 49 11.8906 49.0312 11.8906C49.0729 11.8802 49.1094 11.8802 49.1406 11.8906C49.2031 11.901 49.2604 11.9167 49.3125 11.9375C49.3646 11.9583 49.4167 11.974 49.4688 11.9844ZM50.2656 12.1875C50.224 12.3333 50.1458 12.4062 50.0312 12.4062C49.9271 12.3958 49.849 12.3646 49.7969 12.3125C49.7865 12.1979 49.8021 12.1302 49.8438 12.1094C49.8854 12.0885 49.9323 12.0833 49.9844 12.0938C50.0365 12.0938 50.0885 12.1042 50.1406 12.125C50.1927 12.1458 50.2344 12.1667 50.2656 12.1875Z" fill="white"/>
</svg>
